%TF.GenerationSoftware,KiCad,Pcbnew,9.0.7*%
%TF.CreationDate,2026-03-31T00:01:03+02:00*%
%TF.ProjectId,KHNATH002_Power_System,4b484e41-5448-4303-9032-5f506f776572,rev?*%
%TF.SameCoordinates,Original*%
%TF.FileFunction,Soldermask,Top*%
%TF.FilePolarity,Negative*%
%FSLAX46Y46*%
G04 Gerber Fmt 4.6, Leading zero omitted, Abs format (unit mm)*
G04 Created by KiCad (PCBNEW 9.0.7) date 2026-03-31 00:01:03*
%MOMM*%
%LPD*%
G01*
G04 APERTURE LIST*
G04 Aperture macros list*
%AMRoundRect*
0 Rectangle with rounded corners*
0 $1 Rounding radius*
0 $2 $3 $4 $5 $6 $7 $8 $9 X,Y pos of 4 corners*
0 Add a 4 corners polygon primitive as box body*
4,1,4,$2,$3,$4,$5,$6,$7,$8,$9,$2,$3,0*
0 Add four circle primitives for the rounded corners*
1,1,$1+$1,$2,$3*
1,1,$1+$1,$4,$5*
1,1,$1+$1,$6,$7*
1,1,$1+$1,$8,$9*
0 Add four rect primitives between the rounded corners*
20,1,$1+$1,$2,$3,$4,$5,0*
20,1,$1+$1,$4,$5,$6,$7,0*
20,1,$1+$1,$6,$7,$8,$9,0*
20,1,$1+$1,$8,$9,$2,$3,0*%
%AMFreePoly0*
4,1,23,0.500000,-0.750000,0.000000,-0.750000,0.000000,-0.745722,-0.065263,-0.745722,-0.191342,-0.711940,-0.304381,-0.646677,-0.396677,-0.554381,-0.461940,-0.441342,-0.495722,-0.315263,-0.495722,-0.250000,-0.500000,-0.250000,-0.500000,0.250000,-0.495722,0.250000,-0.495722,0.315263,-0.461940,0.441342,-0.396677,0.554381,-0.304381,0.646677,-0.191342,0.711940,-0.065263,0.745722,0.000000,0.745722,
0.000000,0.750000,0.500000,0.750000,0.500000,-0.750000,0.500000,-0.750000,$1*%
%AMFreePoly1*
4,1,23,0.000000,0.745722,0.065263,0.745722,0.191342,0.711940,0.304381,0.646677,0.396677,0.554381,0.461940,0.441342,0.495722,0.315263,0.495722,0.250000,0.500000,0.250000,0.500000,-0.250000,0.495722,-0.250000,0.495722,-0.315263,0.461940,-0.441342,0.396677,-0.554381,0.304381,-0.646677,0.191342,-0.711940,0.065263,-0.745722,0.000000,-0.745722,0.000000,-0.750000,-0.500000,-0.750000,
-0.500000,0.750000,0.000000,0.750000,0.000000,0.745722,0.000000,0.745722,$1*%
%AMFreePoly2*
4,1,6,1.000000,0.000000,0.500000,-0.750000,-0.500000,-0.750000,-0.500000,0.750000,0.500000,0.750000,1.000000,0.000000,1.000000,0.000000,$1*%
%AMFreePoly3*
4,1,6,0.500000,-0.750000,-0.650000,-0.750000,-0.150000,0.000000,-0.650000,0.750000,0.500000,0.750000,0.500000,-0.750000,0.500000,-0.750000,$1*%
G04 Aperture macros list end*
%ADD10R,2.000000X2.000000*%
%ADD11R,3.610008X1.259995*%
%ADD12R,5.400000X2.900000*%
%ADD13R,1.300000X0.600000*%
%ADD14R,2.500000X3.500000*%
%ADD15C,2.000000*%
%ADD16RoundRect,0.237500X0.250000X0.237500X-0.250000X0.237500X-0.250000X-0.237500X0.250000X-0.237500X0*%
%ADD17FreePoly0,0.000000*%
%ADD18FreePoly1,0.000000*%
%ADD19R,1.700000X1.700000*%
%ADD20C,1.700000*%
%ADD21RoundRect,0.237500X0.237500X-0.300000X0.237500X0.300000X-0.237500X0.300000X-0.237500X-0.300000X0*%
%ADD22FreePoly2,0.000000*%
%ADD23FreePoly3,0.000000*%
%ADD24R,2.500000X3.000000*%
%ADD25C,3.000000*%
%ADD26RoundRect,0.249999X-1.425001X0.450001X-1.425001X-0.450001X1.425001X-0.450001X1.425001X0.450001X0*%
%ADD27O,2.045009X0.588011*%
%ADD28RoundRect,0.237500X-0.300000X-0.237500X0.300000X-0.237500X0.300000X0.237500X-0.300000X0.237500X0*%
%ADD29RoundRect,0.237500X-0.250000X-0.237500X0.250000X-0.237500X0.250000X0.237500X-0.250000X0.237500X0*%
%ADD30RoundRect,0.237500X-0.287500X-0.237500X0.287500X-0.237500X0.287500X0.237500X-0.287500X0.237500X0*%
G04 APERTURE END LIST*
%TO.C,JP3*%
G36*
X149200000Y-133250000D02*
G01*
X149500000Y-133250000D01*
X149500000Y-134750000D01*
X149200000Y-134750000D01*
X149200000Y-133250000D01*
G37*
%TO.C,JP2*%
G36*
X149200000Y-103250000D02*
G01*
X149500000Y-103250000D01*
X149500000Y-104750000D01*
X149200000Y-104750000D01*
X149200000Y-103250000D01*
G37*
%TO.C,JP1*%
G36*
X148050000Y-68250000D02*
G01*
X150500000Y-68250000D01*
X150500000Y-69750000D01*
X148050000Y-69750000D01*
X148050000Y-68250000D01*
G37*
%TD*%
D10*
%TO.C,D3*%
X156299975Y-141500000D03*
X160700025Y-141500000D03*
%TD*%
%TO.C,D2*%
X154299975Y-111000000D03*
X158700025Y-111000000D03*
%TD*%
D11*
%TO.C,U8*%
X170500000Y-118899924D03*
X163910211Y-118899924D03*
%TD*%
%TO.C,U7*%
X165794971Y-91999924D03*
X159205182Y-91999924D03*
%TD*%
D12*
%TO.C,U6*%
X174705029Y-130399873D03*
X174705029Y-141400127D03*
%TD*%
%TO.C,U5*%
X172000000Y-100500000D03*
X172000000Y-111500254D03*
%TD*%
D13*
%TO.C,U4*%
X165604825Y-135210008D03*
X165604825Y-133940005D03*
X165604825Y-132670003D03*
X165604825Y-131400000D03*
X160205029Y-131400000D03*
X160205029Y-132670003D03*
X160205029Y-133940005D03*
X160205029Y-135210008D03*
D14*
X162904800Y-133305004D03*
%TD*%
D13*
%TO.C,U3*%
X162399796Y-105310008D03*
X162399796Y-104040005D03*
X162399796Y-102770003D03*
X162399796Y-101500000D03*
X157000000Y-101500000D03*
X157000000Y-102770003D03*
X157000000Y-104040005D03*
X157000000Y-105310008D03*
D14*
X159699771Y-103405004D03*
%TD*%
D15*
%TO.C,+5V*%
X181000000Y-118000000D03*
%TD*%
%TO.C,+3.3V*%
X181000000Y-89000000D03*
%TD*%
D16*
%TO.C,R8*%
X164617529Y-127400000D03*
X162792529Y-127400000D03*
%TD*%
%TO.C,R7*%
X169617529Y-127400000D03*
X167792529Y-127400000D03*
%TD*%
%TO.C,R6*%
X160912500Y-98500000D03*
X159087500Y-98500000D03*
%TD*%
%TO.C,R5*%
X165412500Y-98500000D03*
X163587500Y-98500000D03*
%TD*%
D17*
%TO.C,JP3*%
X148700000Y-134000000D03*
D18*
X150000000Y-134000000D03*
%TD*%
D17*
%TO.C,JP2*%
X148700000Y-104000000D03*
D18*
X150000000Y-104000000D03*
%TD*%
D19*
%TO.C,+5V*%
X182500000Y-123000000D03*
D20*
X182500000Y-125540000D03*
%TD*%
D19*
%TO.C,+5V*%
X178500000Y-123000000D03*
D20*
X178500000Y-125540000D03*
%TD*%
D19*
%TO.C,+3.3V*%
X178500000Y-94225000D03*
D20*
X178500000Y-96765000D03*
%TD*%
D19*
%TO.C,+3.3V*%
X182500000Y-94225000D03*
D20*
X182500000Y-96765000D03*
%TD*%
D21*
%TO.C,C6*%
X165500000Y-140862500D03*
X165500000Y-139137500D03*
%TD*%
%TO.C,C5*%
X164000000Y-108362500D03*
X164000000Y-106637500D03*
%TD*%
%TO.C,C4*%
X158205029Y-133762500D03*
X158205029Y-132037500D03*
%TD*%
%TO.C,C3*%
X154899796Y-103902505D03*
X154899796Y-102177505D03*
%TD*%
D22*
%TO.C,JP1*%
X148550000Y-69000000D03*
D23*
X150000000Y-69000000D03*
%TD*%
D24*
%TO.C,U1*%
X143725019Y-69363500D03*
D25*
X139024994Y-69363500D03*
X134324969Y-69363500D03*
%TD*%
%TO.C,GND*%
X131500000Y-111000000D03*
%TD*%
D26*
%TO.C,R4*%
X143500000Y-81950000D03*
X143500000Y-88050000D03*
%TD*%
D25*
%TO.C,M_LOAD*%
X131500000Y-104500000D03*
%TD*%
D27*
%TO.C,U2*%
X157069977Y-86905004D03*
X157069977Y-85635001D03*
X157069977Y-84364999D03*
X157069977Y-83094996D03*
X151930023Y-83094996D03*
X151930023Y-84364999D03*
X151930023Y-85635001D03*
X151930023Y-86905004D03*
%TD*%
D25*
%TO.C,GND*%
X131000000Y-97000000D03*
%TD*%
D28*
%TO.C,C2*%
X152637500Y-78500000D03*
X154362500Y-78500000D03*
%TD*%
D29*
%TO.C,R1*%
X148087500Y-75500000D03*
X149912500Y-75500000D03*
%TD*%
D16*
%TO.C,R3*%
X162912500Y-83000000D03*
X161087500Y-83000000D03*
%TD*%
D25*
%TO.C,TP10*%
X143500000Y-75500000D03*
%TD*%
%TO.C,+BATT*%
X131000000Y-75500000D03*
%TD*%
D30*
%TO.C,D1*%
X148125000Y-73000000D03*
X149875000Y-73000000D03*
%TD*%
D25*
%TO.C,M_LOAD*%
X131500000Y-117500000D03*
%TD*%
D16*
%TO.C,R2*%
X162912500Y-85000000D03*
X161087500Y-85000000D03*
%TD*%
D25*
%TO.C,GND*%
X131000000Y-82000000D03*
%TD*%
%TO.C,M_LOAD*%
X131000000Y-91000000D03*
%TD*%
D28*
%TO.C,C1*%
X152637500Y-80500000D03*
X154362500Y-80500000D03*
%TD*%
D19*
%TO.C,J6*%
X159500000Y-64500000D03*
D20*
X156960000Y-64500000D03*
%TD*%
D19*
%TO.C,J5*%
X166000000Y-67000000D03*
D20*
X166000000Y-64460000D03*
%TD*%
D25*
%TO.C,GND*%
X131500000Y-124500000D03*
%TD*%
M02*
