%TF.GenerationSoftware,KiCad,Pcbnew,9.0.7*%
%TF.CreationDate,2026-03-31T00:01:02+02:00*%
%TF.ProjectId,KHNATH002_Power_System,4b484e41-5448-4303-9032-5f506f776572,rev?*%
%TF.SameCoordinates,Original*%
%TF.FileFunction,Copper,L1,Top*%
%TF.FilePolarity,Positive*%
%FSLAX46Y46*%
G04 Gerber Fmt 4.6, Leading zero omitted, Abs format (unit mm)*
G04 Created by KiCad (PCBNEW 9.0.7) date 2026-03-31 00:01:02*
%MOMM*%
%LPD*%
G01*
G04 APERTURE LIST*
G04 Aperture macros list*
%AMRoundRect*
0 Rectangle with rounded corners*
0 $1 Rounding radius*
0 $2 $3 $4 $5 $6 $7 $8 $9 X,Y pos of 4 corners*
0 Add a 4 corners polygon primitive as box body*
4,1,4,$2,$3,$4,$5,$6,$7,$8,$9,$2,$3,0*
0 Add four circle primitives for the rounded corners*
1,1,$1+$1,$2,$3*
1,1,$1+$1,$4,$5*
1,1,$1+$1,$6,$7*
1,1,$1+$1,$8,$9*
0 Add four rect primitives between the rounded corners*
20,1,$1+$1,$2,$3,$4,$5,0*
20,1,$1+$1,$4,$5,$6,$7,0*
20,1,$1+$1,$6,$7,$8,$9,0*
20,1,$1+$1,$8,$9,$2,$3,0*%
%AMFreePoly0*
4,1,23,0.500000,-0.750000,0.000000,-0.750000,0.000000,-0.745722,-0.065263,-0.745722,-0.191342,-0.711940,-0.304381,-0.646677,-0.396677,-0.554381,-0.461940,-0.441342,-0.495722,-0.315263,-0.495722,-0.250000,-0.500000,-0.250000,-0.500000,0.250000,-0.495722,0.250000,-0.495722,0.315263,-0.461940,0.441342,-0.396677,0.554381,-0.304381,0.646677,-0.191342,0.711940,-0.065263,0.745722,0.000000,0.745722,
0.000000,0.750000,0.500000,0.750000,0.500000,-0.750000,0.500000,-0.750000,$1*%
%AMFreePoly1*
4,1,23,0.000000,0.745722,0.065263,0.745722,0.191342,0.711940,0.304381,0.646677,0.396677,0.554381,0.461940,0.441342,0.495722,0.315263,0.495722,0.250000,0.500000,0.250000,0.500000,-0.250000,0.495722,-0.250000,0.495722,-0.315263,0.461940,-0.441342,0.396677,-0.554381,0.304381,-0.646677,0.191342,-0.711940,0.065263,-0.745722,0.000000,-0.745722,0.000000,-0.750000,-0.500000,-0.750000,
-0.500000,0.750000,0.000000,0.750000,0.000000,0.745722,0.000000,0.745722,$1*%
%AMFreePoly2*
4,1,6,1.000000,0.000000,0.500000,-0.750000,-0.500000,-0.750000,-0.500000,0.750000,0.500000,0.750000,1.000000,0.000000,1.000000,0.000000,$1*%
%AMFreePoly3*
4,1,6,0.500000,-0.750000,-0.650000,-0.750000,-0.150000,0.000000,-0.650000,0.750000,0.500000,0.750000,0.500000,-0.750000,0.500000,-0.750000,$1*%
G04 Aperture macros list end*
%TA.AperFunction,SMDPad,CuDef*%
%ADD10R,2.000000X2.000000*%
%TD*%
%TA.AperFunction,SMDPad,CuDef*%
%ADD11R,3.610008X1.259995*%
%TD*%
%TA.AperFunction,SMDPad,CuDef*%
%ADD12R,5.400000X2.900000*%
%TD*%
%TA.AperFunction,SMDPad,CuDef*%
%ADD13R,1.300000X0.600000*%
%TD*%
%TA.AperFunction,SMDPad,CuDef*%
%ADD14R,2.500000X3.500000*%
%TD*%
%TA.AperFunction,SMDPad,CuDef*%
%ADD15C,2.000000*%
%TD*%
%TA.AperFunction,SMDPad,CuDef*%
%ADD16RoundRect,0.237500X0.250000X0.237500X-0.250000X0.237500X-0.250000X-0.237500X0.250000X-0.237500X0*%
%TD*%
%TA.AperFunction,SMDPad,CuDef*%
%ADD17FreePoly0,0.000000*%
%TD*%
%TA.AperFunction,SMDPad,CuDef*%
%ADD18FreePoly1,0.000000*%
%TD*%
%TA.AperFunction,ComponentPad*%
%ADD19R,1.700000X1.700000*%
%TD*%
%TA.AperFunction,ComponentPad*%
%ADD20C,1.700000*%
%TD*%
%TA.AperFunction,SMDPad,CuDef*%
%ADD21RoundRect,0.237500X0.237500X-0.300000X0.237500X0.300000X-0.237500X0.300000X-0.237500X-0.300000X0*%
%TD*%
%TA.AperFunction,SMDPad,CuDef*%
%ADD22FreePoly2,0.000000*%
%TD*%
%TA.AperFunction,SMDPad,CuDef*%
%ADD23FreePoly3,0.000000*%
%TD*%
%TA.AperFunction,ComponentPad*%
%ADD24R,2.500000X3.000000*%
%TD*%
%TA.AperFunction,ComponentPad*%
%ADD25C,3.000000*%
%TD*%
%TA.AperFunction,SMDPad,CuDef*%
%ADD26C,3.000000*%
%TD*%
%TA.AperFunction,SMDPad,CuDef*%
%ADD27RoundRect,0.249999X-1.425001X0.450001X-1.425001X-0.450001X1.425001X-0.450001X1.425001X0.450001X0*%
%TD*%
%TA.AperFunction,SMDPad,CuDef*%
%ADD28O,2.045009X0.588011*%
%TD*%
%TA.AperFunction,SMDPad,CuDef*%
%ADD29RoundRect,0.237500X-0.300000X-0.237500X0.300000X-0.237500X0.300000X0.237500X-0.300000X0.237500X0*%
%TD*%
%TA.AperFunction,SMDPad,CuDef*%
%ADD30RoundRect,0.237500X-0.250000X-0.237500X0.250000X-0.237500X0.250000X0.237500X-0.250000X0.237500X0*%
%TD*%
%TA.AperFunction,SMDPad,CuDef*%
%ADD31RoundRect,0.237500X-0.287500X-0.237500X0.287500X-0.237500X0.287500X0.237500X-0.287500X0.237500X0*%
%TD*%
%TA.AperFunction,ViaPad*%
%ADD32C,0.700000*%
%TD*%
%TA.AperFunction,Conductor*%
%ADD33C,0.600000*%
%TD*%
%TA.AperFunction,Conductor*%
%ADD34C,0.800000*%
%TD*%
%TA.AperFunction,Conductor*%
%ADD35C,0.200000*%
%TD*%
%TA.AperFunction,Conductor*%
%ADD36C,1.000000*%
%TD*%
%TA.AperFunction,Conductor*%
%ADD37C,0.400000*%
%TD*%
%TA.AperFunction,Conductor*%
%ADD38C,1.200000*%
%TD*%
%TA.AperFunction,Conductor*%
%ADD39C,2.000000*%
%TD*%
G04 APERTURE END LIST*
D10*
%TO.P,D3,1,K*%
%TO.N,/TPS_Regulators/PH_5*%
X156299975Y-141500000D03*
%TO.P,D3,2,A*%
%TO.N,GND*%
X160700025Y-141500000D03*
%TD*%
%TO.P,D2,1,K*%
%TO.N,/TPS_Regulators/PH_3.3*%
X154299975Y-111000000D03*
%TO.P,D2,2,A*%
%TO.N,GND*%
X158700025Y-111000000D03*
%TD*%
D11*
%TO.P,U8,1,1*%
%TO.N,+5V*%
X170500000Y-118899924D03*
%TO.P,U8,2,2*%
%TO.N,GND*%
X163910211Y-118899924D03*
%TD*%
%TO.P,U7,1,1*%
%TO.N,+3.3V*%
X165794971Y-91999924D03*
%TO.P,U7,2,2*%
%TO.N,GND*%
X159205182Y-91999924D03*
%TD*%
D12*
%TO.P,U6,1,1*%
%TO.N,+5V*%
X174705029Y-130399873D03*
%TO.P,U6,2,2*%
%TO.N,/TPS_Regulators/PH_5*%
X174705029Y-141400127D03*
%TD*%
%TO.P,U5,1,1*%
%TO.N,+3.3V*%
X172000000Y-100500000D03*
%TO.P,U5,2,2*%
%TO.N,/TPS_Regulators/PH_3.3*%
X172000000Y-111500254D03*
%TD*%
D13*
%TO.P,U4,1,BOOT*%
%TO.N,/TPS_Regulators/BOOT_5*%
X165604825Y-135210008D03*
%TO.P,U4,2,NC*%
%TO.N,unconnected-(U4-NC-Pad2)*%
X165604825Y-133940005D03*
%TO.P,U4,3,NC*%
%TO.N,unconnected-(U4-NC-Pad3)*%
X165604825Y-132670003D03*
%TO.P,U4,4,VSENSE*%
%TO.N,/TPS_Regulators/VS_5*%
X165604825Y-131400000D03*
%TO.P,U4,5,ENA*%
%TO.N,unconnected-(U4-ENA-Pad5)*%
X160205029Y-131400000D03*
%TO.P,U4,6,GND*%
%TO.N,GND*%
X160205029Y-132670003D03*
%TO.P,U4,7,VIN*%
%TO.N,/TPS_Regulators/VIN_5*%
X160205029Y-133940005D03*
%TO.P,U4,8,PH*%
%TO.N,/TPS_Regulators/PH_5*%
X160205029Y-135210008D03*
D14*
%TO.P,U4,9,PowerPAD*%
%TO.N,GND*%
X162904800Y-133305004D03*
%TD*%
D13*
%TO.P,U3,1,BOOT*%
%TO.N,/TPS_Regulators/BOOT_3.3*%
X162399796Y-105310008D03*
%TO.P,U3,2,NC*%
%TO.N,unconnected-(U3-NC-Pad2)*%
X162399796Y-104040005D03*
%TO.P,U3,3,NC*%
%TO.N,unconnected-(U3-NC-Pad3)*%
X162399796Y-102770003D03*
%TO.P,U3,4,VSENSE*%
%TO.N,/TPS_Regulators/VS_3.3*%
X162399796Y-101500000D03*
%TO.P,U3,5,ENA*%
%TO.N,unconnected-(U3-ENA-Pad5)*%
X157000000Y-101500000D03*
%TO.P,U3,6,GND*%
%TO.N,GND*%
X157000000Y-102770003D03*
%TO.P,U3,7,VIN*%
%TO.N,/TPS_Regulators/VIN_3.3*%
X157000000Y-104040005D03*
%TO.P,U3,8,PH*%
%TO.N,/TPS_Regulators/PH_3.3*%
X157000000Y-105310008D03*
D14*
%TO.P,U3,9,PowerPAD*%
%TO.N,GND*%
X159699771Y-103405004D03*
%TD*%
D15*
%TO.P,+5V,1,1*%
%TO.N,+5V*%
X181000000Y-118000000D03*
%TD*%
%TO.P,+3.3V,1,1*%
%TO.N,+3.3V*%
X181000000Y-89000000D03*
%TD*%
D16*
%TO.P,R8,1*%
%TO.N,/TPS_Regulators/VS_5*%
X164617529Y-127400000D03*
%TO.P,R8,2*%
%TO.N,GND*%
X162792529Y-127400000D03*
%TD*%
%TO.P,R7,1*%
%TO.N,+5V*%
X169617529Y-127400000D03*
%TO.P,R7,2*%
%TO.N,/TPS_Regulators/VS_5*%
X167792529Y-127400000D03*
%TD*%
%TO.P,R6,1*%
%TO.N,/TPS_Regulators/VS_3.3*%
X160912500Y-98500000D03*
%TO.P,R6,2*%
%TO.N,GND*%
X159087500Y-98500000D03*
%TD*%
%TO.P,R5,1*%
%TO.N,+3.3V*%
X165412500Y-98500000D03*
%TO.P,R5,2*%
%TO.N,/TPS_Regulators/VS_3.3*%
X163587500Y-98500000D03*
%TD*%
D17*
%TO.P,JP3,1,A*%
%TO.N,LOAD*%
X148700000Y-134000000D03*
D18*
%TO.P,JP3,2,B*%
%TO.N,/TPS_Regulators/VIN_5*%
X150000000Y-134000000D03*
%TD*%
D17*
%TO.P,JP2,1,A*%
%TO.N,LOAD*%
X148700000Y-104000000D03*
D18*
%TO.P,JP2,2,B*%
%TO.N,/TPS_Regulators/VIN_3.3*%
X150000000Y-104000000D03*
%TD*%
D19*
%TO.P,+5V,1,Pin_1*%
%TO.N,+5V*%
X182500000Y-123000000D03*
D20*
%TO.P,+5V,2,Pin_2*%
%TO.N,GND*%
X182500000Y-125540000D03*
%TD*%
D19*
%TO.P,+5V,1,Pin_1*%
%TO.N,+5V*%
X178500000Y-123000000D03*
D20*
%TO.P,+5V,2,Pin_2*%
%TO.N,GND*%
X178500000Y-125540000D03*
%TD*%
D19*
%TO.P,+3.3V,1,Pin_1*%
%TO.N,+3.3V*%
X178500000Y-94225000D03*
D20*
%TO.P,+3.3V,2,Pin_2*%
%TO.N,GND*%
X178500000Y-96765000D03*
%TD*%
D19*
%TO.P,+3.3V,1,Pin_1*%
%TO.N,+3.3V*%
X182500000Y-94225000D03*
D20*
%TO.P,+3.3V,2,Pin_2*%
%TO.N,GND*%
X182500000Y-96765000D03*
%TD*%
D21*
%TO.P,C6,1*%
%TO.N,/TPS_Regulators/PH_5*%
X165500000Y-140862500D03*
%TO.P,C6,2*%
%TO.N,/TPS_Regulators/BOOT_5*%
X165500000Y-139137500D03*
%TD*%
%TO.P,C5,1*%
%TO.N,/TPS_Regulators/PH_3.3*%
X164000000Y-108362500D03*
%TO.P,C5,2*%
%TO.N,/TPS_Regulators/BOOT_3.3*%
X164000000Y-106637500D03*
%TD*%
%TO.P,C4,1*%
%TO.N,/TPS_Regulators/VIN_5*%
X158205029Y-133762500D03*
%TO.P,C4,2*%
%TO.N,GND*%
X158205029Y-132037500D03*
%TD*%
%TO.P,C3,1*%
%TO.N,/TPS_Regulators/VIN_3.3*%
X154899796Y-103902505D03*
%TO.P,C3,2*%
%TO.N,GND*%
X154899796Y-102177505D03*
%TD*%
D22*
%TO.P,JP1,1,A*%
%TO.N,+12V*%
X148550000Y-69000000D03*
D23*
%TO.P,JP1,2,B*%
%TO.N,Net-(D1-A)*%
X150000000Y-69000000D03*
%TD*%
D24*
%TO.P,U1,1,1*%
%TO.N,+12V*%
X143725019Y-69363500D03*
D25*
%TO.P,U1,2,2*%
%TO.N,+BATT*%
X139024994Y-69363500D03*
%TO.P,U1,3,3*%
%TO.N,unconnected-(U1-Pad3)*%
X134324969Y-69363500D03*
%TD*%
D26*
%TO.P,GND,1,1*%
%TO.N,GND*%
X131500000Y-111000000D03*
%TD*%
D27*
%TO.P,R4,1*%
%TO.N,+12V*%
X143500000Y-81950000D03*
%TO.P,R4,2*%
%TO.N,LOAD*%
X143500000Y-88050000D03*
%TD*%
D26*
%TO.P,M_LOAD,1,1*%
%TO.N,LOAD*%
X131500000Y-104500000D03*
%TD*%
D28*
%TO.P,U2,1,A1*%
%TO.N,/Monitoring/+3.3_IN*%
X157069977Y-86905004D03*
%TO.P,U2,2,A0*%
%TO.N,GND*%
X157069977Y-85635001D03*
%TO.P,U2,3,SDA*%
%TO.N,SDA*%
X157069977Y-84364999D03*
%TO.P,U2,4,SCL*%
%TO.N,SCL*%
X157069977Y-83094996D03*
%TO.P,U2,5,VS*%
%TO.N,/Monitoring/+3.3_IN*%
X151930023Y-83094996D03*
%TO.P,U2,6,GND*%
%TO.N,GND*%
X151930023Y-84364999D03*
%TO.P,U2,7,VIN-*%
%TO.N,LOAD*%
X151930023Y-85635001D03*
%TO.P,U2,8,VIN+*%
%TO.N,+12V*%
X151930023Y-86905004D03*
%TD*%
D26*
%TO.P,GND,1,1*%
%TO.N,GND*%
X131000000Y-97000000D03*
%TD*%
D29*
%TO.P,C2,1*%
%TO.N,/Monitoring/+3.3_IN*%
X152637500Y-78500000D03*
%TO.P,C2,2*%
%TO.N,GND*%
X154362500Y-78500000D03*
%TD*%
D30*
%TO.P,R1,1*%
%TO.N,Net-(D1-K)*%
X148087500Y-75500000D03*
%TO.P,R1,2*%
%TO.N,GND*%
X149912500Y-75500000D03*
%TD*%
D16*
%TO.P,R3,1*%
%TO.N,/Monitoring/+3.3_IN*%
X162912500Y-83000000D03*
%TO.P,R3,2*%
%TO.N,SCL*%
X161087500Y-83000000D03*
%TD*%
D26*
%TO.P,TP10,1,1*%
%TO.N,+12V*%
X143500000Y-75500000D03*
%TD*%
%TO.P,+BATT,1,1*%
%TO.N,+BATT*%
X131000000Y-75500000D03*
%TD*%
D31*
%TO.P,D1,1,K*%
%TO.N,Net-(D1-K)*%
X148125000Y-73000000D03*
%TO.P,D1,2,A*%
%TO.N,Net-(D1-A)*%
X149875000Y-73000000D03*
%TD*%
D26*
%TO.P,M_LOAD,1,1*%
%TO.N,LOAD*%
X131500000Y-117500000D03*
%TD*%
D16*
%TO.P,R2,1*%
%TO.N,/Monitoring/+3.3_IN*%
X162912500Y-85000000D03*
%TO.P,R2,2*%
%TO.N,SDA*%
X161087500Y-85000000D03*
%TD*%
D26*
%TO.P,GND,1,1*%
%TO.N,GND*%
X131000000Y-82000000D03*
%TD*%
%TO.P,M_LOAD,1,1*%
%TO.N,LOAD*%
X131000000Y-91000000D03*
%TD*%
D29*
%TO.P,C1,1*%
%TO.N,/Monitoring/+3.3_IN*%
X152637500Y-80500000D03*
%TO.P,C1,2*%
%TO.N,GND*%
X154362500Y-80500000D03*
%TD*%
D19*
%TO.P,J6,1,Pin_1*%
%TO.N,/Monitoring/+3.3_IN*%
X159500000Y-64500000D03*
D20*
%TO.P,J6,2,Pin_2*%
%TO.N,GND*%
X156960000Y-64500000D03*
%TD*%
D19*
%TO.P,J5,1,Pin_1*%
%TO.N,SDA*%
X166000000Y-67000000D03*
D20*
%TO.P,J5,2,Pin_2*%
%TO.N,SCL*%
X166000000Y-64460000D03*
%TD*%
D26*
%TO.P,GND,1,1*%
%TO.N,GND*%
X131500000Y-124500000D03*
%TD*%
D32*
%TO.N,/Monitoring/+3.3_IN*%
X163000000Y-81000000D03*
%TD*%
D33*
%TO.N,/TPS_Regulators/PH_5*%
X156299975Y-139405054D02*
X156299975Y-141500000D01*
X160205029Y-135210008D02*
X160205029Y-135500000D01*
X160205029Y-135500000D02*
X156299975Y-139405054D01*
%TO.N,/TPS_Regulators/PH_3.3*%
X157000000Y-108299975D02*
X154299975Y-111000000D01*
X157000000Y-105310008D02*
X157000000Y-108299975D01*
D34*
%TO.N,GND*%
X155492294Y-102770003D02*
X154899796Y-102177505D01*
X157000000Y-102770003D02*
X155492294Y-102770003D01*
X158837532Y-132670003D02*
X158205029Y-132037500D01*
X160205029Y-132670003D02*
X158837532Y-132670003D01*
D35*
%TO.N,/TPS_Regulators/PH_5*%
X174705029Y-142294971D02*
X174705029Y-141400127D01*
D36*
X173500000Y-143500000D02*
X174705029Y-142294971D01*
X164500000Y-143500000D02*
X173500000Y-143500000D01*
X163500000Y-140000000D02*
X163500000Y-142500000D01*
X163500000Y-142500000D02*
X164500000Y-143500000D01*
D34*
X160205029Y-135210008D02*
X160205029Y-136705029D01*
X160205029Y-136705029D02*
X163500000Y-140000000D01*
D36*
%TO.N,/TPS_Regulators/PH_3.3*%
X163190246Y-111500254D02*
X172000000Y-111500254D01*
D34*
X157000000Y-105310008D02*
X163190246Y-111500254D01*
D36*
%TO.N,/TPS_Regulators/VIN_5*%
X158205029Y-133762500D02*
X160027524Y-133762500D01*
X160027524Y-133762500D02*
X160205029Y-133940005D01*
D37*
%TO.N,/TPS_Regulators/VS_5*%
X167792529Y-127400000D02*
X164617529Y-127400000D01*
X165604825Y-131400000D02*
X165604825Y-129587704D01*
X165604825Y-129587704D02*
X167792529Y-127400000D01*
D38*
%TO.N,+5V*%
X169617529Y-119782395D02*
X170500000Y-118899924D01*
X169617529Y-127400000D02*
X169617529Y-119782395D01*
D36*
%TO.N,/TPS_Regulators/VIN_5*%
X150500000Y-134000000D02*
X150737500Y-133762500D01*
X150737500Y-133762500D02*
X158205029Y-133762500D01*
X150000000Y-134000000D02*
X150500000Y-134000000D01*
D35*
%TO.N,/TPS_Regulators/BOOT_5*%
X165500000Y-135314833D02*
X165604825Y-135210008D01*
D37*
X165500000Y-139137500D02*
X165500000Y-135314833D01*
D35*
%TO.N,/TPS_Regulators/PH_5*%
X174167402Y-140862500D02*
X174705029Y-141400127D01*
D37*
X165500000Y-140862500D02*
X174167402Y-140862500D01*
D38*
%TO.N,+5V*%
X182500000Y-123000000D02*
X182500000Y-119500000D01*
X182500000Y-119500000D02*
X181000000Y-118000000D01*
X178500000Y-123000000D02*
X182500000Y-123000000D01*
X174705029Y-126794971D02*
X178500000Y-123000000D01*
X174705029Y-130399873D02*
X174705029Y-126794971D01*
X171705156Y-127400000D02*
X174705029Y-130399873D01*
X169617529Y-127400000D02*
X171705156Y-127400000D01*
%TO.N,+3.3V*%
X165794971Y-98117529D02*
X165412500Y-98500000D01*
X165794971Y-91999924D02*
X165794971Y-98117529D01*
X170000000Y-98500000D02*
X172000000Y-100500000D01*
X165412500Y-98500000D02*
X170000000Y-98500000D01*
X182500000Y-90500000D02*
X181000000Y-89000000D01*
X182500000Y-94225000D02*
X182500000Y-90500000D01*
X178500000Y-94225000D02*
X182500000Y-94225000D01*
X172225000Y-100500000D02*
X178500000Y-94225000D01*
X172000000Y-100500000D02*
X172225000Y-100500000D01*
D37*
%TO.N,/TPS_Regulators/PH_3.3*%
X168862246Y-108362500D02*
X172000000Y-111500254D01*
X164000000Y-108362500D02*
X168862246Y-108362500D01*
%TO.N,/TPS_Regulators/BOOT_3.3*%
X162672508Y-105310008D02*
X164000000Y-106637500D01*
D35*
X162399796Y-105310008D02*
X162672508Y-105310008D01*
D37*
%TO.N,/TPS_Regulators/VS_3.3*%
X160912500Y-98500000D02*
X163587500Y-98500000D01*
X162399796Y-99687704D02*
X163587500Y-98500000D01*
X162399796Y-101500000D02*
X162399796Y-99687704D01*
D35*
%TO.N,/TPS_Regulators/VIN_3.3*%
X156959995Y-104000000D02*
X157000000Y-104040005D01*
D36*
X150000000Y-104000000D02*
X156959995Y-104000000D01*
D39*
%TO.N,LOAD*%
X148000000Y-134000000D02*
X148194000Y-134000000D01*
X131500000Y-117500000D02*
X148000000Y-134000000D01*
X143500000Y-101500000D02*
X146000000Y-104000000D01*
X143500000Y-88050000D02*
X143500000Y-101500000D01*
X146000000Y-104000000D02*
X148194000Y-104000000D01*
D37*
%TO.N,/Monitoring/+3.3_IN*%
X152637500Y-78500000D02*
X152637500Y-80500000D01*
D35*
X162912500Y-83000000D02*
X162912500Y-81087500D01*
D37*
X159500000Y-64500000D02*
X159500000Y-67500000D01*
D35*
X162912500Y-81087500D02*
X163000000Y-81000000D01*
D37*
X152637500Y-74362500D02*
X152637500Y-78500000D01*
X152658522Y-83094996D02*
X156468530Y-86905004D01*
D35*
X156468530Y-86905004D02*
X157069977Y-86905004D01*
D37*
X159500000Y-67500000D02*
X152637500Y-74362500D01*
X151930023Y-83094996D02*
X152637500Y-82387519D01*
X162912500Y-85000000D02*
X162912500Y-83000000D01*
X152637500Y-80500000D02*
X152637500Y-82387519D01*
D35*
%TO.N,Net-(D1-K)*%
X148125000Y-75462500D02*
X148087500Y-75500000D01*
D37*
X148125000Y-73000000D02*
X148125000Y-75462500D01*
%TO.N,Net-(D1-A)*%
X150000000Y-69000000D02*
X150000000Y-72875000D01*
D35*
X150000000Y-72875000D02*
X149875000Y-73000000D01*
D39*
%TO.N,+BATT*%
X139024994Y-69363500D02*
X132888494Y-75500000D01*
X132888494Y-75500000D02*
X131000000Y-75500000D01*
%TO.N,+12V*%
X144088519Y-69000000D02*
X148044000Y-69000000D01*
D34*
X148455004Y-86905004D02*
X151930023Y-86905004D01*
D39*
X143500000Y-75500000D02*
X143500000Y-69588519D01*
X144088519Y-69000000D02*
X143725019Y-69363500D01*
X143500000Y-69588519D02*
X143725019Y-69363500D01*
X143500000Y-75500000D02*
X143500000Y-81950000D01*
D34*
X143500000Y-81950000D02*
X148455004Y-86905004D01*
D33*
%TO.N,LOAD*%
X153135001Y-85635001D02*
X151930023Y-85635001D01*
D39*
X135500000Y-108500000D02*
X135500000Y-113500000D01*
D33*
X144450000Y-89000000D02*
X153000000Y-89000000D01*
D39*
X131500000Y-104500000D02*
X135500000Y-108500000D01*
X135000000Y-95000000D02*
X131000000Y-91000000D01*
X135000000Y-101000000D02*
X135000000Y-95000000D01*
X135500000Y-113500000D02*
X131500000Y-117500000D01*
X143500000Y-88050000D02*
X142769000Y-88781000D01*
D33*
X154000000Y-86500000D02*
X153135001Y-85635001D01*
X153000000Y-89000000D02*
X154000000Y-88000000D01*
D39*
X131000000Y-91000000D02*
X133219000Y-88781000D01*
D33*
X154000000Y-88000000D02*
X154000000Y-86500000D01*
D39*
X133219000Y-88781000D02*
X142769000Y-88781000D01*
X131500000Y-104500000D02*
X135000000Y-101000000D01*
D34*
X143500000Y-88050000D02*
X144450000Y-89000000D01*
D37*
%TO.N,SDA*%
X165000000Y-86000000D02*
X166000000Y-85000000D01*
X161500000Y-86000000D02*
X165000000Y-86000000D01*
X160452499Y-84364999D02*
X161087500Y-85000000D01*
X157069977Y-84364999D02*
X160452499Y-84364999D01*
X161087500Y-85000000D02*
X161087500Y-85587500D01*
X161087500Y-85587500D02*
X161500000Y-86000000D01*
X166000000Y-85000000D02*
X166000000Y-67000000D01*
D35*
%TO.N,SCL*%
X160992504Y-83094996D02*
X161087500Y-83000000D01*
D37*
X166000000Y-64460000D02*
X161087500Y-69372500D01*
X161087500Y-69372500D02*
X161087500Y-83000000D01*
X157069977Y-83094996D02*
X160992504Y-83094996D01*
%TD*%
%TA.AperFunction,Conductor*%
%TO.N,GND*%
G36*
X183003736Y-59500726D02*
G01*
X183293796Y-59518271D01*
X183308659Y-59520076D01*
X183590798Y-59571780D01*
X183605335Y-59575363D01*
X183879172Y-59660695D01*
X183893163Y-59666000D01*
X184154743Y-59783727D01*
X184167989Y-59790680D01*
X184413465Y-59939075D01*
X184425776Y-59947573D01*
X184651573Y-60124473D01*
X184662781Y-60134403D01*
X184865596Y-60337218D01*
X184875526Y-60348426D01*
X184995481Y-60501538D01*
X185052422Y-60574217D01*
X185060928Y-60586540D01*
X185209316Y-60832004D01*
X185216275Y-60845263D01*
X185333997Y-61106831D01*
X185339306Y-61120832D01*
X185424635Y-61394663D01*
X185428219Y-61409201D01*
X185479923Y-61691340D01*
X185481728Y-61706205D01*
X185499274Y-61996263D01*
X185499500Y-62003750D01*
X185499500Y-144496249D01*
X185499274Y-144503736D01*
X185481728Y-144793794D01*
X185479923Y-144808659D01*
X185428219Y-145090798D01*
X185424635Y-145105336D01*
X185339306Y-145379167D01*
X185333997Y-145393168D01*
X185216275Y-145654736D01*
X185209316Y-145667995D01*
X185060928Y-145913459D01*
X185052422Y-145925782D01*
X184875526Y-146151573D01*
X184865596Y-146162781D01*
X184662781Y-146365596D01*
X184651573Y-146375526D01*
X184425782Y-146552422D01*
X184413459Y-146560928D01*
X184167995Y-146709316D01*
X184154736Y-146716275D01*
X183893168Y-146833997D01*
X183879167Y-146839306D01*
X183605336Y-146924635D01*
X183590798Y-146928219D01*
X183308659Y-146979923D01*
X183293794Y-146981728D01*
X183003736Y-146999274D01*
X182996249Y-146999500D01*
X130003751Y-146999500D01*
X129996264Y-146999274D01*
X129706205Y-146981728D01*
X129691340Y-146979923D01*
X129409201Y-146928219D01*
X129394663Y-146924635D01*
X129120832Y-146839306D01*
X129106831Y-146833997D01*
X128845263Y-146716275D01*
X128832004Y-146709316D01*
X128586540Y-146560928D01*
X128574217Y-146552422D01*
X128348426Y-146375526D01*
X128337218Y-146365596D01*
X128134403Y-146162781D01*
X128124473Y-146151573D01*
X127947573Y-145925776D01*
X127939075Y-145913465D01*
X127790680Y-145667989D01*
X127783727Y-145654743D01*
X127666000Y-145393163D01*
X127660693Y-145379167D01*
X127575364Y-145105336D01*
X127571780Y-145090798D01*
X127520076Y-144808659D01*
X127518271Y-144793794D01*
X127500726Y-144503736D01*
X127500500Y-144496249D01*
X127500500Y-126079917D01*
X130273633Y-126079917D01*
X130273633Y-126079918D01*
X130386475Y-126166505D01*
X130386483Y-126166511D01*
X130613517Y-126297590D01*
X130613528Y-126297595D01*
X130855744Y-126397924D01*
X131108979Y-126465777D01*
X131108990Y-126465779D01*
X131368905Y-126499999D01*
X131368920Y-126500000D01*
X131631080Y-126500000D01*
X131631094Y-126499999D01*
X131891009Y-126465779D01*
X131891020Y-126465777D01*
X132144255Y-126397924D01*
X132386471Y-126297595D01*
X132386482Y-126297590D01*
X132613516Y-126166511D01*
X132613534Y-126166499D01*
X132726365Y-126079919D01*
X132726365Y-126079917D01*
X131500000Y-124853553D01*
X130273633Y-126079917D01*
X127500500Y-126079917D01*
X127500500Y-124368905D01*
X129500000Y-124368905D01*
X129500000Y-124631094D01*
X129534220Y-124891009D01*
X129534222Y-124891020D01*
X129602075Y-125144255D01*
X129702404Y-125386471D01*
X129702409Y-125386482D01*
X129833488Y-125613516D01*
X129833494Y-125613524D01*
X129920080Y-125726365D01*
X131146446Y-124500000D01*
X131146446Y-124499999D01*
X131853553Y-124499999D01*
X131853553Y-124500001D01*
X133079917Y-125726365D01*
X133079919Y-125726365D01*
X133166499Y-125613534D01*
X133166511Y-125613516D01*
X133297590Y-125386482D01*
X133297595Y-125386471D01*
X133397924Y-125144255D01*
X133465777Y-124891020D01*
X133465779Y-124891009D01*
X133499999Y-124631094D01*
X133500000Y-124631080D01*
X133500000Y-124368919D01*
X133499999Y-124368905D01*
X133465779Y-124108990D01*
X133465777Y-124108979D01*
X133397924Y-123855744D01*
X133297595Y-123613528D01*
X133297590Y-123613517D01*
X133166511Y-123386483D01*
X133166505Y-123386475D01*
X133079918Y-123273633D01*
X133079917Y-123273633D01*
X131853553Y-124499999D01*
X131146446Y-124499999D01*
X129920080Y-123273633D01*
X129920079Y-123273633D01*
X129833496Y-123386471D01*
X129702409Y-123613517D01*
X129702404Y-123613528D01*
X129602075Y-123855744D01*
X129534222Y-124108979D01*
X129534220Y-124108990D01*
X129500000Y-124368905D01*
X127500500Y-124368905D01*
X127500500Y-122920079D01*
X130273633Y-122920079D01*
X130273633Y-122920080D01*
X131499999Y-124146446D01*
X132726365Y-122920080D01*
X132613524Y-122833494D01*
X132613516Y-122833488D01*
X132386482Y-122702409D01*
X132386471Y-122702404D01*
X132144255Y-122602075D01*
X131891020Y-122534222D01*
X131891009Y-122534220D01*
X131631094Y-122500000D01*
X131368905Y-122500000D01*
X131108990Y-122534220D01*
X131108979Y-122534222D01*
X130855744Y-122602075D01*
X130613528Y-122702404D01*
X130613517Y-122702409D01*
X130386471Y-122833496D01*
X130273633Y-122920079D01*
X127500500Y-122920079D01*
X127500500Y-112579917D01*
X130273633Y-112579917D01*
X130273633Y-112579918D01*
X130386475Y-112666505D01*
X130386483Y-112666511D01*
X130613517Y-112797590D01*
X130613528Y-112797595D01*
X130855744Y-112897924D01*
X131108979Y-112965777D01*
X131108990Y-112965779D01*
X131368905Y-112999999D01*
X131368920Y-113000000D01*
X131631080Y-113000000D01*
X131631094Y-112999999D01*
X131891009Y-112965779D01*
X131891020Y-112965777D01*
X132144255Y-112897924D01*
X132386471Y-112797595D01*
X132386482Y-112797590D01*
X132613516Y-112666511D01*
X132613534Y-112666499D01*
X132726365Y-112579919D01*
X132726365Y-112579917D01*
X131500000Y-111353553D01*
X130273633Y-112579917D01*
X127500500Y-112579917D01*
X127500500Y-110868905D01*
X129500000Y-110868905D01*
X129500000Y-111131094D01*
X129534220Y-111391009D01*
X129534222Y-111391020D01*
X129602075Y-111644255D01*
X129702404Y-111886471D01*
X129702409Y-111886482D01*
X129833488Y-112113516D01*
X129833494Y-112113524D01*
X129920080Y-112226365D01*
X131146446Y-111000000D01*
X131146446Y-110999999D01*
X131853553Y-110999999D01*
X131853553Y-111000001D01*
X133079917Y-112226365D01*
X133079919Y-112226365D01*
X133166499Y-112113534D01*
X133166511Y-112113516D01*
X133297590Y-111886482D01*
X133297595Y-111886471D01*
X133397924Y-111644255D01*
X133465777Y-111391020D01*
X133465779Y-111391009D01*
X133499999Y-111131094D01*
X133500000Y-111131080D01*
X133500000Y-110868919D01*
X133499999Y-110868905D01*
X133465779Y-110608990D01*
X133465777Y-110608979D01*
X133397924Y-110355744D01*
X133297595Y-110113528D01*
X133297590Y-110113517D01*
X133166511Y-109886483D01*
X133166505Y-109886475D01*
X133079918Y-109773633D01*
X133079917Y-109773633D01*
X131853553Y-110999999D01*
X131146446Y-110999999D01*
X129920080Y-109773633D01*
X129920079Y-109773633D01*
X129833496Y-109886471D01*
X129702409Y-110113517D01*
X129702404Y-110113528D01*
X129602075Y-110355744D01*
X129534222Y-110608979D01*
X129534220Y-110608990D01*
X129500000Y-110868905D01*
X127500500Y-110868905D01*
X127500500Y-109420079D01*
X130273633Y-109420079D01*
X130273633Y-109420080D01*
X131499999Y-110646446D01*
X132726365Y-109420080D01*
X132613524Y-109333494D01*
X132613516Y-109333488D01*
X132386482Y-109202409D01*
X132386471Y-109202404D01*
X132144255Y-109102075D01*
X131891020Y-109034222D01*
X131891009Y-109034220D01*
X131631094Y-109000000D01*
X131368905Y-109000000D01*
X131108990Y-109034220D01*
X131108979Y-109034222D01*
X130855744Y-109102075D01*
X130613528Y-109202404D01*
X130613517Y-109202409D01*
X130386471Y-109333496D01*
X130273633Y-109420079D01*
X127500500Y-109420079D01*
X127500500Y-98579917D01*
X129773633Y-98579917D01*
X129773633Y-98579918D01*
X129886475Y-98666505D01*
X129886483Y-98666511D01*
X130113517Y-98797590D01*
X130113528Y-98797595D01*
X130355744Y-98897924D01*
X130608979Y-98965777D01*
X130608990Y-98965779D01*
X130868905Y-98999999D01*
X130868920Y-99000000D01*
X131131080Y-99000000D01*
X131131094Y-98999999D01*
X131391009Y-98965779D01*
X131391020Y-98965777D01*
X131644255Y-98897924D01*
X131886471Y-98797595D01*
X131886482Y-98797590D01*
X132113516Y-98666511D01*
X132113534Y-98666499D01*
X132226365Y-98579919D01*
X132226365Y-98579917D01*
X131000000Y-97353553D01*
X129773633Y-98579917D01*
X127500500Y-98579917D01*
X127500500Y-96868905D01*
X129000000Y-96868905D01*
X129000000Y-97131094D01*
X129034220Y-97391009D01*
X129034222Y-97391020D01*
X129102075Y-97644255D01*
X129202404Y-97886471D01*
X129202409Y-97886482D01*
X129333488Y-98113516D01*
X129333494Y-98113524D01*
X129420080Y-98226365D01*
X130646446Y-97000000D01*
X130646446Y-96999999D01*
X130646445Y-96999998D01*
X131353553Y-96999998D01*
X131353553Y-97000001D01*
X132579917Y-98226365D01*
X132579919Y-98226365D01*
X132666499Y-98113534D01*
X132666511Y-98113516D01*
X132797590Y-97886482D01*
X132797595Y-97886471D01*
X132897924Y-97644255D01*
X132965777Y-97391020D01*
X132965779Y-97391009D01*
X132999999Y-97131094D01*
X133000000Y-97131080D01*
X133000000Y-96868919D01*
X132999999Y-96868905D01*
X132965779Y-96608990D01*
X132965777Y-96608979D01*
X132897924Y-96355744D01*
X132797595Y-96113528D01*
X132797590Y-96113517D01*
X132666511Y-95886483D01*
X132666505Y-95886475D01*
X132579918Y-95773633D01*
X132579917Y-95773633D01*
X131353553Y-96999998D01*
X130646445Y-96999998D01*
X129420080Y-95773633D01*
X129420079Y-95773633D01*
X129333496Y-95886471D01*
X129202409Y-96113517D01*
X129202404Y-96113528D01*
X129102075Y-96355744D01*
X129034222Y-96608979D01*
X129034220Y-96608990D01*
X129000000Y-96868905D01*
X127500500Y-96868905D01*
X127500500Y-95420079D01*
X129773633Y-95420079D01*
X129773633Y-95420080D01*
X130999999Y-96646446D01*
X132226365Y-95420080D01*
X132113524Y-95333494D01*
X132113516Y-95333488D01*
X131886482Y-95202409D01*
X131886471Y-95202404D01*
X131644255Y-95102075D01*
X131391020Y-95034222D01*
X131391009Y-95034220D01*
X131131094Y-95000000D01*
X130868905Y-95000000D01*
X130608990Y-95034220D01*
X130608979Y-95034222D01*
X130355744Y-95102075D01*
X130113528Y-95202404D01*
X130113517Y-95202409D01*
X129886471Y-95333496D01*
X129773633Y-95420079D01*
X127500500Y-95420079D01*
X127500500Y-90868872D01*
X128999500Y-90868872D01*
X128999500Y-91131127D01*
X129024641Y-91322081D01*
X129033730Y-91391116D01*
X129101602Y-91644418D01*
X129101605Y-91644428D01*
X129201953Y-91886690D01*
X129201958Y-91886700D01*
X129333075Y-92113803D01*
X129492718Y-92321851D01*
X129492726Y-92321860D01*
X129678140Y-92507274D01*
X129678148Y-92507281D01*
X129886196Y-92666924D01*
X130113299Y-92798041D01*
X130113309Y-92798046D01*
X130355571Y-92898394D01*
X130355581Y-92898398D01*
X130608884Y-92966270D01*
X130838196Y-92996460D01*
X130902092Y-93024727D01*
X130909691Y-93031718D01*
X133463181Y-95585208D01*
X133496666Y-95646531D01*
X133499500Y-95672889D01*
X133499500Y-100327111D01*
X133479815Y-100394150D01*
X133463181Y-100414792D01*
X131409691Y-102468281D01*
X131348368Y-102501766D01*
X131338196Y-102503539D01*
X131162592Y-102526659D01*
X131108884Y-102533730D01*
X130855581Y-102601602D01*
X130855571Y-102601605D01*
X130613309Y-102701953D01*
X130613299Y-102701958D01*
X130386196Y-102833075D01*
X130178148Y-102992718D01*
X129992718Y-103178148D01*
X129833075Y-103386196D01*
X129701958Y-103613299D01*
X129701953Y-103613309D01*
X129601605Y-103855571D01*
X129601602Y-103855581D01*
X129533730Y-104108885D01*
X129499500Y-104368872D01*
X129499500Y-104631127D01*
X129526123Y-104833339D01*
X129533730Y-104891116D01*
X129596265Y-105124500D01*
X129601602Y-105144418D01*
X129601605Y-105144428D01*
X129701953Y-105386690D01*
X129701958Y-105386700D01*
X129833075Y-105613803D01*
X129992718Y-105821851D01*
X129992726Y-105821860D01*
X130178140Y-106007274D01*
X130178148Y-106007281D01*
X130386196Y-106166924D01*
X130613299Y-106298041D01*
X130613309Y-106298046D01*
X130855571Y-106398394D01*
X130855581Y-106398398D01*
X131108884Y-106466270D01*
X131338196Y-106496460D01*
X131402092Y-106524727D01*
X131409691Y-106531718D01*
X133963181Y-109085208D01*
X133996666Y-109146531D01*
X133999500Y-109172889D01*
X133999500Y-112827111D01*
X133979815Y-112894150D01*
X133963181Y-112914792D01*
X131409691Y-115468281D01*
X131348368Y-115501766D01*
X131338196Y-115503539D01*
X131143972Y-115529110D01*
X131108884Y-115533730D01*
X130855581Y-115601602D01*
X130855571Y-115601605D01*
X130613309Y-115701953D01*
X130613299Y-115701958D01*
X130386196Y-115833075D01*
X130178148Y-115992718D01*
X129992718Y-116178148D01*
X129833075Y-116386196D01*
X129701958Y-116613299D01*
X129701953Y-116613309D01*
X129601605Y-116855571D01*
X129601602Y-116855581D01*
X129533730Y-117108885D01*
X129499500Y-117368872D01*
X129499500Y-117631127D01*
X129525174Y-117826128D01*
X129533730Y-117891116D01*
X129570300Y-118027597D01*
X129601602Y-118144418D01*
X129601605Y-118144428D01*
X129701953Y-118386690D01*
X129701958Y-118386700D01*
X129833075Y-118613803D01*
X129992718Y-118821851D01*
X129992726Y-118821860D01*
X130178140Y-119007274D01*
X130178148Y-119007281D01*
X130386196Y-119166924D01*
X130613299Y-119298041D01*
X130613309Y-119298046D01*
X130855571Y-119398394D01*
X130855581Y-119398398D01*
X131108884Y-119466270D01*
X131338196Y-119496460D01*
X131402092Y-119524727D01*
X131409691Y-119531718D01*
X147022491Y-135144519D01*
X147022496Y-135144523D01*
X147151536Y-135238275D01*
X147213567Y-135283343D01*
X147347659Y-135351666D01*
X147424003Y-135390566D01*
X147424005Y-135390566D01*
X147424008Y-135390568D01*
X147544412Y-135429689D01*
X147648631Y-135463553D01*
X147881903Y-135500500D01*
X147881908Y-135500500D01*
X148312097Y-135500500D01*
X148545368Y-135463553D01*
X148769992Y-135390568D01*
X148980433Y-135283343D01*
X148986161Y-135279180D01*
X149051968Y-135255702D01*
X149059045Y-135255500D01*
X149200000Y-135255500D01*
X149271940Y-135250355D01*
X149309259Y-135239396D01*
X149361841Y-135235636D01*
X149500000Y-135255500D01*
X149500003Y-135255500D01*
X150065819Y-135255500D01*
X150065826Y-135255500D01*
X150196662Y-135238275D01*
X150323829Y-135204200D01*
X150445743Y-135153701D01*
X150559757Y-135087875D01*
X150664449Y-135007541D01*
X150664458Y-135007531D01*
X150667494Y-135004870D01*
X150667669Y-135005070D01*
X150667670Y-135005070D01*
X150667674Y-135005075D01*
X150668330Y-135005824D01*
X150675662Y-135001457D01*
X150683330Y-134992554D01*
X150706145Y-134983300D01*
X150715389Y-134977795D01*
X150720875Y-134976165D01*
X150791836Y-134962051D01*
X150845165Y-134939961D01*
X150973914Y-134886632D01*
X151102820Y-134800500D01*
X151127667Y-134783898D01*
X151194345Y-134763020D01*
X151196558Y-134763000D01*
X157715261Y-134763000D01*
X157754264Y-134769293D01*
X157817276Y-134790174D01*
X157918352Y-134800500D01*
X158491705Y-134800499D01*
X158491713Y-134800498D01*
X158491716Y-134800498D01*
X158547059Y-134794844D01*
X158592782Y-134790174D01*
X158655794Y-134769293D01*
X158658585Y-134768843D01*
X158659862Y-134768023D01*
X158694797Y-134763000D01*
X158930529Y-134763000D01*
X158997568Y-134782685D01*
X159043323Y-134835489D01*
X159054529Y-134887000D01*
X159054529Y-135467059D01*
X159034844Y-135534098D01*
X159018210Y-135554740D01*
X155678188Y-138894761D01*
X155678185Y-138894765D01*
X155590584Y-139025868D01*
X155590577Y-139025881D01*
X155530239Y-139171552D01*
X155530236Y-139171564D01*
X155499475Y-139326207D01*
X155499475Y-139875500D01*
X155479790Y-139942539D01*
X155426986Y-139988294D01*
X155375476Y-139999500D01*
X155252105Y-139999500D01*
X155252098Y-139999501D01*
X155192491Y-140005908D01*
X155057646Y-140056202D01*
X155057639Y-140056206D01*
X154942430Y-140142452D01*
X154942427Y-140142455D01*
X154856181Y-140257664D01*
X154856177Y-140257671D01*
X154805883Y-140392517D01*
X154799476Y-140452116D01*
X154799476Y-140452123D01*
X154799475Y-140452135D01*
X154799475Y-142547870D01*
X154799476Y-142547876D01*
X154805883Y-142607483D01*
X154856177Y-142742328D01*
X154856181Y-142742335D01*
X154942427Y-142857544D01*
X154942430Y-142857547D01*
X155057639Y-142943793D01*
X155057646Y-142943797D01*
X155192492Y-142994091D01*
X155192491Y-142994091D01*
X155199419Y-142994835D01*
X155252102Y-143000500D01*
X157347847Y-143000499D01*
X157407458Y-142994091D01*
X157542306Y-142943796D01*
X157657521Y-142857546D01*
X157743771Y-142742331D01*
X157794066Y-142607483D01*
X157800475Y-142547873D01*
X157800475Y-142547844D01*
X159200025Y-142547844D01*
X159206426Y-142607372D01*
X159206428Y-142607379D01*
X159256670Y-142742086D01*
X159256674Y-142742093D01*
X159342834Y-142857187D01*
X159342837Y-142857190D01*
X159457931Y-142943350D01*
X159457938Y-142943354D01*
X159592645Y-142993596D01*
X159592652Y-142993598D01*
X159652180Y-142999999D01*
X159652197Y-143000000D01*
X160450025Y-143000000D01*
X160950025Y-143000000D01*
X161747853Y-143000000D01*
X161747869Y-142999999D01*
X161807397Y-142993598D01*
X161807404Y-142993596D01*
X161942111Y-142943354D01*
X161942118Y-142943350D01*
X162057212Y-142857190D01*
X162057215Y-142857187D01*
X162143375Y-142742093D01*
X162143379Y-142742086D01*
X162193621Y-142607379D01*
X162193623Y-142607372D01*
X162200024Y-142547844D01*
X162200025Y-142547827D01*
X162200025Y-141750000D01*
X160950025Y-141750000D01*
X160950025Y-143000000D01*
X160450025Y-143000000D01*
X160450025Y-141750000D01*
X159200025Y-141750000D01*
X159200025Y-142547844D01*
X157800475Y-142547844D01*
X157800474Y-141476516D01*
X157800474Y-140452155D01*
X159200025Y-140452155D01*
X159200025Y-141250000D01*
X160450025Y-141250000D01*
X160450025Y-140000000D01*
X159652180Y-140000000D01*
X159592652Y-140006401D01*
X159592645Y-140006403D01*
X159457938Y-140056645D01*
X159457931Y-140056649D01*
X159342837Y-140142809D01*
X159342834Y-140142812D01*
X159256674Y-140257906D01*
X159256670Y-140257913D01*
X159206428Y-140392620D01*
X159206426Y-140392627D01*
X159200025Y-140452155D01*
X157800474Y-140452155D01*
X157800474Y-140452129D01*
X157800473Y-140452123D01*
X157800472Y-140452116D01*
X157794066Y-140392517D01*
X157768645Y-140324361D01*
X157743772Y-140257671D01*
X157743768Y-140257664D01*
X157657522Y-140142455D01*
X157657519Y-140142452D01*
X157542310Y-140056206D01*
X157542303Y-140056202D01*
X157407457Y-140005908D01*
X157407458Y-140005908D01*
X157347858Y-139999501D01*
X157347856Y-139999500D01*
X157347848Y-139999500D01*
X157347840Y-139999500D01*
X157224475Y-139999500D01*
X157215789Y-139996949D01*
X157206828Y-139998238D01*
X157182787Y-139987259D01*
X157157436Y-139979815D01*
X157151508Y-139972974D01*
X157143272Y-139969213D01*
X157128982Y-139946978D01*
X157111681Y-139927011D01*
X157109393Y-139916496D01*
X157105498Y-139910435D01*
X157100475Y-139875500D01*
X157100475Y-139787993D01*
X157120160Y-139720954D01*
X157136794Y-139700312D01*
X158149859Y-138687247D01*
X159444124Y-137392981D01*
X159505445Y-137359498D01*
X159575137Y-137364482D01*
X159619481Y-137392981D01*
X161121262Y-138894761D01*
X162083521Y-139857020D01*
X162117006Y-139918343D01*
X162112022Y-139988035D01*
X162070150Y-140043968D01*
X162004686Y-140068385D01*
X161951514Y-140056822D01*
X161950424Y-140059746D01*
X161807404Y-140006403D01*
X161807397Y-140006401D01*
X161747869Y-140000000D01*
X160950025Y-140000000D01*
X160950025Y-141250000D01*
X162200025Y-141250000D01*
X162200025Y-140452172D01*
X162200024Y-140452155D01*
X162193623Y-140392627D01*
X162193621Y-140392620D01*
X162140279Y-140249601D01*
X162143206Y-140248509D01*
X162131639Y-140195340D01*
X162156055Y-140129875D01*
X162211987Y-140088003D01*
X162281679Y-140083017D01*
X162343000Y-140116499D01*
X162343004Y-140116503D01*
X162463181Y-140236680D01*
X162496666Y-140298003D01*
X162499500Y-140324361D01*
X162499500Y-142598541D01*
X162499500Y-142598543D01*
X162499499Y-142598543D01*
X162537947Y-142791829D01*
X162537950Y-142791839D01*
X162613364Y-142973907D01*
X162613371Y-142973920D01*
X162722859Y-143137780D01*
X162722860Y-143137781D01*
X162722861Y-143137782D01*
X162862218Y-143277139D01*
X162862219Y-143277139D01*
X162869286Y-143284206D01*
X162869285Y-143284206D01*
X162869289Y-143284209D01*
X163862215Y-144277137D01*
X163862219Y-144277140D01*
X164026079Y-144386628D01*
X164026085Y-144386631D01*
X164026086Y-144386632D01*
X164208165Y-144462052D01*
X164380084Y-144496249D01*
X164401455Y-144500500D01*
X164401458Y-144500501D01*
X164401460Y-144500501D01*
X164604655Y-144500501D01*
X164604675Y-144500500D01*
X173598542Y-144500500D01*
X173619911Y-144496249D01*
X173695188Y-144481275D01*
X173791836Y-144462051D01*
X173859296Y-144434108D01*
X173973914Y-144386632D01*
X174137782Y-144277139D01*
X174277139Y-144137782D01*
X174277139Y-144137780D01*
X174287347Y-144127573D01*
X174287348Y-144127570D01*
X175027975Y-143386945D01*
X175089298Y-143353460D01*
X175115656Y-143350626D01*
X177452900Y-143350626D01*
X177452901Y-143350626D01*
X177512512Y-143344218D01*
X177647360Y-143293923D01*
X177762575Y-143207673D01*
X177848825Y-143092458D01*
X177899120Y-142957610D01*
X177905529Y-142898000D01*
X177905528Y-139902255D01*
X177899120Y-139842644D01*
X177865132Y-139751518D01*
X177848826Y-139707798D01*
X177848822Y-139707791D01*
X177762576Y-139592582D01*
X177762573Y-139592579D01*
X177647364Y-139506333D01*
X177647357Y-139506329D01*
X177512511Y-139456035D01*
X177512512Y-139456035D01*
X177452912Y-139449628D01*
X177452910Y-139449627D01*
X177452902Y-139449627D01*
X177452893Y-139449627D01*
X171957158Y-139449627D01*
X171957152Y-139449628D01*
X171897545Y-139456035D01*
X171762700Y-139506329D01*
X171762693Y-139506333D01*
X171647484Y-139592579D01*
X171647481Y-139592582D01*
X171561235Y-139707791D01*
X171561231Y-139707798D01*
X171510937Y-139842644D01*
X171504614Y-139901459D01*
X171504530Y-139902250D01*
X171504529Y-139902262D01*
X171504529Y-140038000D01*
X171484844Y-140105039D01*
X171432040Y-140150794D01*
X171380529Y-140162000D01*
X166426771Y-140162000D01*
X166359732Y-140142315D01*
X166332804Y-140118908D01*
X166326390Y-140111458D01*
X166320340Y-140101650D01*
X166303102Y-140084412D01*
X166300085Y-140080908D01*
X166287500Y-140053123D01*
X166272886Y-140026358D01*
X166273225Y-140021604D01*
X166271259Y-140017262D01*
X166275694Y-139987086D01*
X166277870Y-139956666D01*
X166280846Y-139952034D01*
X166281420Y-139948135D01*
X166288769Y-139939707D01*
X166306371Y-139912319D01*
X166308255Y-139910435D01*
X166320340Y-139898350D01*
X166410908Y-139751516D01*
X166465174Y-139587753D01*
X166475500Y-139486677D01*
X166475499Y-138788324D01*
X166465174Y-138687247D01*
X166410908Y-138523484D01*
X166320340Y-138376650D01*
X166236819Y-138293129D01*
X166203334Y-138231806D01*
X166200500Y-138205448D01*
X166200500Y-136132878D01*
X166220185Y-136065839D01*
X166272989Y-136020084D01*
X166311247Y-136009588D01*
X166362308Y-136004099D01*
X166497153Y-135953805D01*
X166497152Y-135953805D01*
X166497156Y-135953804D01*
X166612371Y-135867554D01*
X166698621Y-135752339D01*
X166748916Y-135617491D01*
X166755325Y-135557881D01*
X166755324Y-134862136D01*
X166748916Y-134802525D01*
X166748160Y-134800499D01*
X166698622Y-134667679D01*
X166698620Y-134667675D01*
X166684878Y-134649319D01*
X166660459Y-134583855D01*
X166675309Y-134515582D01*
X166684869Y-134500705D01*
X166698621Y-134482336D01*
X166748916Y-134347488D01*
X166755325Y-134287878D01*
X166755324Y-133592133D01*
X166748916Y-133532522D01*
X166698621Y-133397674D01*
X166684877Y-133379315D01*
X166660460Y-133313852D01*
X166675311Y-133245579D01*
X166684878Y-133230692D01*
X166698621Y-133212334D01*
X166748916Y-133077486D01*
X166755325Y-133017876D01*
X166755324Y-132322131D01*
X166748916Y-132262520D01*
X166698621Y-132127672D01*
X166684877Y-132109313D01*
X166660459Y-132043850D01*
X166675309Y-131975577D01*
X166684869Y-131960700D01*
X166698621Y-131942331D01*
X166748916Y-131807483D01*
X166755325Y-131747873D01*
X166755324Y-131052128D01*
X166748916Y-130992517D01*
X166698621Y-130857669D01*
X166698620Y-130857668D01*
X166698618Y-130857664D01*
X166612372Y-130742455D01*
X166612369Y-130742452D01*
X166497160Y-130656206D01*
X166497154Y-130656203D01*
X166385991Y-130614741D01*
X166330058Y-130572869D01*
X166305641Y-130507405D01*
X166305325Y-130498559D01*
X166305325Y-129929222D01*
X166325010Y-129862183D01*
X166341639Y-129841546D01*
X167771367Y-128411817D01*
X167832690Y-128378333D01*
X167859048Y-128375499D01*
X168091699Y-128375499D01*
X168091705Y-128375499D01*
X168192782Y-128365174D01*
X168356545Y-128310908D01*
X168503379Y-128220340D01*
X168604772Y-128118947D01*
X168666095Y-128085462D01*
X168735787Y-128090446D01*
X168780134Y-128118947D01*
X168900601Y-128239414D01*
X169040741Y-128341232D01*
X169195084Y-128419873D01*
X169359828Y-128473402D01*
X169530918Y-128500500D01*
X171197952Y-128500500D01*
X171264991Y-128520185D01*
X171285633Y-128536819D01*
X171477381Y-128728567D01*
X171510866Y-128789890D01*
X171510471Y-128834538D01*
X171511767Y-128834678D01*
X171510938Y-128842389D01*
X171510938Y-128842390D01*
X171504530Y-128901996D01*
X171504529Y-128902008D01*
X171504529Y-131897743D01*
X171504530Y-131897749D01*
X171510937Y-131957356D01*
X171561231Y-132092201D01*
X171561235Y-132092208D01*
X171647481Y-132207417D01*
X171647484Y-132207420D01*
X171762693Y-132293666D01*
X171762700Y-132293670D01*
X171897546Y-132343964D01*
X171897545Y-132343964D01*
X171904473Y-132344708D01*
X171957156Y-132350373D01*
X177452901Y-132350372D01*
X177512512Y-132343964D01*
X177647360Y-132293669D01*
X177762575Y-132207419D01*
X177848825Y-132092204D01*
X177899120Y-131957356D01*
X177905529Y-131897746D01*
X177905528Y-128902001D01*
X177899120Y-128842390D01*
X177896191Y-128834538D01*
X177848826Y-128707544D01*
X177848822Y-128707537D01*
X177762576Y-128592328D01*
X177762573Y-128592325D01*
X177647364Y-128506079D01*
X177647357Y-128506075D01*
X177512511Y-128455781D01*
X177512512Y-128455781D01*
X177452912Y-128449374D01*
X177452910Y-128449373D01*
X177452902Y-128449373D01*
X177452894Y-128449373D01*
X175929529Y-128449373D01*
X175862490Y-128429688D01*
X175816735Y-128376884D01*
X175805529Y-128325373D01*
X175805529Y-127302174D01*
X175825214Y-127235135D01*
X175841843Y-127214498D01*
X177044326Y-126012014D01*
X177105644Y-125978533D01*
X177175335Y-125983517D01*
X177231269Y-126025388D01*
X177246159Y-126054093D01*
X177247045Y-126053727D01*
X177248904Y-126058218D01*
X177345375Y-126247550D01*
X177384728Y-126301716D01*
X178017037Y-125669408D01*
X178034075Y-125732993D01*
X178099901Y-125847007D01*
X178192993Y-125940099D01*
X178307007Y-126005925D01*
X178370590Y-126022962D01*
X177738282Y-126655269D01*
X177738282Y-126655270D01*
X177792449Y-126694624D01*
X177981782Y-126791095D01*
X178183870Y-126856757D01*
X178393754Y-126890000D01*
X178606246Y-126890000D01*
X178816127Y-126856757D01*
X178816130Y-126856757D01*
X179018217Y-126791095D01*
X179207554Y-126694622D01*
X179261716Y-126655270D01*
X179261717Y-126655270D01*
X178629408Y-126022962D01*
X178692993Y-126005925D01*
X178807007Y-125940099D01*
X178900099Y-125847007D01*
X178965925Y-125732993D01*
X178982962Y-125669409D01*
X179615270Y-126301717D01*
X179615270Y-126301716D01*
X179654622Y-126247554D01*
X179751095Y-126058217D01*
X179816757Y-125856130D01*
X179816757Y-125856127D01*
X179850000Y-125646246D01*
X179850000Y-125433753D01*
X179816757Y-125223872D01*
X179816757Y-125223869D01*
X179751095Y-125021782D01*
X179654624Y-124832449D01*
X179615270Y-124778282D01*
X179615269Y-124778282D01*
X178982962Y-125410590D01*
X178965925Y-125347007D01*
X178900099Y-125232993D01*
X178807007Y-125139901D01*
X178692993Y-125074075D01*
X178629408Y-125057037D01*
X179299627Y-124386818D01*
X179360950Y-124353333D01*
X179387308Y-124350499D01*
X179397871Y-124350499D01*
X179397872Y-124350499D01*
X179457483Y-124344091D01*
X179592331Y-124293796D01*
X179707546Y-124207546D01*
X179734227Y-124171903D01*
X179750485Y-124150188D01*
X179806419Y-124108318D01*
X179849751Y-124100500D01*
X181150249Y-124100500D01*
X181217288Y-124120185D01*
X181249515Y-124150188D01*
X181292451Y-124207542D01*
X181292454Y-124207546D01*
X181292457Y-124207548D01*
X181407664Y-124293793D01*
X181407671Y-124293797D01*
X181452618Y-124310561D01*
X181542517Y-124344091D01*
X181602127Y-124350500D01*
X181612685Y-124350499D01*
X181679723Y-124370179D01*
X181700372Y-124386818D01*
X182370591Y-125057037D01*
X182307007Y-125074075D01*
X182192993Y-125139901D01*
X182099901Y-125232993D01*
X182034075Y-125347007D01*
X182017037Y-125410591D01*
X181384728Y-124778282D01*
X181384727Y-124778282D01*
X181345380Y-124832439D01*
X181248904Y-125021782D01*
X181183242Y-125223869D01*
X181183242Y-125223872D01*
X181150000Y-125433753D01*
X181150000Y-125646246D01*
X181183242Y-125856127D01*
X181183242Y-125856130D01*
X181248904Y-126058217D01*
X181345375Y-126247550D01*
X181384728Y-126301716D01*
X182017037Y-125669408D01*
X182034075Y-125732993D01*
X182099901Y-125847007D01*
X182192993Y-125940099D01*
X182307007Y-126005925D01*
X182370590Y-126022962D01*
X181738282Y-126655269D01*
X181738282Y-126655270D01*
X181792449Y-126694624D01*
X181981782Y-126791095D01*
X182183870Y-126856757D01*
X182393754Y-126890000D01*
X182606246Y-126890000D01*
X182816127Y-126856757D01*
X182816130Y-126856757D01*
X183018217Y-126791095D01*
X183207554Y-126694622D01*
X183261716Y-126655270D01*
X183261717Y-126655270D01*
X182629408Y-126022962D01*
X182692993Y-126005925D01*
X182807007Y-125940099D01*
X182900099Y-125847007D01*
X182965925Y-125732993D01*
X182982962Y-125669408D01*
X183615270Y-126301717D01*
X183615270Y-126301716D01*
X183654622Y-126247554D01*
X183751095Y-126058217D01*
X183816757Y-125856130D01*
X183816757Y-125856127D01*
X183850000Y-125646246D01*
X183850000Y-125433753D01*
X183816757Y-125223872D01*
X183816757Y-125223869D01*
X183751095Y-125021782D01*
X183654624Y-124832449D01*
X183615270Y-124778282D01*
X183615269Y-124778282D01*
X182982962Y-125410590D01*
X182965925Y-125347007D01*
X182900099Y-125232993D01*
X182807007Y-125139901D01*
X182692993Y-125074075D01*
X182629409Y-125057037D01*
X183299627Y-124386818D01*
X183360950Y-124353333D01*
X183387307Y-124350499D01*
X183397872Y-124350499D01*
X183457483Y-124344091D01*
X183592331Y-124293796D01*
X183707546Y-124207546D01*
X183793796Y-124092331D01*
X183844091Y-123957483D01*
X183850500Y-123897873D01*
X183850499Y-122102128D01*
X183844091Y-122042517D01*
X183793796Y-121907669D01*
X183793795Y-121907668D01*
X183793793Y-121907664D01*
X183707548Y-121792457D01*
X183707546Y-121792454D01*
X183707542Y-121792451D01*
X183650188Y-121749515D01*
X183608318Y-121693581D01*
X183600500Y-121650249D01*
X183600500Y-119413389D01*
X183598125Y-119398394D01*
X183573402Y-119242299D01*
X183545890Y-119157625D01*
X183519873Y-119077554D01*
X183519871Y-119077551D01*
X183519871Y-119077549D01*
X183441231Y-118923211D01*
X183339414Y-118783072D01*
X182536819Y-117980477D01*
X182503334Y-117919154D01*
X182500500Y-117892796D01*
X182500500Y-117881902D01*
X182463553Y-117648631D01*
X182390566Y-117424003D01*
X182283342Y-117213566D01*
X182144517Y-117022490D01*
X181977510Y-116855483D01*
X181786433Y-116716657D01*
X181575996Y-116609433D01*
X181351368Y-116536446D01*
X181118097Y-116499500D01*
X181118092Y-116499500D01*
X180881908Y-116499500D01*
X180881903Y-116499500D01*
X180648631Y-116536446D01*
X180424003Y-116609433D01*
X180213566Y-116716657D01*
X180104550Y-116795862D01*
X180022490Y-116855483D01*
X180022488Y-116855485D01*
X180022487Y-116855485D01*
X179855485Y-117022487D01*
X179855485Y-117022488D01*
X179855483Y-117022490D01*
X179795862Y-117104550D01*
X179716657Y-117213566D01*
X179609433Y-117424003D01*
X179536446Y-117648631D01*
X179499500Y-117881902D01*
X179499500Y-118118097D01*
X179536446Y-118351368D01*
X179609433Y-118575996D01*
X179647102Y-118649924D01*
X179716657Y-118786433D01*
X179855483Y-118977510D01*
X180022490Y-119144517D01*
X180213567Y-119283343D01*
X180312991Y-119334002D01*
X180424003Y-119390566D01*
X180424005Y-119390566D01*
X180424008Y-119390568D01*
X180494244Y-119413389D01*
X180648631Y-119463553D01*
X180881903Y-119500500D01*
X180881908Y-119500500D01*
X180892796Y-119500500D01*
X180959835Y-119520185D01*
X180980477Y-119536819D01*
X181363181Y-119919523D01*
X181396666Y-119980846D01*
X181399500Y-120007204D01*
X181399500Y-121650249D01*
X181379815Y-121717288D01*
X181363181Y-121737930D01*
X181356905Y-121744205D01*
X181292454Y-121792454D01*
X181244205Y-121856905D01*
X181237930Y-121863181D01*
X181214737Y-121875845D01*
X181193581Y-121891682D01*
X181181862Y-121893796D01*
X181176607Y-121896666D01*
X181168979Y-121896120D01*
X181150249Y-121899500D01*
X179849751Y-121899500D01*
X179782712Y-121879815D01*
X179750485Y-121849812D01*
X179707548Y-121792457D01*
X179707546Y-121792454D01*
X179707542Y-121792451D01*
X179592335Y-121706206D01*
X179592328Y-121706202D01*
X179457482Y-121655908D01*
X179457483Y-121655908D01*
X179397883Y-121649501D01*
X179397881Y-121649500D01*
X179397873Y-121649500D01*
X179397864Y-121649500D01*
X177602129Y-121649500D01*
X177602123Y-121649501D01*
X177542516Y-121655908D01*
X177407671Y-121706202D01*
X177407664Y-121706206D01*
X177292455Y-121792452D01*
X177292452Y-121792455D01*
X177206206Y-121907664D01*
X177206202Y-121907671D01*
X177155908Y-122042517D01*
X177149501Y-122102116D01*
X177149501Y-122102123D01*
X177149500Y-122102135D01*
X177149500Y-122742795D01*
X177129815Y-122809834D01*
X177113181Y-122830476D01*
X173988101Y-125955557D01*
X173865617Y-126078040D01*
X173865617Y-126078041D01*
X173865615Y-126078043D01*
X173821888Y-126138227D01*
X173763797Y-126218182D01*
X173685157Y-126372523D01*
X173631626Y-126537273D01*
X173604529Y-126708360D01*
X173604529Y-127443669D01*
X173584844Y-127510708D01*
X173532040Y-127556463D01*
X173462882Y-127566407D01*
X173399326Y-127537382D01*
X173392848Y-127531350D01*
X172422086Y-126560588D01*
X172422084Y-126560586D01*
X172281944Y-126458768D01*
X172127601Y-126380127D01*
X171962857Y-126326598D01*
X171962855Y-126326597D01*
X171962854Y-126326597D01*
X171831427Y-126305781D01*
X171791767Y-126299500D01*
X171791766Y-126299500D01*
X170842029Y-126299500D01*
X170774990Y-126279815D01*
X170729235Y-126227011D01*
X170718029Y-126175500D01*
X170718029Y-120289598D01*
X170726673Y-120260157D01*
X170733197Y-120230171D01*
X170736951Y-120225155D01*
X170737714Y-120222559D01*
X170754344Y-120201921D01*
X170889525Y-120066739D01*
X170950848Y-120033255D01*
X170977206Y-120030421D01*
X172352875Y-120030421D01*
X172352876Y-120030421D01*
X172412487Y-120024013D01*
X172547335Y-119973718D01*
X172662550Y-119887468D01*
X172748800Y-119772253D01*
X172799095Y-119637405D01*
X172805504Y-119577795D01*
X172805503Y-118222054D01*
X172799095Y-118162443D01*
X172792372Y-118144419D01*
X172748801Y-118027597D01*
X172748797Y-118027590D01*
X172662551Y-117912381D01*
X172662548Y-117912378D01*
X172547339Y-117826132D01*
X172547332Y-117826128D01*
X172412486Y-117775834D01*
X172412487Y-117775834D01*
X172352887Y-117769427D01*
X172352885Y-117769426D01*
X172352877Y-117769426D01*
X172352868Y-117769426D01*
X168647125Y-117769426D01*
X168647119Y-117769427D01*
X168587512Y-117775834D01*
X168452667Y-117826128D01*
X168452660Y-117826132D01*
X168337451Y-117912378D01*
X168337448Y-117912381D01*
X168251202Y-118027590D01*
X168251198Y-118027597D01*
X168200904Y-118162443D01*
X168194497Y-118222042D01*
X168194497Y-118222049D01*
X168194496Y-118222061D01*
X168194496Y-119577792D01*
X168194497Y-119577798D01*
X168200904Y-119637405D01*
X168251198Y-119772250D01*
X168251202Y-119772257D01*
X168337448Y-119887466D01*
X168337451Y-119887469D01*
X168459765Y-119979034D01*
X168458960Y-119980108D01*
X168501860Y-120023006D01*
X168517029Y-120082436D01*
X168517029Y-126370551D01*
X168497344Y-126437590D01*
X168444540Y-126483345D01*
X168375382Y-126493289D01*
X168354025Y-126488257D01*
X168286185Y-126465777D01*
X168192782Y-126434826D01*
X168192780Y-126434825D01*
X168091707Y-126424500D01*
X167493359Y-126424500D01*
X167493341Y-126424501D01*
X167392276Y-126434825D01*
X167228513Y-126489092D01*
X167228510Y-126489093D01*
X167081677Y-126579661D01*
X166998158Y-126663181D01*
X166936835Y-126696666D01*
X166910477Y-126699500D01*
X165499581Y-126699500D01*
X165432542Y-126679815D01*
X165411900Y-126663181D01*
X165328380Y-126579661D01*
X165328379Y-126579660D01*
X165199228Y-126499999D01*
X165181547Y-126489093D01*
X165181542Y-126489091D01*
X165111185Y-126465777D01*
X165017782Y-126434826D01*
X165017780Y-126434825D01*
X164916707Y-126424500D01*
X164318359Y-126424500D01*
X164318341Y-126424501D01*
X164217276Y-126434825D01*
X164053513Y-126489092D01*
X164053510Y-126489093D01*
X163906680Y-126579659D01*
X163792356Y-126693983D01*
X163731033Y-126727467D01*
X163661341Y-126722483D01*
X163616994Y-126693982D01*
X163503067Y-126580055D01*
X163503063Y-126580052D01*
X163356340Y-126489551D01*
X163356329Y-126489546D01*
X163192681Y-126435319D01*
X163091683Y-126425000D01*
X163042529Y-126425000D01*
X163042529Y-128374999D01*
X163091669Y-128374999D01*
X163091683Y-128374998D01*
X163192681Y-128364680D01*
X163356329Y-128310453D01*
X163356340Y-128310448D01*
X163503062Y-128219948D01*
X163616993Y-128106017D01*
X163678316Y-128072532D01*
X163748008Y-128077516D01*
X163792356Y-128106017D01*
X163906679Y-128220340D01*
X164053513Y-128310908D01*
X164217276Y-128365174D01*
X164318352Y-128375500D01*
X164916705Y-128375499D01*
X164916713Y-128375498D01*
X164916716Y-128375498D01*
X164972059Y-128369844D01*
X165017782Y-128365174D01*
X165181545Y-128310908D01*
X165328379Y-128220340D01*
X165411900Y-128136819D01*
X165473223Y-128103334D01*
X165499581Y-128100500D01*
X165802010Y-128100500D01*
X165869049Y-128120185D01*
X165914804Y-128172989D01*
X165924748Y-128242147D01*
X165895723Y-128305703D01*
X165889691Y-128312181D01*
X165060713Y-129141157D01*
X165060712Y-129141158D01*
X164984047Y-129255896D01*
X164931246Y-129383371D01*
X164931243Y-129383381D01*
X164904325Y-129518708D01*
X164904325Y-130498560D01*
X164884640Y-130565599D01*
X164831836Y-130611354D01*
X164823658Y-130614742D01*
X164712496Y-130656202D01*
X164712489Y-130656206D01*
X164597280Y-130742452D01*
X164597277Y-130742455D01*
X164511031Y-130857664D01*
X164511027Y-130857671D01*
X164458023Y-130999785D01*
X164455363Y-130998792D01*
X164427410Y-131047846D01*
X164365488Y-131080211D01*
X164298004Y-131074768D01*
X164262183Y-131061407D01*
X164262172Y-131061405D01*
X164202644Y-131055004D01*
X163154800Y-131055004D01*
X163154800Y-135555004D01*
X164202628Y-135555004D01*
X164202644Y-135555003D01*
X164262172Y-135548602D01*
X164262183Y-135548599D01*
X164298002Y-135535240D01*
X164367693Y-135530255D01*
X164429017Y-135563739D01*
X164455476Y-135611172D01*
X164458023Y-135610223D01*
X164511027Y-135752336D01*
X164511031Y-135752343D01*
X164597277Y-135867552D01*
X164597280Y-135867555D01*
X164712489Y-135953801D01*
X164712491Y-135953802D01*
X164712494Y-135953804D01*
X164718829Y-135956166D01*
X164774764Y-135998035D01*
X164799184Y-136063498D01*
X164799500Y-136072350D01*
X164799500Y-138205448D01*
X164779815Y-138272487D01*
X164763181Y-138293129D01*
X164679661Y-138376648D01*
X164589093Y-138523481D01*
X164589092Y-138523484D01*
X164534826Y-138687247D01*
X164534826Y-138687248D01*
X164534825Y-138687248D01*
X164524500Y-138788315D01*
X164524500Y-139323647D01*
X164504815Y-139390686D01*
X164452011Y-139436441D01*
X164382853Y-139446385D01*
X164319297Y-139417360D01*
X164297397Y-139392537D01*
X164296160Y-139390686D01*
X164277139Y-139362218D01*
X164277137Y-139362215D01*
X164137785Y-139222863D01*
X164137781Y-139222860D01*
X163973920Y-139113371D01*
X163973911Y-139113366D01*
X163848102Y-139061255D01*
X163807874Y-139034375D01*
X161141848Y-136368348D01*
X161108363Y-136307025D01*
X161105529Y-136280667D01*
X161105529Y-136009757D01*
X161125214Y-135942718D01*
X161155219Y-135910490D01*
X161212575Y-135867554D01*
X161298825Y-135752339D01*
X161349120Y-135617491D01*
X161349119Y-135617491D01*
X161351831Y-135610223D01*
X161354528Y-135611229D01*
X161382354Y-135562314D01*
X161444251Y-135529901D01*
X161511829Y-135535326D01*
X161547420Y-135548600D01*
X161547427Y-135548602D01*
X161606955Y-135555003D01*
X161606972Y-135555004D01*
X162654800Y-135555004D01*
X162654800Y-131055004D01*
X161606955Y-131055004D01*
X161547427Y-131061405D01*
X161547420Y-131061407D01*
X161511827Y-131074682D01*
X161442135Y-131079665D01*
X161380813Y-131046178D01*
X161354413Y-130998821D01*
X161351831Y-130999785D01*
X161298826Y-130857671D01*
X161298822Y-130857664D01*
X161212576Y-130742455D01*
X161212573Y-130742452D01*
X161097364Y-130656206D01*
X161097357Y-130656202D01*
X160962511Y-130605908D01*
X160962512Y-130605908D01*
X160902912Y-130599501D01*
X160902910Y-130599500D01*
X160902902Y-130599500D01*
X160902893Y-130599500D01*
X159507158Y-130599500D01*
X159507152Y-130599501D01*
X159447545Y-130605908D01*
X159312700Y-130656202D01*
X159312693Y-130656206D01*
X159197484Y-130742452D01*
X159197481Y-130742455D01*
X159111235Y-130857664D01*
X159111231Y-130857671D01*
X159060937Y-130992517D01*
X159055752Y-131040750D01*
X159029014Y-131105301D01*
X158971622Y-131145150D01*
X158901797Y-131147643D01*
X158867366Y-131133034D01*
X158756334Y-131064548D01*
X158756329Y-131064546D01*
X158592681Y-131010319D01*
X158491683Y-131000000D01*
X158455029Y-131000000D01*
X158455029Y-131913500D01*
X158435344Y-131980539D01*
X158382540Y-132026294D01*
X158331029Y-132037500D01*
X158205029Y-132037500D01*
X158205029Y-132163500D01*
X158185344Y-132230539D01*
X158132540Y-132276294D01*
X158081029Y-132287500D01*
X157230030Y-132287500D01*
X157230030Y-132386654D01*
X157240348Y-132487652D01*
X157277244Y-132598996D01*
X157279646Y-132668824D01*
X157243914Y-132728866D01*
X157181394Y-132760059D01*
X157159538Y-132762000D01*
X150638957Y-132762000D01*
X150445666Y-132800448D01*
X150445664Y-132800448D01*
X150437805Y-132803704D01*
X150368335Y-132811169D01*
X150342906Y-132803702D01*
X150323829Y-132795800D01*
X150231089Y-132770950D01*
X150196662Y-132761725D01*
X150196661Y-132761724D01*
X150196658Y-132761724D01*
X150065833Y-132744500D01*
X150065826Y-132744500D01*
X149500000Y-132744500D01*
X149499997Y-132744500D01*
X149428061Y-132749644D01*
X149428056Y-132749645D01*
X149390735Y-132760603D01*
X149338158Y-132764363D01*
X149200001Y-132744500D01*
X149200000Y-132744500D01*
X149059045Y-132744500D01*
X148992006Y-132724815D01*
X148986161Y-132720819D01*
X148980433Y-132716657D01*
X148965525Y-132709061D01*
X148769992Y-132609431D01*
X148741224Y-132600084D01*
X148691863Y-132569835D01*
X147810373Y-131688345D01*
X157230029Y-131688345D01*
X157230029Y-131787500D01*
X157955029Y-131787500D01*
X157955029Y-131000000D01*
X157918390Y-131000000D01*
X157918372Y-131000001D01*
X157817376Y-131010319D01*
X157653728Y-131064546D01*
X157653717Y-131064551D01*
X157506994Y-131155052D01*
X157506990Y-131155055D01*
X157385084Y-131276961D01*
X157385081Y-131276965D01*
X157294580Y-131423688D01*
X157294575Y-131423699D01*
X157240348Y-131587347D01*
X157230029Y-131688345D01*
X147810373Y-131688345D01*
X143808682Y-127686654D01*
X161805030Y-127686654D01*
X161815348Y-127787652D01*
X161869575Y-127951300D01*
X161869580Y-127951311D01*
X161960081Y-128098034D01*
X161960084Y-128098038D01*
X162081990Y-128219944D01*
X162081994Y-128219947D01*
X162228717Y-128310448D01*
X162228728Y-128310453D01*
X162392376Y-128364680D01*
X162493380Y-128374999D01*
X162542528Y-128374998D01*
X162542529Y-128374998D01*
X162542529Y-127650000D01*
X161805030Y-127650000D01*
X161805030Y-127686654D01*
X143808682Y-127686654D01*
X143235373Y-127113345D01*
X161805029Y-127113345D01*
X161805029Y-127150000D01*
X162542529Y-127150000D01*
X162542529Y-126425000D01*
X162542528Y-126424999D01*
X162493390Y-126425000D01*
X162493372Y-126425001D01*
X162392376Y-126435319D01*
X162228728Y-126489546D01*
X162228717Y-126489551D01*
X162081994Y-126580052D01*
X162081990Y-126580055D01*
X161960084Y-126701961D01*
X161960081Y-126701965D01*
X161869580Y-126848688D01*
X161869575Y-126848699D01*
X161815348Y-127012347D01*
X161805029Y-127113345D01*
X143235373Y-127113345D01*
X135699794Y-119577766D01*
X161605207Y-119577766D01*
X161611608Y-119637294D01*
X161611610Y-119637301D01*
X161661852Y-119772008D01*
X161661856Y-119772015D01*
X161748016Y-119887109D01*
X161748019Y-119887112D01*
X161863113Y-119973272D01*
X161863120Y-119973276D01*
X161997827Y-120023518D01*
X161997834Y-120023520D01*
X162057362Y-120029921D01*
X162057379Y-120029922D01*
X163660211Y-120029922D01*
X164160211Y-120029922D01*
X165763043Y-120029922D01*
X165763059Y-120029921D01*
X165822587Y-120023520D01*
X165822594Y-120023518D01*
X165957301Y-119973276D01*
X165957308Y-119973272D01*
X166072402Y-119887112D01*
X166072405Y-119887109D01*
X166158565Y-119772015D01*
X166158569Y-119772008D01*
X166208811Y-119637301D01*
X166208813Y-119637294D01*
X166215214Y-119577766D01*
X166215215Y-119577749D01*
X166215215Y-119149924D01*
X164160211Y-119149924D01*
X164160211Y-120029922D01*
X163660211Y-120029922D01*
X163660211Y-119149924D01*
X161605207Y-119149924D01*
X161605207Y-119577766D01*
X135699794Y-119577766D01*
X134344109Y-118222081D01*
X161605207Y-118222081D01*
X161605207Y-118649924D01*
X163660211Y-118649924D01*
X164160211Y-118649924D01*
X166215215Y-118649924D01*
X166215215Y-118222098D01*
X166215214Y-118222081D01*
X166208813Y-118162553D01*
X166208811Y-118162546D01*
X166158569Y-118027839D01*
X166158565Y-118027832D01*
X166072405Y-117912738D01*
X166072402Y-117912735D01*
X165957308Y-117826575D01*
X165957301Y-117826571D01*
X165822594Y-117776329D01*
X165822587Y-117776327D01*
X165763059Y-117769926D01*
X164160211Y-117769926D01*
X164160211Y-118649924D01*
X163660211Y-118649924D01*
X163660211Y-117769926D01*
X162057362Y-117769926D01*
X161997834Y-117776327D01*
X161997827Y-117776329D01*
X161863120Y-117826571D01*
X161863113Y-117826575D01*
X161748019Y-117912735D01*
X161748016Y-117912738D01*
X161661856Y-118027832D01*
X161661852Y-118027839D01*
X161611610Y-118162546D01*
X161611608Y-118162553D01*
X161605207Y-118222081D01*
X134344109Y-118222081D01*
X133709708Y-117587680D01*
X133676223Y-117526357D01*
X133681207Y-117456665D01*
X133709708Y-117412318D01*
X135129308Y-115992718D01*
X136644517Y-114477510D01*
X136783343Y-114286434D01*
X136890568Y-114075992D01*
X136963553Y-113851368D01*
X137000500Y-113618097D01*
X137000500Y-108381902D01*
X136975036Y-108221133D01*
X136963553Y-108148632D01*
X136963552Y-108148628D01*
X136963552Y-108148627D01*
X136890570Y-107924013D01*
X136890568Y-107924010D01*
X136890568Y-107924008D01*
X136886466Y-107915957D01*
X136783343Y-107713566D01*
X136644517Y-107522490D01*
X133709708Y-104587681D01*
X133676223Y-104526358D01*
X133681207Y-104456666D01*
X133709708Y-104412319D01*
X134899166Y-103222861D01*
X136144517Y-101977510D01*
X136283343Y-101786434D01*
X136390568Y-101575993D01*
X136394561Y-101563704D01*
X136434354Y-101441233D01*
X136442239Y-101416966D01*
X136463553Y-101351368D01*
X136486806Y-101204556D01*
X136500500Y-101118097D01*
X136500500Y-94881902D01*
X136463553Y-94648631D01*
X136390566Y-94424003D01*
X136333299Y-94311611D01*
X136333298Y-94311610D01*
X136283344Y-94213567D01*
X136168483Y-94055476D01*
X136144517Y-94022490D01*
X133209708Y-91087681D01*
X133176223Y-91026358D01*
X133181207Y-90956666D01*
X133209708Y-90912319D01*
X133804208Y-90317819D01*
X133865531Y-90284334D01*
X133891889Y-90281500D01*
X141875500Y-90281500D01*
X141942539Y-90301185D01*
X141988294Y-90353989D01*
X141999500Y-90405500D01*
X141999500Y-101618097D01*
X142036446Y-101851368D01*
X142109433Y-102075996D01*
X142186715Y-102227670D01*
X142216657Y-102286434D01*
X142355483Y-102477510D01*
X144855483Y-104977510D01*
X145022490Y-105144517D01*
X145213567Y-105283343D01*
X145312991Y-105334002D01*
X145424003Y-105390566D01*
X145424005Y-105390566D01*
X145424008Y-105390568D01*
X145544412Y-105429689D01*
X145648631Y-105463553D01*
X145881903Y-105500500D01*
X145881908Y-105500500D01*
X148312097Y-105500500D01*
X148545368Y-105463553D01*
X148769992Y-105390568D01*
X148980433Y-105283343D01*
X148986161Y-105279180D01*
X149051968Y-105255702D01*
X149059045Y-105255500D01*
X149200000Y-105255500D01*
X149271940Y-105250355D01*
X149309259Y-105239396D01*
X149361841Y-105235636D01*
X149500000Y-105255500D01*
X149500003Y-105255500D01*
X150065819Y-105255500D01*
X150065826Y-105255500D01*
X150196662Y-105238275D01*
X150323829Y-105204200D01*
X150445743Y-105153701D01*
X150559757Y-105087875D01*
X150640230Y-105026124D01*
X150705399Y-105000930D01*
X150715717Y-105000500D01*
X155725500Y-105000500D01*
X155792539Y-105020185D01*
X155838294Y-105072989D01*
X155849500Y-105124500D01*
X155849500Y-105657878D01*
X155849501Y-105657884D01*
X155855908Y-105717491D01*
X155906202Y-105852336D01*
X155906206Y-105852343D01*
X155992452Y-105967552D01*
X155992455Y-105967555D01*
X156107665Y-106053802D01*
X156107667Y-106053802D01*
X156107669Y-106053804D01*
X156118830Y-106057966D01*
X156174764Y-106099834D01*
X156199184Y-106165297D01*
X156199500Y-106174149D01*
X156199500Y-107917034D01*
X156179815Y-107984073D01*
X156163181Y-108004715D01*
X154704714Y-109463181D01*
X154643391Y-109496666D01*
X154617033Y-109499500D01*
X153252104Y-109499500D01*
X153252098Y-109499501D01*
X153192491Y-109505908D01*
X153057646Y-109556202D01*
X153057639Y-109556206D01*
X152942430Y-109642452D01*
X152942427Y-109642455D01*
X152856181Y-109757664D01*
X152856177Y-109757671D01*
X152805883Y-109892517D01*
X152799476Y-109952116D01*
X152799475Y-109952135D01*
X152799475Y-112047870D01*
X152799476Y-112047876D01*
X152805883Y-112107483D01*
X152856177Y-112242328D01*
X152856181Y-112242335D01*
X152942427Y-112357544D01*
X152942430Y-112357547D01*
X153057639Y-112443793D01*
X153057646Y-112443797D01*
X153192492Y-112494091D01*
X153192491Y-112494091D01*
X153199419Y-112494835D01*
X153252102Y-112500500D01*
X155347847Y-112500499D01*
X155407458Y-112494091D01*
X155542306Y-112443796D01*
X155657521Y-112357546D01*
X155743771Y-112242331D01*
X155794066Y-112107483D01*
X155800475Y-112047873D01*
X155800475Y-112047844D01*
X157200025Y-112047844D01*
X157206426Y-112107372D01*
X157206428Y-112107379D01*
X157256670Y-112242086D01*
X157256674Y-112242093D01*
X157342834Y-112357187D01*
X157342837Y-112357190D01*
X157457931Y-112443350D01*
X157457938Y-112443354D01*
X157592645Y-112493596D01*
X157592652Y-112493598D01*
X157652180Y-112499999D01*
X157652197Y-112500000D01*
X158450025Y-112500000D01*
X158950025Y-112500000D01*
X159747853Y-112500000D01*
X159747869Y-112499999D01*
X159807397Y-112493598D01*
X159807404Y-112493596D01*
X159942111Y-112443354D01*
X159942118Y-112443350D01*
X160057212Y-112357190D01*
X160057215Y-112357187D01*
X160143375Y-112242093D01*
X160143379Y-112242086D01*
X160193621Y-112107379D01*
X160193623Y-112107372D01*
X160200024Y-112047844D01*
X160200025Y-112047827D01*
X160200025Y-111250000D01*
X158950025Y-111250000D01*
X158950025Y-112500000D01*
X158450025Y-112500000D01*
X158450025Y-111250000D01*
X157200025Y-111250000D01*
X157200025Y-112047844D01*
X155800475Y-112047844D01*
X155800474Y-110682939D01*
X155820159Y-110615901D01*
X155836793Y-110595259D01*
X156479898Y-109952155D01*
X157200025Y-109952155D01*
X157200025Y-110750000D01*
X158450025Y-110750000D01*
X158450025Y-109500000D01*
X157652180Y-109500000D01*
X157592652Y-109506401D01*
X157592645Y-109506403D01*
X157457938Y-109556645D01*
X157457931Y-109556649D01*
X157342837Y-109642809D01*
X157342834Y-109642812D01*
X157256674Y-109757906D01*
X157256670Y-109757913D01*
X157206428Y-109892620D01*
X157206426Y-109892627D01*
X157200025Y-109952155D01*
X156479898Y-109952155D01*
X156570883Y-109861170D01*
X157621786Y-108810267D01*
X157621786Y-108810266D01*
X157621789Y-108810264D01*
X157709394Y-108679154D01*
X157769737Y-108533472D01*
X157800500Y-108378817D01*
X157800500Y-108221133D01*
X157800500Y-107683370D01*
X157820185Y-107616331D01*
X157872989Y-107570576D01*
X157942147Y-107560632D01*
X158005703Y-107589657D01*
X158012181Y-107595689D01*
X159704811Y-109288319D01*
X159738296Y-109349642D01*
X159733312Y-109419334D01*
X159691440Y-109475267D01*
X159625976Y-109499684D01*
X159617130Y-109500000D01*
X158950025Y-109500000D01*
X158950025Y-110750000D01*
X160200025Y-110750000D01*
X160200025Y-110082895D01*
X160219710Y-110015856D01*
X160272514Y-109970101D01*
X160341672Y-109960157D01*
X160405228Y-109989182D01*
X160411706Y-109995214D01*
X162224622Y-111808130D01*
X162251502Y-111848359D01*
X162303610Y-111974161D01*
X162303617Y-111974174D01*
X162413106Y-112138035D01*
X162413109Y-112138039D01*
X162552460Y-112277390D01*
X162552464Y-112277393D01*
X162716325Y-112386882D01*
X162716338Y-112386889D01*
X162853726Y-112443796D01*
X162898411Y-112462305D01*
X162898415Y-112462305D01*
X162898416Y-112462306D01*
X163091702Y-112500754D01*
X163091705Y-112500754D01*
X168675501Y-112500754D01*
X168742540Y-112520439D01*
X168788295Y-112573243D01*
X168799501Y-112624754D01*
X168799501Y-112998130D01*
X168805908Y-113057737D01*
X168856202Y-113192582D01*
X168856206Y-113192589D01*
X168942452Y-113307798D01*
X168942455Y-113307801D01*
X169057664Y-113394047D01*
X169057671Y-113394051D01*
X169192517Y-113444345D01*
X169192516Y-113444345D01*
X169199444Y-113445089D01*
X169252127Y-113450754D01*
X174747872Y-113450753D01*
X174807483Y-113444345D01*
X174942331Y-113394050D01*
X175057546Y-113307800D01*
X175143796Y-113192585D01*
X175194091Y-113057737D01*
X175200500Y-112998127D01*
X175200499Y-110002382D01*
X175194091Y-109942771D01*
X175175347Y-109892517D01*
X175143797Y-109807925D01*
X175143793Y-109807918D01*
X175057547Y-109692709D01*
X175057544Y-109692706D01*
X174942335Y-109606460D01*
X174942328Y-109606456D01*
X174807482Y-109556162D01*
X174807483Y-109556162D01*
X174747883Y-109549755D01*
X174747881Y-109549754D01*
X174747873Y-109549754D01*
X174747865Y-109549754D01*
X171091519Y-109549754D01*
X171024480Y-109530069D01*
X171003838Y-109513435D01*
X169308792Y-107818388D01*
X169308791Y-107818387D01*
X169194053Y-107741722D01*
X169066578Y-107688921D01*
X169066568Y-107688918D01*
X168931242Y-107662000D01*
X168931240Y-107662000D01*
X168931239Y-107662000D01*
X164926771Y-107662000D01*
X164859732Y-107642315D01*
X164832804Y-107618908D01*
X164826390Y-107611458D01*
X164820340Y-107601650D01*
X164803102Y-107584412D01*
X164800085Y-107580908D01*
X164787500Y-107553123D01*
X164772886Y-107526358D01*
X164773225Y-107521604D01*
X164771259Y-107517262D01*
X164775694Y-107487086D01*
X164777870Y-107456666D01*
X164780846Y-107452034D01*
X164781420Y-107448135D01*
X164788769Y-107439707D01*
X164806371Y-107412319D01*
X164820340Y-107398350D01*
X164910908Y-107251516D01*
X164965174Y-107087753D01*
X164975500Y-106986677D01*
X164975499Y-106288324D01*
X164965174Y-106187247D01*
X164910908Y-106023484D01*
X164820340Y-105876650D01*
X164698350Y-105754660D01*
X164551516Y-105664092D01*
X164387753Y-105609826D01*
X164387751Y-105609825D01*
X164286684Y-105599500D01*
X164286677Y-105599500D01*
X164004019Y-105599500D01*
X163936980Y-105579815D01*
X163916338Y-105563181D01*
X163586614Y-105233457D01*
X163553129Y-105172134D01*
X163550295Y-105145776D01*
X163550295Y-104962137D01*
X163550294Y-104962131D01*
X163543887Y-104902524D01*
X163493593Y-104767679D01*
X163493591Y-104767675D01*
X163479849Y-104749319D01*
X163455430Y-104683855D01*
X163470280Y-104615582D01*
X163479840Y-104600705D01*
X163493592Y-104582336D01*
X163543887Y-104447488D01*
X163550296Y-104387878D01*
X163550295Y-103692133D01*
X163543887Y-103632522D01*
X163536717Y-103613299D01*
X163493593Y-103497676D01*
X163493591Y-103497673D01*
X163479849Y-103479316D01*
X163455431Y-103413852D01*
X163470282Y-103345579D01*
X163479849Y-103330692D01*
X163493592Y-103312334D01*
X163543887Y-103177486D01*
X163550296Y-103117876D01*
X163550295Y-102422131D01*
X163543887Y-102362520D01*
X163523383Y-102307547D01*
X163493593Y-102227674D01*
X163493591Y-102227670D01*
X163479849Y-102209314D01*
X163455430Y-102143850D01*
X163470280Y-102075577D01*
X163479840Y-102060700D01*
X163493592Y-102042331D01*
X163543887Y-101907483D01*
X163550296Y-101847873D01*
X163550295Y-101152128D01*
X163543887Y-101092517D01*
X163493592Y-100957669D01*
X163493591Y-100957668D01*
X163493589Y-100957664D01*
X163407343Y-100842455D01*
X163407340Y-100842452D01*
X163292131Y-100756206D01*
X163292125Y-100756203D01*
X163180962Y-100714741D01*
X163125029Y-100672869D01*
X163100612Y-100607405D01*
X163100296Y-100598559D01*
X163100296Y-100029222D01*
X163119981Y-99962183D01*
X163136611Y-99941545D01*
X163566338Y-99511817D01*
X163627661Y-99478333D01*
X163654019Y-99475499D01*
X163886670Y-99475499D01*
X163886676Y-99475499D01*
X163987753Y-99465174D01*
X164151516Y-99410908D01*
X164298350Y-99320340D01*
X164399743Y-99218947D01*
X164461066Y-99185462D01*
X164530758Y-99190446D01*
X164575105Y-99218947D01*
X164695572Y-99339414D01*
X164835712Y-99441232D01*
X164990055Y-99519873D01*
X165154799Y-99573402D01*
X165325889Y-99600500D01*
X168675500Y-99600500D01*
X168742539Y-99620185D01*
X168788294Y-99672989D01*
X168799500Y-99724500D01*
X168799500Y-101997870D01*
X168799501Y-101997876D01*
X168805908Y-102057483D01*
X168856202Y-102192328D01*
X168856206Y-102192335D01*
X168942452Y-102307544D01*
X168942455Y-102307547D01*
X169057664Y-102393793D01*
X169057671Y-102393797D01*
X169192517Y-102444091D01*
X169192516Y-102444091D01*
X169199444Y-102444835D01*
X169252127Y-102450500D01*
X174747872Y-102450499D01*
X174807483Y-102444091D01*
X174942331Y-102393796D01*
X175057546Y-102307546D01*
X175143796Y-102192331D01*
X175194091Y-102057483D01*
X175200500Y-101997873D01*
X175200499Y-99132202D01*
X175220184Y-99065164D01*
X175236813Y-99044527D01*
X177044325Y-97237015D01*
X177105644Y-97203533D01*
X177175336Y-97208517D01*
X177231269Y-97250389D01*
X177246159Y-97279093D01*
X177247045Y-97278727D01*
X177248904Y-97283218D01*
X177345375Y-97472550D01*
X177384728Y-97526716D01*
X178017037Y-96894408D01*
X178034075Y-96957993D01*
X178099901Y-97072007D01*
X178192993Y-97165099D01*
X178307007Y-97230925D01*
X178370590Y-97247962D01*
X177738282Y-97880269D01*
X177738282Y-97880270D01*
X177792449Y-97919624D01*
X177981782Y-98016095D01*
X178183870Y-98081757D01*
X178393754Y-98115000D01*
X178606246Y-98115000D01*
X178816127Y-98081757D01*
X178816130Y-98081757D01*
X179018217Y-98016095D01*
X179207554Y-97919622D01*
X179261716Y-97880270D01*
X179261717Y-97880270D01*
X178629408Y-97247962D01*
X178692993Y-97230925D01*
X178807007Y-97165099D01*
X178900099Y-97072007D01*
X178965925Y-96957993D01*
X178982962Y-96894409D01*
X179615270Y-97526717D01*
X179615270Y-97526716D01*
X179654622Y-97472554D01*
X179751095Y-97283217D01*
X179816757Y-97081130D01*
X179816757Y-97081127D01*
X179850000Y-96871246D01*
X179850000Y-96658753D01*
X179816757Y-96448872D01*
X179816757Y-96448869D01*
X179751095Y-96246782D01*
X179654624Y-96057449D01*
X179615270Y-96003282D01*
X179615269Y-96003282D01*
X178982962Y-96635590D01*
X178965925Y-96572007D01*
X178900099Y-96457993D01*
X178807007Y-96364901D01*
X178692993Y-96299075D01*
X178629408Y-96282037D01*
X179299627Y-95611818D01*
X179360950Y-95578333D01*
X179387308Y-95575499D01*
X179397871Y-95575499D01*
X179397872Y-95575499D01*
X179457483Y-95569091D01*
X179592331Y-95518796D01*
X179707546Y-95432546D01*
X179734227Y-95396903D01*
X179750485Y-95375188D01*
X179806419Y-95333318D01*
X179849751Y-95325500D01*
X181150249Y-95325500D01*
X181217288Y-95345185D01*
X181249515Y-95375188D01*
X181283121Y-95420079D01*
X181292454Y-95432546D01*
X181292457Y-95432548D01*
X181407664Y-95518793D01*
X181407671Y-95518797D01*
X181452618Y-95535561D01*
X181542517Y-95569091D01*
X181602127Y-95575500D01*
X181612685Y-95575499D01*
X181679723Y-95595179D01*
X181700372Y-95611818D01*
X182370591Y-96282037D01*
X182307007Y-96299075D01*
X182192993Y-96364901D01*
X182099901Y-96457993D01*
X182034075Y-96572007D01*
X182017037Y-96635591D01*
X181384728Y-96003282D01*
X181384727Y-96003282D01*
X181345380Y-96057439D01*
X181248904Y-96246782D01*
X181183242Y-96448869D01*
X181183242Y-96448872D01*
X181150000Y-96658753D01*
X181150000Y-96871246D01*
X181183242Y-97081127D01*
X181183242Y-97081130D01*
X181248904Y-97283217D01*
X181345375Y-97472550D01*
X181384728Y-97526716D01*
X182017037Y-96894408D01*
X182034075Y-96957993D01*
X182099901Y-97072007D01*
X182192993Y-97165099D01*
X182307007Y-97230925D01*
X182370590Y-97247962D01*
X181738282Y-97880269D01*
X181738282Y-97880270D01*
X181792449Y-97919624D01*
X181981782Y-98016095D01*
X182183870Y-98081757D01*
X182393754Y-98115000D01*
X182606246Y-98115000D01*
X182816127Y-98081757D01*
X182816130Y-98081757D01*
X183018217Y-98016095D01*
X183207554Y-97919622D01*
X183261716Y-97880270D01*
X183261717Y-97880270D01*
X182629408Y-97247962D01*
X182692993Y-97230925D01*
X182807007Y-97165099D01*
X182900099Y-97072007D01*
X182965925Y-96957993D01*
X182982962Y-96894408D01*
X183615270Y-97526717D01*
X183615270Y-97526716D01*
X183654622Y-97472554D01*
X183751095Y-97283217D01*
X183816757Y-97081130D01*
X183816757Y-97081127D01*
X183850000Y-96871246D01*
X183850000Y-96658753D01*
X183816757Y-96448872D01*
X183816757Y-96448869D01*
X183751095Y-96246782D01*
X183654624Y-96057449D01*
X183615270Y-96003282D01*
X183615269Y-96003282D01*
X182982962Y-96635590D01*
X182965925Y-96572007D01*
X182900099Y-96457993D01*
X182807007Y-96364901D01*
X182692993Y-96299075D01*
X182629409Y-96282037D01*
X183299627Y-95611818D01*
X183360950Y-95578333D01*
X183387307Y-95575499D01*
X183397872Y-95575499D01*
X183457483Y-95569091D01*
X183592331Y-95518796D01*
X183707546Y-95432546D01*
X183793796Y-95317331D01*
X183844091Y-95182483D01*
X183850500Y-95122873D01*
X183850499Y-93327128D01*
X183844091Y-93267517D01*
X183793796Y-93132669D01*
X183793795Y-93132668D01*
X183793793Y-93132664D01*
X183718224Y-93031718D01*
X183707546Y-93017454D01*
X183707542Y-93017451D01*
X183650188Y-92974515D01*
X183608318Y-92918581D01*
X183600500Y-92875249D01*
X183600500Y-90413389D01*
X183573402Y-90242299D01*
X183550420Y-90171568D01*
X183519873Y-90077554D01*
X183441232Y-89923212D01*
X183339414Y-89783072D01*
X182536819Y-88980477D01*
X182503334Y-88919154D01*
X182500500Y-88892796D01*
X182500500Y-88881902D01*
X182463553Y-88648631D01*
X182390566Y-88424003D01*
X182334002Y-88312991D01*
X182283343Y-88213567D01*
X182144517Y-88022490D01*
X181977510Y-87855483D01*
X181786433Y-87716657D01*
X181752778Y-87699509D01*
X181575996Y-87609433D01*
X181351368Y-87536446D01*
X181118097Y-87499500D01*
X181118092Y-87499500D01*
X180881908Y-87499500D01*
X180881903Y-87499500D01*
X180648631Y-87536446D01*
X180424003Y-87609433D01*
X180213566Y-87716657D01*
X180138908Y-87770900D01*
X180022490Y-87855483D01*
X180022488Y-87855485D01*
X180022487Y-87855485D01*
X179855485Y-88022487D01*
X179855485Y-88022488D01*
X179855483Y-88022490D01*
X179816969Y-88075500D01*
X179716657Y-88213566D01*
X179609433Y-88424003D01*
X179536446Y-88648631D01*
X179499500Y-88881902D01*
X179499500Y-89118097D01*
X179536446Y-89351368D01*
X179609433Y-89575996D01*
X179677405Y-89709397D01*
X179716657Y-89786433D01*
X179855483Y-89977510D01*
X180022490Y-90144517D01*
X180213567Y-90283343D01*
X180281230Y-90317819D01*
X180424003Y-90390566D01*
X180424005Y-90390566D01*
X180424008Y-90390568D01*
X180494244Y-90413389D01*
X180648631Y-90463553D01*
X180881903Y-90500500D01*
X180881908Y-90500500D01*
X180892796Y-90500500D01*
X180959835Y-90520185D01*
X180980477Y-90536819D01*
X181363181Y-90919523D01*
X181396666Y-90980846D01*
X181399500Y-91007204D01*
X181399500Y-92875249D01*
X181379815Y-92942288D01*
X181363181Y-92962930D01*
X181356905Y-92969205D01*
X181292454Y-93017454D01*
X181244205Y-93081905D01*
X181237930Y-93088181D01*
X181214737Y-93100845D01*
X181193581Y-93116682D01*
X181181862Y-93118796D01*
X181176607Y-93121666D01*
X181168979Y-93121120D01*
X181150249Y-93124500D01*
X179849751Y-93124500D01*
X179782712Y-93104815D01*
X179750485Y-93074812D01*
X179718224Y-93031718D01*
X179707546Y-93017454D01*
X179707542Y-93017451D01*
X179592335Y-92931206D01*
X179592328Y-92931202D01*
X179457482Y-92880908D01*
X179457483Y-92880908D01*
X179397883Y-92874501D01*
X179397881Y-92874500D01*
X179397873Y-92874500D01*
X179397864Y-92874500D01*
X177602129Y-92874500D01*
X177602123Y-92874501D01*
X177542516Y-92880908D01*
X177407671Y-92931202D01*
X177407664Y-92931206D01*
X177292455Y-93017452D01*
X177292452Y-93017455D01*
X177206206Y-93132664D01*
X177206202Y-93132671D01*
X177155908Y-93267517D01*
X177149501Y-93327116D01*
X177149501Y-93327123D01*
X177149500Y-93327135D01*
X177149500Y-93967795D01*
X177129815Y-94034834D01*
X177113181Y-94055476D01*
X172655476Y-98513181D01*
X172594153Y-98546666D01*
X172567795Y-98549500D01*
X171657204Y-98549500D01*
X171590165Y-98529815D01*
X171569523Y-98513181D01*
X170716930Y-97660588D01*
X170716928Y-97660586D01*
X170576788Y-97558768D01*
X170422445Y-97480127D01*
X170257701Y-97426598D01*
X170257699Y-97426597D01*
X170257698Y-97426597D01*
X170126271Y-97405781D01*
X170086611Y-97399500D01*
X170086610Y-97399500D01*
X167019471Y-97399500D01*
X166952432Y-97379815D01*
X166906677Y-97327011D01*
X166895471Y-97275500D01*
X166895471Y-93254421D01*
X166915156Y-93187382D01*
X166967960Y-93141627D01*
X167019471Y-93130421D01*
X167647846Y-93130421D01*
X167647847Y-93130421D01*
X167707458Y-93124013D01*
X167842306Y-93073718D01*
X167957521Y-92987468D01*
X168043771Y-92872253D01*
X168094066Y-92737405D01*
X168100475Y-92677795D01*
X168100474Y-91322054D01*
X168094066Y-91262443D01*
X168045088Y-91131127D01*
X168043772Y-91127597D01*
X168043768Y-91127590D01*
X167957522Y-91012381D01*
X167957519Y-91012378D01*
X167842310Y-90926132D01*
X167842303Y-90926128D01*
X167707457Y-90875834D01*
X167707458Y-90875834D01*
X167647858Y-90869427D01*
X167647856Y-90869426D01*
X167647848Y-90869426D01*
X167647839Y-90869426D01*
X163942096Y-90869426D01*
X163942090Y-90869427D01*
X163882483Y-90875834D01*
X163747638Y-90926128D01*
X163747631Y-90926132D01*
X163632422Y-91012378D01*
X163632419Y-91012381D01*
X163546173Y-91127590D01*
X163546169Y-91127597D01*
X163495875Y-91262443D01*
X163489468Y-91322042D01*
X163489468Y-91322049D01*
X163489467Y-91322061D01*
X163489467Y-92677792D01*
X163489468Y-92677798D01*
X163495875Y-92737405D01*
X163546169Y-92872250D01*
X163546173Y-92872257D01*
X163632419Y-92987466D01*
X163632422Y-92987469D01*
X163747631Y-93073715D01*
X163747638Y-93073719D01*
X163750569Y-93074812D01*
X163882484Y-93124013D01*
X163942094Y-93130422D01*
X164570471Y-93130421D01*
X164637510Y-93150105D01*
X164683265Y-93202909D01*
X164694471Y-93254421D01*
X164694471Y-97610325D01*
X164685826Y-97639765D01*
X164679303Y-97669752D01*
X164675548Y-97674767D01*
X164674786Y-97677364D01*
X164658152Y-97698006D01*
X164575105Y-97781053D01*
X164513782Y-97814538D01*
X164444090Y-97809554D01*
X164399743Y-97781053D01*
X164298351Y-97679661D01*
X164298350Y-97679660D01*
X164185940Y-97610325D01*
X164151518Y-97589093D01*
X164151513Y-97589091D01*
X164150069Y-97588612D01*
X163987753Y-97534826D01*
X163987751Y-97534825D01*
X163886678Y-97524500D01*
X163288330Y-97524500D01*
X163288312Y-97524501D01*
X163187247Y-97534825D01*
X163023484Y-97589092D01*
X163023481Y-97589093D01*
X162876648Y-97679661D01*
X162793129Y-97763181D01*
X162731806Y-97796666D01*
X162705448Y-97799500D01*
X161794552Y-97799500D01*
X161727513Y-97779815D01*
X161706871Y-97763181D01*
X161623351Y-97679661D01*
X161623350Y-97679660D01*
X161510940Y-97610325D01*
X161476518Y-97589093D01*
X161476513Y-97589091D01*
X161475069Y-97588612D01*
X161312753Y-97534826D01*
X161312751Y-97534825D01*
X161211678Y-97524500D01*
X160613330Y-97524500D01*
X160613312Y-97524501D01*
X160512247Y-97534825D01*
X160348484Y-97589092D01*
X160348481Y-97589093D01*
X160201651Y-97679659D01*
X160087327Y-97793983D01*
X160026004Y-97827467D01*
X159956312Y-97822483D01*
X159911965Y-97793982D01*
X159798038Y-97680055D01*
X159798034Y-97680052D01*
X159651311Y-97589551D01*
X159651300Y-97589546D01*
X159487652Y-97535319D01*
X159386654Y-97525000D01*
X159337500Y-97525000D01*
X159337500Y-99474999D01*
X159386640Y-99474999D01*
X159386654Y-99474998D01*
X159487652Y-99464680D01*
X159651300Y-99410453D01*
X159651311Y-99410448D01*
X159798033Y-99319948D01*
X159911964Y-99206017D01*
X159973287Y-99172532D01*
X160042979Y-99177516D01*
X160087327Y-99206017D01*
X160201650Y-99320340D01*
X160348484Y-99410908D01*
X160512247Y-99465174D01*
X160613323Y-99475500D01*
X161211676Y-99475499D01*
X161211684Y-99475498D01*
X161211687Y-99475498D01*
X161274153Y-99469117D01*
X161312753Y-99465174D01*
X161476516Y-99410908D01*
X161535327Y-99374632D01*
X161554569Y-99369367D01*
X161571906Y-99359495D01*
X161587578Y-99360334D01*
X161602719Y-99356192D01*
X161621755Y-99362166D01*
X161641676Y-99363234D01*
X161654406Y-99372413D01*
X161669383Y-99377114D01*
X161682167Y-99392432D01*
X161698348Y-99404100D01*
X161704094Y-99418705D01*
X161714152Y-99430756D01*
X161716625Y-99450551D01*
X161723930Y-99469117D01*
X161722433Y-99497044D01*
X161722814Y-99500086D01*
X161722043Y-99504355D01*
X161708309Y-99573402D01*
X161708309Y-99573403D01*
X161699296Y-99618710D01*
X161699296Y-100598560D01*
X161679611Y-100665599D01*
X161626807Y-100711354D01*
X161618629Y-100714742D01*
X161507467Y-100756202D01*
X161507460Y-100756206D01*
X161392251Y-100842452D01*
X161392248Y-100842455D01*
X161306002Y-100957664D01*
X161305998Y-100957671D01*
X161252994Y-101099785D01*
X161250334Y-101098792D01*
X161222381Y-101147846D01*
X161160459Y-101180211D01*
X161092975Y-101174768D01*
X161057154Y-101161407D01*
X161057143Y-101161405D01*
X160997615Y-101155004D01*
X159949771Y-101155004D01*
X159949771Y-105655004D01*
X160997599Y-105655004D01*
X160997615Y-105655003D01*
X161057143Y-105648602D01*
X161057154Y-105648599D01*
X161092973Y-105635240D01*
X161162664Y-105630255D01*
X161223988Y-105663739D01*
X161250447Y-105711172D01*
X161252994Y-105710223D01*
X161305998Y-105852336D01*
X161306002Y-105852343D01*
X161392248Y-105967552D01*
X161392251Y-105967555D01*
X161507460Y-106053801D01*
X161507467Y-106053805D01*
X161642313Y-106104099D01*
X161642312Y-106104099D01*
X161649240Y-106104843D01*
X161701923Y-106110508D01*
X162430988Y-106110507D01*
X162498027Y-106130191D01*
X162518669Y-106146826D01*
X162988181Y-106616338D01*
X163021666Y-106677661D01*
X163024500Y-106704019D01*
X163024500Y-106986668D01*
X163024501Y-106986687D01*
X163034825Y-107087752D01*
X163089092Y-107251515D01*
X163089093Y-107251518D01*
X163179661Y-107398351D01*
X163193629Y-107412319D01*
X163227114Y-107473642D01*
X163222130Y-107543334D01*
X163193629Y-107587681D01*
X163179661Y-107601648D01*
X163089093Y-107748481D01*
X163089092Y-107748484D01*
X163034826Y-107912247D01*
X163034826Y-107912248D01*
X163034825Y-107912248D01*
X163024500Y-108013315D01*
X163024500Y-108711669D01*
X163024501Y-108711687D01*
X163034825Y-108812752D01*
X163071109Y-108922249D01*
X163089092Y-108976516D01*
X163179660Y-109123350D01*
X163301650Y-109245340D01*
X163448484Y-109335908D01*
X163612247Y-109390174D01*
X163713323Y-109400500D01*
X164286676Y-109400499D01*
X164286684Y-109400498D01*
X164286687Y-109400498D01*
X164342030Y-109394844D01*
X164387753Y-109390174D01*
X164551516Y-109335908D01*
X164698350Y-109245340D01*
X164820340Y-109123350D01*
X164821233Y-109121901D01*
X164822104Y-109121117D01*
X164824821Y-109117683D01*
X164825407Y-109118147D01*
X164873180Y-109075179D01*
X164926771Y-109063000D01*
X168520727Y-109063000D01*
X168587766Y-109082685D01*
X168608408Y-109099319D01*
X168989579Y-109480490D01*
X169023064Y-109541813D01*
X169018080Y-109611505D01*
X168976212Y-109667436D01*
X168956041Y-109682536D01*
X168942454Y-109692708D01*
X168942453Y-109692709D01*
X168942452Y-109692710D01*
X168856206Y-109807918D01*
X168856202Y-109807925D01*
X168805908Y-109942771D01*
X168799501Y-110002370D01*
X168799501Y-110002377D01*
X168799500Y-110002389D01*
X168799500Y-110375754D01*
X168779815Y-110442793D01*
X168727011Y-110488548D01*
X168675500Y-110499754D01*
X163514608Y-110499754D01*
X163447569Y-110480069D01*
X163426927Y-110463435D01*
X158830177Y-105866685D01*
X158796692Y-105805362D01*
X158801676Y-105735670D01*
X158843548Y-105679737D01*
X158909012Y-105655320D01*
X158917858Y-105655004D01*
X159449771Y-105655004D01*
X159449771Y-101155004D01*
X158401926Y-101155004D01*
X158342398Y-101161405D01*
X158342391Y-101161407D01*
X158306798Y-101174682D01*
X158237106Y-101179665D01*
X158175784Y-101146178D01*
X158149384Y-101098821D01*
X158146802Y-101099785D01*
X158093797Y-100957671D01*
X158093793Y-100957664D01*
X158007547Y-100842455D01*
X158007544Y-100842452D01*
X157892335Y-100756206D01*
X157892328Y-100756202D01*
X157757482Y-100705908D01*
X157757483Y-100705908D01*
X157697883Y-100699501D01*
X157697881Y-100699500D01*
X157697873Y-100699500D01*
X157697864Y-100699500D01*
X156302129Y-100699500D01*
X156302123Y-100699501D01*
X156242516Y-100705908D01*
X156107671Y-100756202D01*
X156107664Y-100756206D01*
X155992455Y-100842452D01*
X155992452Y-100842455D01*
X155906206Y-100957664D01*
X155906202Y-100957671D01*
X155855908Y-101092517D01*
X155849960Y-101147846D01*
X155849501Y-101152123D01*
X155849500Y-101152135D01*
X155849500Y-101247364D01*
X155829815Y-101314403D01*
X155777011Y-101360158D01*
X155707853Y-101370102D01*
X155644297Y-101341077D01*
X155637819Y-101335045D01*
X155597834Y-101295060D01*
X155597830Y-101295057D01*
X155451107Y-101204556D01*
X155451096Y-101204551D01*
X155287448Y-101150324D01*
X155186450Y-101140005D01*
X155149796Y-101140005D01*
X155149796Y-102053505D01*
X155130111Y-102120544D01*
X155077307Y-102166299D01*
X155025796Y-102177505D01*
X154899796Y-102177505D01*
X154899796Y-102303505D01*
X154880111Y-102370544D01*
X154827307Y-102416299D01*
X154775796Y-102427505D01*
X153924797Y-102427505D01*
X153924797Y-102526659D01*
X153935115Y-102627657D01*
X153989342Y-102791305D01*
X153989343Y-102791307D01*
X154001121Y-102810401D01*
X154019562Y-102877793D01*
X153998641Y-102944457D01*
X153944999Y-102989228D01*
X153895583Y-102999500D01*
X150715717Y-102999500D01*
X150648678Y-102979815D01*
X150640230Y-102973875D01*
X150559767Y-102912132D01*
X150559749Y-102912120D01*
X150445751Y-102846303D01*
X150445750Y-102846302D01*
X150359078Y-102810401D01*
X150323829Y-102795800D01*
X150196662Y-102761725D01*
X150196661Y-102761724D01*
X150196658Y-102761724D01*
X150065833Y-102744500D01*
X150065826Y-102744500D01*
X149500000Y-102744500D01*
X149499997Y-102744500D01*
X149428061Y-102749644D01*
X149428056Y-102749645D01*
X149390735Y-102760603D01*
X149338158Y-102764363D01*
X149200001Y-102744500D01*
X149200000Y-102744500D01*
X149059045Y-102744500D01*
X148992006Y-102724815D01*
X148986161Y-102720819D01*
X148980433Y-102716657D01*
X148951575Y-102701953D01*
X148769996Y-102609433D01*
X148545368Y-102536446D01*
X148312097Y-102499500D01*
X148312092Y-102499500D01*
X146672889Y-102499500D01*
X146605850Y-102479815D01*
X146585208Y-102463181D01*
X145950377Y-101828350D01*
X153924796Y-101828350D01*
X153924796Y-101927505D01*
X154649796Y-101927505D01*
X154649796Y-101140005D01*
X154613157Y-101140005D01*
X154613139Y-101140006D01*
X154512143Y-101150324D01*
X154348495Y-101204551D01*
X154348484Y-101204556D01*
X154201761Y-101295057D01*
X154201757Y-101295060D01*
X154079851Y-101416966D01*
X154079848Y-101416970D01*
X153989347Y-101563693D01*
X153989342Y-101563704D01*
X153935115Y-101727352D01*
X153924796Y-101828350D01*
X145950377Y-101828350D01*
X145036819Y-100914792D01*
X145003334Y-100853469D01*
X145000500Y-100827111D01*
X145000500Y-98786654D01*
X158100001Y-98786654D01*
X158110319Y-98887652D01*
X158164546Y-99051300D01*
X158164551Y-99051311D01*
X158255052Y-99198034D01*
X158255055Y-99198038D01*
X158376961Y-99319944D01*
X158376965Y-99319947D01*
X158523688Y-99410448D01*
X158523699Y-99410453D01*
X158687347Y-99464680D01*
X158788351Y-99474999D01*
X158837499Y-99474998D01*
X158837500Y-99474998D01*
X158837500Y-98750000D01*
X158100001Y-98750000D01*
X158100001Y-98786654D01*
X145000500Y-98786654D01*
X145000500Y-98213345D01*
X158100000Y-98213345D01*
X158100000Y-98250000D01*
X158837500Y-98250000D01*
X158837500Y-97525000D01*
X158837499Y-97524999D01*
X158788361Y-97525000D01*
X158788343Y-97525001D01*
X158687347Y-97535319D01*
X158523699Y-97589546D01*
X158523688Y-97589551D01*
X158376965Y-97680052D01*
X158376961Y-97680055D01*
X158255055Y-97801961D01*
X158255052Y-97801965D01*
X158164551Y-97948688D01*
X158164546Y-97948699D01*
X158110319Y-98112347D01*
X158100000Y-98213345D01*
X145000500Y-98213345D01*
X145000500Y-92677766D01*
X156900178Y-92677766D01*
X156906579Y-92737294D01*
X156906581Y-92737301D01*
X156956823Y-92872008D01*
X156956827Y-92872015D01*
X157042987Y-92987109D01*
X157042990Y-92987112D01*
X157158084Y-93073272D01*
X157158091Y-93073276D01*
X157292798Y-93123518D01*
X157292805Y-93123520D01*
X157352333Y-93129921D01*
X157352350Y-93129922D01*
X158955182Y-93129922D01*
X159455182Y-93129922D01*
X161058014Y-93129922D01*
X161058030Y-93129921D01*
X161117558Y-93123520D01*
X161117565Y-93123518D01*
X161252272Y-93073276D01*
X161252279Y-93073272D01*
X161367373Y-92987112D01*
X161367376Y-92987109D01*
X161453536Y-92872015D01*
X161453540Y-92872008D01*
X161503782Y-92737301D01*
X161503784Y-92737294D01*
X161510185Y-92677766D01*
X161510186Y-92677749D01*
X161510186Y-92249924D01*
X159455182Y-92249924D01*
X159455182Y-93129922D01*
X158955182Y-93129922D01*
X158955182Y-92249924D01*
X156900178Y-92249924D01*
X156900178Y-92677766D01*
X145000500Y-92677766D01*
X145000500Y-91322081D01*
X156900178Y-91322081D01*
X156900178Y-91749924D01*
X158955182Y-91749924D01*
X159455182Y-91749924D01*
X161510186Y-91749924D01*
X161510186Y-91322098D01*
X161510185Y-91322081D01*
X161503784Y-91262553D01*
X161503782Y-91262546D01*
X161453540Y-91127839D01*
X161453536Y-91127832D01*
X161367376Y-91012738D01*
X161367373Y-91012735D01*
X161252279Y-90926575D01*
X161252272Y-90926571D01*
X161117565Y-90876329D01*
X161117558Y-90876327D01*
X161058030Y-90869926D01*
X159455182Y-90869926D01*
X159455182Y-91749924D01*
X158955182Y-91749924D01*
X158955182Y-90869926D01*
X157352333Y-90869926D01*
X157292805Y-90876327D01*
X157292798Y-90876329D01*
X157158091Y-90926571D01*
X157158084Y-90926575D01*
X157042990Y-91012735D01*
X157042987Y-91012738D01*
X156956827Y-91127832D01*
X156956823Y-91127839D01*
X156906581Y-91262546D01*
X156906579Y-91262553D01*
X156900178Y-91322081D01*
X145000500Y-91322081D01*
X145000500Y-89924500D01*
X145020185Y-89857461D01*
X145072989Y-89811706D01*
X145124500Y-89800500D01*
X153078844Y-89800500D01*
X153078845Y-89800499D01*
X153233497Y-89769737D01*
X153379179Y-89709394D01*
X153510289Y-89621789D01*
X154621789Y-88510289D01*
X154709394Y-88379179D01*
X154769738Y-88233497D01*
X154800500Y-88078842D01*
X154800500Y-87921157D01*
X154800500Y-86526993D01*
X154820185Y-86459954D01*
X154872989Y-86414199D01*
X154942147Y-86404255D01*
X155005703Y-86433280D01*
X155012181Y-86439312D01*
X155518102Y-86945233D01*
X155551587Y-87006556D01*
X155552038Y-87008722D01*
X155577504Y-87136746D01*
X155577507Y-87136756D01*
X155637393Y-87281336D01*
X155637400Y-87281349D01*
X155724345Y-87411470D01*
X155724348Y-87411474D01*
X155835007Y-87522133D01*
X155835011Y-87522136D01*
X155965132Y-87609081D01*
X155965145Y-87609088D01*
X156109725Y-87668974D01*
X156109730Y-87668976D01*
X156109734Y-87668976D01*
X156109735Y-87668977D01*
X156263223Y-87699509D01*
X156263226Y-87699509D01*
X157876730Y-87699509D01*
X157983320Y-87678306D01*
X158030224Y-87668976D01*
X158174815Y-87609085D01*
X158304943Y-87522136D01*
X158415608Y-87411471D01*
X158502557Y-87281343D01*
X158562448Y-87136752D01*
X158572439Y-87086520D01*
X158592981Y-86983258D01*
X158592981Y-86826749D01*
X158562449Y-86673261D01*
X158562448Y-86673260D01*
X158562448Y-86673256D01*
X158526491Y-86586447D01*
X158502560Y-86528671D01*
X158502553Y-86528658D01*
X158415608Y-86398537D01*
X158415605Y-86398533D01*
X158374402Y-86357330D01*
X158340917Y-86296007D01*
X158345901Y-86226315D01*
X158374403Y-86181967D01*
X158415218Y-86141152D01*
X158502115Y-86011101D01*
X158554348Y-85885001D01*
X157193977Y-85885001D01*
X157126938Y-85865316D01*
X157081183Y-85812512D01*
X157069977Y-85761001D01*
X157069977Y-85509001D01*
X157089662Y-85441962D01*
X157142466Y-85396207D01*
X157193977Y-85385001D01*
X158554347Y-85385001D01*
X158502113Y-85258898D01*
X158501773Y-85258388D01*
X158501676Y-85258079D01*
X158499244Y-85253529D01*
X158500107Y-85253067D01*
X158480896Y-85191711D01*
X158499381Y-85124331D01*
X158551361Y-85077641D01*
X158604876Y-85065499D01*
X159975501Y-85065499D01*
X160042540Y-85085184D01*
X160088295Y-85137988D01*
X160099501Y-85189499D01*
X160099501Y-85286686D01*
X160109825Y-85387752D01*
X160127789Y-85441962D01*
X160164092Y-85551516D01*
X160254660Y-85698350D01*
X160376650Y-85820340D01*
X160408450Y-85839954D01*
X160455175Y-85891902D01*
X160457914Y-85898040D01*
X160466723Y-85919309D01*
X160543387Y-86034045D01*
X161053454Y-86544112D01*
X161168192Y-86620777D01*
X161294878Y-86673251D01*
X161295672Y-86673580D01*
X161295676Y-86673580D01*
X161295677Y-86673581D01*
X161431003Y-86700500D01*
X161431006Y-86700500D01*
X165068996Y-86700500D01*
X165160040Y-86682389D01*
X165204328Y-86673580D01*
X165268069Y-86647177D01*
X165331807Y-86620777D01*
X165331808Y-86620776D01*
X165331811Y-86620775D01*
X165446543Y-86544114D01*
X166544114Y-85446543D01*
X166620775Y-85331811D01*
X166635333Y-85296666D01*
X166673578Y-85204332D01*
X166673580Y-85204328D01*
X166688657Y-85128534D01*
X166700500Y-85068996D01*
X166700500Y-68474499D01*
X166720185Y-68407460D01*
X166772989Y-68361705D01*
X166824500Y-68350499D01*
X166897871Y-68350499D01*
X166897872Y-68350499D01*
X166957483Y-68344091D01*
X167092331Y-68293796D01*
X167207546Y-68207546D01*
X167293796Y-68092331D01*
X167344091Y-67957483D01*
X167350500Y-67897873D01*
X167350499Y-66102128D01*
X167344091Y-66042517D01*
X167293796Y-65907669D01*
X167293795Y-65907668D01*
X167293793Y-65907664D01*
X167207547Y-65792455D01*
X167207544Y-65792452D01*
X167092335Y-65706206D01*
X167092328Y-65706202D01*
X166960917Y-65657189D01*
X166904983Y-65615318D01*
X166880566Y-65549853D01*
X166895418Y-65481580D01*
X166916563Y-65453332D01*
X167030104Y-65339792D01*
X167155051Y-65167816D01*
X167251557Y-64978412D01*
X167317246Y-64776243D01*
X167350500Y-64566287D01*
X167350500Y-64353713D01*
X167317246Y-64143757D01*
X167251557Y-63941588D01*
X167155051Y-63752184D01*
X167155049Y-63752181D01*
X167155048Y-63752179D01*
X167030109Y-63580213D01*
X166879786Y-63429890D01*
X166707820Y-63304951D01*
X166518414Y-63208444D01*
X166518413Y-63208443D01*
X166518412Y-63208443D01*
X166316243Y-63142754D01*
X166316241Y-63142753D01*
X166316240Y-63142753D01*
X166154957Y-63117208D01*
X166106287Y-63109500D01*
X165893713Y-63109500D01*
X165845042Y-63117208D01*
X165683760Y-63142753D01*
X165481585Y-63208444D01*
X165292179Y-63304951D01*
X165120213Y-63429890D01*
X164969890Y-63580213D01*
X164844951Y-63752179D01*
X164748444Y-63941585D01*
X164682753Y-64143760D01*
X164649500Y-64353713D01*
X164649500Y-64566287D01*
X164649499Y-64566287D01*
X164674284Y-64722771D01*
X164665329Y-64792064D01*
X164639492Y-64829849D01*
X160543390Y-68925951D01*
X160543384Y-68925958D01*
X160485807Y-69012130D01*
X160466726Y-69040686D01*
X160466722Y-69040693D01*
X160413921Y-69168167D01*
X160413918Y-69168177D01*
X160387000Y-69303504D01*
X160387000Y-82117948D01*
X160379390Y-82143861D01*
X160375286Y-82170559D01*
X160368863Y-82179712D01*
X160367315Y-82184987D01*
X160355915Y-82200062D01*
X160353383Y-82202926D01*
X160254660Y-82301650D01*
X160228143Y-82344640D01*
X160221100Y-82352610D01*
X160200164Y-82365777D01*
X160181775Y-82382318D01*
X160169392Y-82385131D01*
X160161956Y-82389809D01*
X160149352Y-82389685D01*
X160128185Y-82394496D01*
X158208126Y-82394496D01*
X158160674Y-82385057D01*
X158030228Y-82331025D01*
X158030218Y-82331022D01*
X157876730Y-82300491D01*
X157876728Y-82300491D01*
X156263226Y-82300491D01*
X156263224Y-82300491D01*
X156109735Y-82331022D01*
X156109725Y-82331025D01*
X155965145Y-82390911D01*
X155965132Y-82390918D01*
X155835011Y-82477863D01*
X155835007Y-82477866D01*
X155724348Y-82588525D01*
X155724345Y-82588529D01*
X155637400Y-82718650D01*
X155637393Y-82718663D01*
X155577507Y-82863243D01*
X155577504Y-82863253D01*
X155546973Y-83016741D01*
X155546973Y-83016744D01*
X155546973Y-83173248D01*
X155546973Y-83173250D01*
X155546972Y-83173250D01*
X155577504Y-83326738D01*
X155577507Y-83326748D01*
X155637393Y-83471328D01*
X155637400Y-83471341D01*
X155724345Y-83601462D01*
X155724348Y-83601466D01*
X155765198Y-83642316D01*
X155798683Y-83703639D01*
X155793699Y-83773331D01*
X155765199Y-83817677D01*
X155724349Y-83858527D01*
X155724345Y-83858532D01*
X155637400Y-83988653D01*
X155637393Y-83988666D01*
X155577507Y-84133246D01*
X155577504Y-84133256D01*
X155546973Y-84286744D01*
X155546973Y-84286747D01*
X155546973Y-84443251D01*
X155546973Y-84443253D01*
X155546972Y-84443253D01*
X155577504Y-84596741D01*
X155577507Y-84596751D01*
X155639728Y-84746967D01*
X155637824Y-84747755D01*
X155650148Y-84806959D01*
X155625144Y-84872202D01*
X155568837Y-84913569D01*
X155499103Y-84917928D01*
X155438867Y-84884684D01*
X153443516Y-82889333D01*
X153441277Y-82886190D01*
X153439466Y-82885087D01*
X153431107Y-82871912D01*
X153419675Y-82855863D01*
X153418052Y-82852525D01*
X153362603Y-82718657D01*
X153327283Y-82665798D01*
X153323577Y-82658173D01*
X153319126Y-82631747D01*
X153311119Y-82606176D01*
X153312402Y-82591831D01*
X153311972Y-82589274D01*
X153312805Y-82587325D01*
X153313482Y-82579770D01*
X153338000Y-82456515D01*
X153338000Y-81426771D01*
X153357685Y-81359732D01*
X153381021Y-81332864D01*
X153388496Y-81326417D01*
X153398350Y-81320340D01*
X153415923Y-81302766D01*
X153419374Y-81299791D01*
X153447188Y-81287168D01*
X153473989Y-81272533D01*
X153478698Y-81272869D01*
X153482999Y-81270918D01*
X153513219Y-81275336D01*
X153543681Y-81277514D01*
X153548267Y-81280461D01*
X153552134Y-81281027D01*
X153560549Y-81288354D01*
X153588034Y-81306017D01*
X153601961Y-81319944D01*
X153601965Y-81319947D01*
X153748688Y-81410448D01*
X153748699Y-81410453D01*
X153912347Y-81464680D01*
X154013351Y-81474999D01*
X154612500Y-81474999D01*
X154711640Y-81474999D01*
X154711654Y-81474998D01*
X154812652Y-81464680D01*
X154976300Y-81410453D01*
X154976311Y-81410448D01*
X155123034Y-81319947D01*
X155123038Y-81319944D01*
X155244944Y-81198038D01*
X155244947Y-81198034D01*
X155335448Y-81051311D01*
X155335453Y-81051300D01*
X155389680Y-80887652D01*
X155399999Y-80786654D01*
X155400000Y-80786641D01*
X155400000Y-80750000D01*
X154612500Y-80750000D01*
X154612500Y-81474999D01*
X154013351Y-81474999D01*
X154112500Y-81474998D01*
X154112500Y-80250000D01*
X154612500Y-80250000D01*
X155399999Y-80250000D01*
X155399999Y-80213360D01*
X155399998Y-80213345D01*
X155389680Y-80112347D01*
X155335453Y-79948699D01*
X155335448Y-79948688D01*
X155244947Y-79801965D01*
X155244944Y-79801961D01*
X155123039Y-79680056D01*
X155002228Y-79605539D01*
X154955504Y-79553591D01*
X154944282Y-79484628D01*
X154972125Y-79420546D01*
X155002228Y-79394461D01*
X155123039Y-79319943D01*
X155244944Y-79198038D01*
X155244947Y-79198034D01*
X155335448Y-79051311D01*
X155335453Y-79051300D01*
X155389680Y-78887652D01*
X155399999Y-78786654D01*
X155400000Y-78786641D01*
X155400000Y-78750000D01*
X154612500Y-78750000D01*
X154612500Y-80250000D01*
X154112500Y-80250000D01*
X154112500Y-78250000D01*
X154612500Y-78250000D01*
X155399999Y-78250000D01*
X155399999Y-78213360D01*
X155399998Y-78213345D01*
X155389680Y-78112347D01*
X155335453Y-77948699D01*
X155335448Y-77948688D01*
X155244947Y-77801965D01*
X155244944Y-77801961D01*
X155123038Y-77680055D01*
X155123034Y-77680052D01*
X154976311Y-77589551D01*
X154976300Y-77589546D01*
X154812652Y-77535319D01*
X154711654Y-77525000D01*
X154612500Y-77525000D01*
X154612500Y-78250000D01*
X154112500Y-78250000D01*
X154112500Y-77524999D01*
X154013360Y-77525000D01*
X154013344Y-77525001D01*
X153912347Y-77535319D01*
X153748699Y-77589546D01*
X153748688Y-77589551D01*
X153601965Y-77680052D01*
X153601963Y-77680053D01*
X153588030Y-77693986D01*
X153584157Y-77696100D01*
X153581781Y-77699818D01*
X153553767Y-77712692D01*
X153526705Y-77727468D01*
X153522303Y-77727152D01*
X153518295Y-77728995D01*
X153487765Y-77724680D01*
X153457013Y-77722479D01*
X153452251Y-77719661D01*
X153449113Y-77719218D01*
X153435090Y-77709506D01*
X153419376Y-77700208D01*
X153415904Y-77697214D01*
X153398350Y-77679660D01*
X153388503Y-77673586D01*
X153381023Y-77667136D01*
X153367203Y-77645745D01*
X153350177Y-77626815D01*
X153347575Y-77615364D01*
X153343107Y-77608449D01*
X153343076Y-77595565D01*
X153338000Y-77573228D01*
X153338000Y-74704019D01*
X153357685Y-74636980D01*
X153374319Y-74616338D01*
X160044112Y-67946545D01*
X160044114Y-67946543D01*
X160120775Y-67831811D01*
X160123702Y-67824746D01*
X160173578Y-67704332D01*
X160173580Y-67704328D01*
X160200500Y-67568994D01*
X160200500Y-67431006D01*
X160200500Y-65974499D01*
X160220185Y-65907460D01*
X160272989Y-65861705D01*
X160324500Y-65850499D01*
X160397871Y-65850499D01*
X160397872Y-65850499D01*
X160457483Y-65844091D01*
X160592331Y-65793796D01*
X160707546Y-65707546D01*
X160793796Y-65592331D01*
X160844091Y-65457483D01*
X160850500Y-65397873D01*
X160850499Y-63602128D01*
X160844091Y-63542517D01*
X160793796Y-63407669D01*
X160793795Y-63407668D01*
X160793793Y-63407664D01*
X160707547Y-63292455D01*
X160707544Y-63292452D01*
X160592335Y-63206206D01*
X160592328Y-63206202D01*
X160457482Y-63155908D01*
X160457483Y-63155908D01*
X160397883Y-63149501D01*
X160397881Y-63149500D01*
X160397873Y-63149500D01*
X160397864Y-63149500D01*
X158602129Y-63149500D01*
X158602123Y-63149501D01*
X158542516Y-63155908D01*
X158407671Y-63206202D01*
X158407664Y-63206206D01*
X158292455Y-63292452D01*
X158292452Y-63292455D01*
X158206206Y-63407664D01*
X158206202Y-63407671D01*
X158155908Y-63542517D01*
X158151856Y-63580213D01*
X158149501Y-63602123D01*
X158149500Y-63602135D01*
X158149500Y-63612690D01*
X158129815Y-63679729D01*
X158113181Y-63700371D01*
X157442962Y-64370590D01*
X157425925Y-64307007D01*
X157360099Y-64192993D01*
X157267007Y-64099901D01*
X157152993Y-64034075D01*
X157089409Y-64017037D01*
X157721716Y-63384728D01*
X157667550Y-63345375D01*
X157478217Y-63248904D01*
X157276129Y-63183242D01*
X157066246Y-63150000D01*
X156853754Y-63150000D01*
X156643872Y-63183242D01*
X156643869Y-63183242D01*
X156441782Y-63248904D01*
X156252439Y-63345380D01*
X156198282Y-63384727D01*
X156198282Y-63384728D01*
X156830591Y-64017037D01*
X156767007Y-64034075D01*
X156652993Y-64099901D01*
X156559901Y-64192993D01*
X156494075Y-64307007D01*
X156477037Y-64370591D01*
X155844728Y-63738282D01*
X155844727Y-63738282D01*
X155805380Y-63792439D01*
X155708904Y-63981782D01*
X155643242Y-64183869D01*
X155643242Y-64183872D01*
X155610000Y-64393753D01*
X155610000Y-64606246D01*
X155643242Y-64816127D01*
X155643242Y-64816130D01*
X155708904Y-65018217D01*
X155805375Y-65207550D01*
X155844728Y-65261716D01*
X156477037Y-64629408D01*
X156494075Y-64692993D01*
X156559901Y-64807007D01*
X156652993Y-64900099D01*
X156767007Y-64965925D01*
X156830590Y-64982962D01*
X156198282Y-65615269D01*
X156198282Y-65615270D01*
X156252449Y-65654624D01*
X156441782Y-65751095D01*
X156643870Y-65816757D01*
X156853754Y-65850000D01*
X157066246Y-65850000D01*
X157276127Y-65816757D01*
X157276130Y-65816757D01*
X157478217Y-65751095D01*
X157667554Y-65654622D01*
X157721716Y-65615270D01*
X157721717Y-65615270D01*
X157089408Y-64982962D01*
X157152993Y-64965925D01*
X157267007Y-64900099D01*
X157360099Y-64807007D01*
X157425925Y-64692993D01*
X157442962Y-64629408D01*
X158113181Y-65299628D01*
X158146666Y-65360951D01*
X158149500Y-65387300D01*
X158149500Y-65397865D01*
X158149501Y-65397876D01*
X158155908Y-65457483D01*
X158206202Y-65592328D01*
X158206206Y-65592335D01*
X158292452Y-65707544D01*
X158292455Y-65707547D01*
X158407664Y-65793793D01*
X158407671Y-65793797D01*
X158452618Y-65810561D01*
X158542517Y-65844091D01*
X158602127Y-65850500D01*
X158675500Y-65850499D01*
X158742538Y-65870183D01*
X158788294Y-65922986D01*
X158799500Y-65974499D01*
X158799500Y-67158480D01*
X158779815Y-67225519D01*
X158763181Y-67246161D01*
X152093388Y-73915953D01*
X152093387Y-73915954D01*
X152016723Y-74030692D01*
X151963921Y-74158168D01*
X151963918Y-74158180D01*
X151952286Y-74216658D01*
X151952286Y-74216659D01*
X151937000Y-74293504D01*
X151937000Y-77573228D01*
X151917315Y-77640267D01*
X151882069Y-77674867D01*
X151882316Y-77675179D01*
X151879415Y-77677472D01*
X151878100Y-77678764D01*
X151876654Y-77679655D01*
X151876653Y-77679656D01*
X151754659Y-77801651D01*
X151664093Y-77948481D01*
X151664091Y-77948486D01*
X151636719Y-78031088D01*
X151609826Y-78112247D01*
X151609826Y-78112248D01*
X151609825Y-78112248D01*
X151599500Y-78213315D01*
X151599500Y-78786669D01*
X151599501Y-78786687D01*
X151609825Y-78887752D01*
X151646109Y-78997249D01*
X151664092Y-79051516D01*
X151754660Y-79198350D01*
X151876650Y-79320340D01*
X151878098Y-79321233D01*
X151878882Y-79322104D01*
X151882317Y-79324821D01*
X151881852Y-79325407D01*
X151884921Y-79328819D01*
X151894203Y-79333058D01*
X151907891Y-79354357D01*
X151924821Y-79373180D01*
X151927465Y-79384815D01*
X151931977Y-79391836D01*
X151937000Y-79426771D01*
X151937000Y-79573228D01*
X151917315Y-79640267D01*
X151882069Y-79674867D01*
X151882316Y-79675179D01*
X151879415Y-79677472D01*
X151878100Y-79678764D01*
X151876654Y-79679655D01*
X151876653Y-79679656D01*
X151754659Y-79801651D01*
X151664093Y-79948481D01*
X151664091Y-79948486D01*
X151647021Y-80000000D01*
X151609826Y-80112247D01*
X151609826Y-80112248D01*
X151609825Y-80112248D01*
X151599500Y-80213315D01*
X151599500Y-80786669D01*
X151599501Y-80786687D01*
X151609825Y-80887752D01*
X151619263Y-80916232D01*
X151664020Y-81051300D01*
X151664092Y-81051515D01*
X151664093Y-81051518D01*
X151683985Y-81083768D01*
X151754660Y-81198350D01*
X151876650Y-81320340D01*
X151878098Y-81321233D01*
X151878882Y-81322104D01*
X151882317Y-81324821D01*
X151881852Y-81325407D01*
X151924821Y-81373180D01*
X151937000Y-81426771D01*
X151937000Y-82046000D01*
X151928355Y-82075440D01*
X151921832Y-82105427D01*
X151918077Y-82110442D01*
X151917315Y-82113039D01*
X151900681Y-82133681D01*
X151770190Y-82264172D01*
X151708867Y-82297657D01*
X151682509Y-82300491D01*
X151123270Y-82300491D01*
X150969781Y-82331022D01*
X150969771Y-82331025D01*
X150825191Y-82390911D01*
X150825178Y-82390918D01*
X150695057Y-82477863D01*
X150695053Y-82477866D01*
X150584394Y-82588525D01*
X150584391Y-82588529D01*
X150497446Y-82718650D01*
X150497439Y-82718663D01*
X150437553Y-82863243D01*
X150437550Y-82863253D01*
X150407019Y-83016741D01*
X150407019Y-83016744D01*
X150407019Y-83173248D01*
X150407019Y-83173250D01*
X150407018Y-83173250D01*
X150437550Y-83326738D01*
X150437553Y-83326748D01*
X150497439Y-83471328D01*
X150497446Y-83471341D01*
X150584391Y-83601462D01*
X150584394Y-83601466D01*
X150625597Y-83642669D01*
X150659082Y-83703992D01*
X150654098Y-83773684D01*
X150625598Y-83818030D01*
X150584781Y-83858847D01*
X150497884Y-83988898D01*
X150445652Y-84114999D01*
X151806023Y-84114999D01*
X151873062Y-84134684D01*
X151918817Y-84187488D01*
X151930023Y-84238999D01*
X151930023Y-84490999D01*
X151910338Y-84558038D01*
X151857534Y-84603793D01*
X151806023Y-84614999D01*
X150445652Y-84614999D01*
X150497884Y-84741099D01*
X150584781Y-84871150D01*
X150625597Y-84911966D01*
X150659082Y-84973289D01*
X150654098Y-85042981D01*
X150625597Y-85087328D01*
X150584394Y-85128530D01*
X150584391Y-85128534D01*
X150497446Y-85258655D01*
X150497439Y-85258668D01*
X150437553Y-85403248D01*
X150437550Y-85403258D01*
X150407019Y-85556746D01*
X150407019Y-85713255D01*
X150435476Y-85856312D01*
X150429249Y-85925903D01*
X150386387Y-85981081D01*
X150320497Y-86004326D01*
X150313859Y-86004504D01*
X148879366Y-86004504D01*
X148812327Y-85984819D01*
X148791685Y-85968185D01*
X145647226Y-82823726D01*
X145613741Y-82762403D01*
X145617200Y-82697042D01*
X145664999Y-82552798D01*
X145675500Y-82450010D01*
X145675500Y-81449990D01*
X145664999Y-81347202D01*
X145609814Y-81180665D01*
X145517712Y-81031344D01*
X145393656Y-80907288D01*
X145244335Y-80815186D01*
X145085495Y-80762551D01*
X145028051Y-80722779D01*
X145001228Y-80658263D01*
X145000500Y-80644846D01*
X145000500Y-76872781D01*
X145020185Y-76805742D01*
X145026125Y-76797294D01*
X145166924Y-76613803D01*
X145247063Y-76474998D01*
X145298043Y-76386697D01*
X145398398Y-76144419D01*
X145466270Y-75891116D01*
X145500500Y-75631120D01*
X145500500Y-75368880D01*
X145466270Y-75108884D01*
X145398398Y-74855581D01*
X145385469Y-74824368D01*
X145298046Y-74613309D01*
X145298041Y-74613299D01*
X145166927Y-74386201D01*
X145095800Y-74293507D01*
X145026123Y-74202703D01*
X145000930Y-74137536D01*
X145000500Y-74127218D01*
X145000500Y-71474271D01*
X145020185Y-71407232D01*
X145072989Y-71361477D01*
X145081167Y-71358089D01*
X145217347Y-71307297D01*
X145217346Y-71307297D01*
X145217350Y-71307296D01*
X145332565Y-71221046D01*
X145418815Y-71105831D01*
X145469110Y-70970983D01*
X145475519Y-70911373D01*
X145475519Y-70624500D01*
X145495204Y-70557461D01*
X145548008Y-70511706D01*
X145599519Y-70500500D01*
X148162097Y-70500500D01*
X148395368Y-70463553D01*
X148619992Y-70390568D01*
X148830433Y-70283343D01*
X148836161Y-70279180D01*
X148901968Y-70255702D01*
X148909045Y-70255500D01*
X149049984Y-70255500D01*
X149050000Y-70255500D01*
X149113522Y-70251493D01*
X149113526Y-70251492D01*
X149113527Y-70251492D01*
X149138312Y-70244664D01*
X149142566Y-70243492D01*
X149212425Y-70244664D01*
X149270562Y-70283418D01*
X149298517Y-70347452D01*
X149299500Y-70363038D01*
X149299500Y-72003838D01*
X149297932Y-72009177D01*
X149299029Y-72014633D01*
X149288195Y-72042337D01*
X149279815Y-72070877D01*
X149275075Y-72075888D01*
X149273583Y-72079704D01*
X149259392Y-72092469D01*
X149248236Y-72104264D01*
X149244503Y-72106967D01*
X149126650Y-72179660D01*
X149080714Y-72225595D01*
X149072736Y-72231374D01*
X149048723Y-72239901D01*
X149026358Y-72252114D01*
X149016349Y-72251398D01*
X149006895Y-72254756D01*
X148982084Y-72248947D01*
X148956666Y-72247130D01*
X148946551Y-72240629D01*
X148938865Y-72238830D01*
X148930799Y-72230505D01*
X148912319Y-72218629D01*
X148873351Y-72179661D01*
X148873350Y-72179660D01*
X148726516Y-72089092D01*
X148562753Y-72034826D01*
X148562751Y-72034825D01*
X148461678Y-72024500D01*
X147788330Y-72024500D01*
X147788312Y-72024501D01*
X147687247Y-72034825D01*
X147523484Y-72089092D01*
X147523481Y-72089093D01*
X147376648Y-72179661D01*
X147254661Y-72301648D01*
X147164093Y-72448481D01*
X147164092Y-72448484D01*
X147109826Y-72612247D01*
X147109826Y-72612248D01*
X147109825Y-72612248D01*
X147099500Y-72713315D01*
X147099500Y-73286669D01*
X147099501Y-73286687D01*
X147109825Y-73387752D01*
X147146109Y-73497249D01*
X147164092Y-73551516D01*
X147254660Y-73698350D01*
X147376650Y-73820340D01*
X147376656Y-73820343D01*
X147377405Y-73820936D01*
X147377790Y-73821480D01*
X147381757Y-73825447D01*
X147381079Y-73826124D01*
X147417785Y-73877956D01*
X147424500Y-73918207D01*
X147424500Y-74581792D01*
X147404815Y-74648831D01*
X147381619Y-74674415D01*
X147381757Y-74674553D01*
X147378941Y-74677368D01*
X147377407Y-74679061D01*
X147376652Y-74679657D01*
X147254659Y-74801651D01*
X147164093Y-74948481D01*
X147164091Y-74948486D01*
X147136719Y-75031088D01*
X147109826Y-75112247D01*
X147109826Y-75112248D01*
X147109825Y-75112248D01*
X147099500Y-75213315D01*
X147099500Y-75786669D01*
X147099501Y-75786687D01*
X147109825Y-75887752D01*
X147110940Y-75891116D01*
X147164092Y-76051516D01*
X147254660Y-76198350D01*
X147376650Y-76320340D01*
X147523484Y-76410908D01*
X147687247Y-76465174D01*
X147788323Y-76475500D01*
X148386676Y-76475499D01*
X148386684Y-76475498D01*
X148386687Y-76475498D01*
X148442030Y-76469844D01*
X148487753Y-76465174D01*
X148651516Y-76410908D01*
X148798350Y-76320340D01*
X148912675Y-76206014D01*
X148973994Y-76172532D01*
X149043686Y-76177516D01*
X149088034Y-76206017D01*
X149201961Y-76319944D01*
X149201965Y-76319947D01*
X149348688Y-76410448D01*
X149348699Y-76410453D01*
X149512347Y-76464680D01*
X149613351Y-76474999D01*
X150162500Y-76474999D01*
X150211640Y-76474999D01*
X150211654Y-76474998D01*
X150312652Y-76464680D01*
X150476300Y-76410453D01*
X150476311Y-76410448D01*
X150623034Y-76319947D01*
X150623038Y-76319944D01*
X150744944Y-76198038D01*
X150744947Y-76198034D01*
X150835448Y-76051311D01*
X150835453Y-76051300D01*
X150889680Y-75887652D01*
X150899999Y-75786654D01*
X150900000Y-75786641D01*
X150900000Y-75750000D01*
X150162500Y-75750000D01*
X150162500Y-76474999D01*
X149613351Y-76474999D01*
X149662499Y-76474998D01*
X149662500Y-76474998D01*
X149662500Y-75250000D01*
X150162500Y-75250000D01*
X150899999Y-75250000D01*
X150899999Y-75213360D01*
X150899998Y-75213345D01*
X150889680Y-75112347D01*
X150835453Y-74948699D01*
X150835448Y-74948688D01*
X150744947Y-74801965D01*
X150744944Y-74801961D01*
X150623038Y-74680055D01*
X150623034Y-74680052D01*
X150476311Y-74589551D01*
X150476300Y-74589546D01*
X150312652Y-74535319D01*
X150211654Y-74525000D01*
X150162500Y-74525000D01*
X150162500Y-75250000D01*
X149662500Y-75250000D01*
X149662500Y-74525000D01*
X149662499Y-74524999D01*
X149613361Y-74525000D01*
X149613343Y-74525001D01*
X149512347Y-74535319D01*
X149348699Y-74589546D01*
X149348688Y-74589551D01*
X149201965Y-74680052D01*
X149088034Y-74793983D01*
X149080087Y-74798322D01*
X149074663Y-74805568D01*
X149049905Y-74814802D01*
X149026711Y-74827467D01*
X149017681Y-74826821D01*
X149009199Y-74829985D01*
X148983378Y-74824368D01*
X148957019Y-74822483D01*
X148947965Y-74816664D01*
X148940926Y-74815133D01*
X148912672Y-74793982D01*
X148861819Y-74743129D01*
X148828334Y-74681806D01*
X148825500Y-74655448D01*
X148825500Y-73918207D01*
X148845185Y-73851168D01*
X148868380Y-73825584D01*
X148868243Y-73825447D01*
X148871050Y-73822639D01*
X148872595Y-73820936D01*
X148873339Y-73820346D01*
X148873350Y-73820340D01*
X148912319Y-73781371D01*
X148973642Y-73747886D01*
X149043334Y-73752870D01*
X149087681Y-73781371D01*
X149126650Y-73820340D01*
X149273484Y-73910908D01*
X149437247Y-73965174D01*
X149538323Y-73975500D01*
X150211676Y-73975499D01*
X150211684Y-73975498D01*
X150211687Y-73975498D01*
X150267030Y-73969844D01*
X150312753Y-73965174D01*
X150476516Y-73910908D01*
X150623350Y-73820340D01*
X150745340Y-73698350D01*
X150835908Y-73551516D01*
X150890174Y-73387753D01*
X150900500Y-73286677D01*
X150900499Y-72713324D01*
X150890174Y-72612247D01*
X150835908Y-72448484D01*
X150745340Y-72301650D01*
X150736819Y-72293129D01*
X150703334Y-72231806D01*
X150700500Y-72205448D01*
X150700500Y-70283628D01*
X150720185Y-70216589D01*
X150757461Y-70179313D01*
X150831027Y-70132034D01*
X150831026Y-70132034D01*
X150831032Y-70132031D01*
X150925254Y-70023294D01*
X150985024Y-69892416D01*
X151005500Y-69750000D01*
X151005500Y-68250000D01*
X151000355Y-68178060D01*
X150959819Y-68040008D01*
X150899754Y-67946545D01*
X150882032Y-67918969D01*
X150882028Y-67918965D01*
X150773299Y-67824750D01*
X150773297Y-67824748D01*
X150773294Y-67824746D01*
X150753344Y-67815635D01*
X150642419Y-67764976D01*
X150642414Y-67764975D01*
X150500000Y-67744500D01*
X149350000Y-67744500D01*
X149349978Y-67744500D01*
X149269669Y-67750923D01*
X149269658Y-67750925D01*
X149241253Y-67759787D01*
X149186680Y-67764151D01*
X149050000Y-67744500D01*
X148909045Y-67744500D01*
X148842006Y-67724815D01*
X148836161Y-67720819D01*
X148830433Y-67716657D01*
X148791020Y-67696575D01*
X148619996Y-67609433D01*
X148395368Y-67536446D01*
X148162097Y-67499500D01*
X148162092Y-67499500D01*
X145365216Y-67499500D01*
X145298177Y-67479815D01*
X145290905Y-67474767D01*
X145217350Y-67419704D01*
X145217347Y-67419702D01*
X145082501Y-67369408D01*
X145082502Y-67369408D01*
X145022902Y-67363001D01*
X145022900Y-67363000D01*
X145022892Y-67363000D01*
X145022883Y-67363000D01*
X142427148Y-67363000D01*
X142427142Y-67363001D01*
X142367535Y-67369408D01*
X142232690Y-67419702D01*
X142232683Y-67419706D01*
X142117474Y-67505952D01*
X142117471Y-67505955D01*
X142031225Y-67621164D01*
X142031221Y-67621171D01*
X141980927Y-67756017D01*
X141974520Y-67815616D01*
X141974519Y-67815635D01*
X141974519Y-70911370D01*
X141974520Y-70911376D01*
X141980927Y-70970981D01*
X141991682Y-70999815D01*
X141999500Y-71043149D01*
X141999500Y-74127218D01*
X141979815Y-74194257D01*
X141973882Y-74202695D01*
X141917697Y-74275916D01*
X141833072Y-74386201D01*
X141701958Y-74613299D01*
X141701953Y-74613309D01*
X141601605Y-74855571D01*
X141601602Y-74855581D01*
X141533730Y-75108885D01*
X141499500Y-75368872D01*
X141499500Y-75631127D01*
X141515151Y-75750000D01*
X141533730Y-75891116D01*
X141601602Y-76144418D01*
X141601605Y-76144428D01*
X141701953Y-76386690D01*
X141701958Y-76386700D01*
X141833075Y-76613803D01*
X141973875Y-76797294D01*
X141999070Y-76862463D01*
X141999500Y-76872781D01*
X141999500Y-80644846D01*
X141979815Y-80711885D01*
X141927011Y-80757640D01*
X141914506Y-80762551D01*
X141870155Y-80777247D01*
X141755667Y-80815185D01*
X141755662Y-80815187D01*
X141606342Y-80907289D01*
X141482289Y-81031342D01*
X141390187Y-81180662D01*
X141390185Y-81180667D01*
X141384325Y-81198351D01*
X141335001Y-81347202D01*
X141335001Y-81347203D01*
X141335000Y-81347203D01*
X141324500Y-81449982D01*
X141324500Y-82450017D01*
X141335000Y-82552796D01*
X141352689Y-82606176D01*
X141390186Y-82719335D01*
X141482288Y-82868656D01*
X141606344Y-82992712D01*
X141755665Y-83084814D01*
X141922202Y-83139999D01*
X142024990Y-83150500D01*
X142559253Y-83150500D01*
X142626292Y-83170185D01*
X142632138Y-83174182D01*
X142703963Y-83226365D01*
X142713567Y-83233343D01*
X142818241Y-83286677D01*
X142924003Y-83340566D01*
X142924005Y-83340566D01*
X142924008Y-83340568D01*
X143044412Y-83379689D01*
X143148631Y-83413553D01*
X143381903Y-83450500D01*
X143381908Y-83450500D01*
X143618087Y-83450500D01*
X143618092Y-83450500D01*
X143649706Y-83445492D01*
X143718996Y-83454445D01*
X143756784Y-83480284D01*
X147880964Y-87604465D01*
X147880968Y-87604468D01*
X148028450Y-87703013D01*
X148028459Y-87703018D01*
X148061387Y-87716657D01*
X148192338Y-87770899D01*
X148366307Y-87805503D01*
X148366311Y-87805504D01*
X148366312Y-87805504D01*
X152018716Y-87805504D01*
X152018717Y-87805503D01*
X152111448Y-87787058D01*
X152192681Y-87770900D01*
X152192684Y-87770898D01*
X152192689Y-87770898D01*
X152323640Y-87716657D01*
X152342252Y-87708948D01*
X152389704Y-87699509D01*
X152736776Y-87699509D01*
X152874671Y-87672079D01*
X152944263Y-87678306D01*
X152999440Y-87721169D01*
X153022685Y-87787058D01*
X153006618Y-87855055D01*
X152986544Y-87881377D01*
X152704741Y-88163181D01*
X152643418Y-88196666D01*
X152617060Y-88199500D01*
X145799500Y-88199500D01*
X145732461Y-88179815D01*
X145686706Y-88127011D01*
X145675500Y-88075500D01*
X145675500Y-87549995D01*
X145675499Y-87549982D01*
X145670153Y-87497657D01*
X145664999Y-87447202D01*
X145609814Y-87280665D01*
X145517712Y-87131344D01*
X145393656Y-87007288D01*
X145244335Y-86915186D01*
X145077798Y-86860001D01*
X145077796Y-86860000D01*
X144975017Y-86849500D01*
X144975010Y-86849500D01*
X144440747Y-86849500D01*
X144373708Y-86829815D01*
X144367862Y-86825818D01*
X144286436Y-86766659D01*
X144286435Y-86766658D01*
X144286433Y-86766657D01*
X144156593Y-86700500D01*
X144075996Y-86659433D01*
X143851368Y-86586446D01*
X143618097Y-86549500D01*
X143618092Y-86549500D01*
X143381908Y-86549500D01*
X143381903Y-86549500D01*
X143148634Y-86586446D01*
X142924005Y-86659433D01*
X142713562Y-86766659D01*
X142632137Y-86825818D01*
X142566331Y-86849298D01*
X142559252Y-86849500D01*
X142024982Y-86849500D01*
X141922203Y-86860000D01*
X141922202Y-86860001D01*
X141839669Y-86887349D01*
X141755667Y-86915185D01*
X141755662Y-86915187D01*
X141606342Y-87007289D01*
X141482289Y-87131342D01*
X141426620Y-87221597D01*
X141374672Y-87268321D01*
X141321081Y-87280500D01*
X133100903Y-87280500D01*
X132867631Y-87317446D01*
X132643003Y-87390433D01*
X132432566Y-87497657D01*
X132379177Y-87536447D01*
X132241490Y-87636483D01*
X132241488Y-87636485D01*
X132241487Y-87636485D01*
X130909691Y-88968281D01*
X130848368Y-89001766D01*
X130838196Y-89003539D01*
X130643972Y-89029110D01*
X130608884Y-89033730D01*
X130355581Y-89101602D01*
X130355571Y-89101605D01*
X130113309Y-89201953D01*
X130113299Y-89201958D01*
X129886196Y-89333075D01*
X129678148Y-89492718D01*
X129492718Y-89678148D01*
X129333075Y-89886196D01*
X129201958Y-90113299D01*
X129201953Y-90113309D01*
X129101605Y-90355571D01*
X129101602Y-90355581D01*
X129086113Y-90413389D01*
X129033730Y-90608885D01*
X128999500Y-90868872D01*
X127500500Y-90868872D01*
X127500500Y-83579917D01*
X129773633Y-83579917D01*
X129773633Y-83579918D01*
X129886475Y-83666505D01*
X129886483Y-83666511D01*
X130113517Y-83797590D01*
X130113528Y-83797595D01*
X130355744Y-83897924D01*
X130608979Y-83965777D01*
X130608990Y-83965779D01*
X130868905Y-83999999D01*
X130868920Y-84000000D01*
X131131080Y-84000000D01*
X131131094Y-83999999D01*
X131391009Y-83965779D01*
X131391020Y-83965777D01*
X131644255Y-83897924D01*
X131886471Y-83797595D01*
X131886482Y-83797590D01*
X132113516Y-83666511D01*
X132113534Y-83666499D01*
X132226365Y-83579919D01*
X132226365Y-83579917D01*
X131000000Y-82353553D01*
X129773633Y-83579917D01*
X127500500Y-83579917D01*
X127500500Y-81868905D01*
X129000000Y-81868905D01*
X129000000Y-82131094D01*
X129034220Y-82391009D01*
X129034222Y-82391020D01*
X129102075Y-82644255D01*
X129202404Y-82886471D01*
X129202409Y-82886482D01*
X129333488Y-83113516D01*
X129333494Y-83113524D01*
X129420080Y-83226365D01*
X130646446Y-82000000D01*
X130646446Y-81999999D01*
X130646445Y-81999998D01*
X131353553Y-81999998D01*
X131353553Y-82000001D01*
X132579917Y-83226365D01*
X132579919Y-83226365D01*
X132666499Y-83113534D01*
X132666511Y-83113516D01*
X132797590Y-82886482D01*
X132797595Y-82886471D01*
X132897924Y-82644255D01*
X132965777Y-82391020D01*
X132965779Y-82391009D01*
X132999999Y-82131094D01*
X133000000Y-82131080D01*
X133000000Y-81868919D01*
X132999999Y-81868905D01*
X132965779Y-81608990D01*
X132965777Y-81608979D01*
X132897924Y-81355744D01*
X132797595Y-81113528D01*
X132797590Y-81113517D01*
X132666511Y-80886483D01*
X132666505Y-80886475D01*
X132579918Y-80773633D01*
X132579917Y-80773633D01*
X131353553Y-81999998D01*
X130646445Y-81999998D01*
X129420080Y-80773633D01*
X129420079Y-80773633D01*
X129333496Y-80886471D01*
X129202409Y-81113517D01*
X129202404Y-81113528D01*
X129102075Y-81355744D01*
X129034222Y-81608979D01*
X129034220Y-81608990D01*
X129000000Y-81868905D01*
X127500500Y-81868905D01*
X127500500Y-80420079D01*
X129773633Y-80420079D01*
X129773633Y-80420080D01*
X130999999Y-81646446D01*
X132226365Y-80420080D01*
X132113524Y-80333494D01*
X132113516Y-80333488D01*
X131886482Y-80202409D01*
X131886471Y-80202404D01*
X131644255Y-80102075D01*
X131391020Y-80034222D01*
X131391009Y-80034220D01*
X131131094Y-80000000D01*
X130868905Y-80000000D01*
X130608990Y-80034220D01*
X130608979Y-80034222D01*
X130355744Y-80102075D01*
X130113528Y-80202404D01*
X130113517Y-80202409D01*
X129886471Y-80333496D01*
X129773633Y-80420079D01*
X127500500Y-80420079D01*
X127500500Y-75368872D01*
X128999500Y-75368872D01*
X128999500Y-75631127D01*
X129015151Y-75750000D01*
X129033730Y-75891116D01*
X129101602Y-76144418D01*
X129101605Y-76144428D01*
X129201953Y-76386690D01*
X129201958Y-76386700D01*
X129333075Y-76613803D01*
X129492718Y-76821851D01*
X129492726Y-76821860D01*
X129678140Y-77007274D01*
X129678148Y-77007281D01*
X129678149Y-77007282D01*
X129726554Y-77044424D01*
X129886196Y-77166924D01*
X130113299Y-77298041D01*
X130113309Y-77298046D01*
X130355571Y-77398394D01*
X130355581Y-77398398D01*
X130608884Y-77466270D01*
X130868880Y-77500500D01*
X130868887Y-77500500D01*
X131131113Y-77500500D01*
X131131120Y-77500500D01*
X131391116Y-77466270D01*
X131644419Y-77398398D01*
X131886697Y-77298043D01*
X132113803Y-77166924D01*
X132297295Y-77026124D01*
X132362463Y-77000930D01*
X132372781Y-77000500D01*
X133006591Y-77000500D01*
X133239862Y-76963553D01*
X133464486Y-76890568D01*
X133674928Y-76783343D01*
X133866004Y-76644517D01*
X139115305Y-71395216D01*
X139176626Y-71361733D01*
X139186791Y-71359961D01*
X139416110Y-71329770D01*
X139669413Y-71261898D01*
X139911691Y-71161543D01*
X140138797Y-71030424D01*
X140346845Y-70870782D01*
X140346849Y-70870777D01*
X140346854Y-70870774D01*
X140532268Y-70685360D01*
X140532271Y-70685355D01*
X140532276Y-70685351D01*
X140691918Y-70477303D01*
X140823037Y-70250197D01*
X140923392Y-70007919D01*
X140991264Y-69754616D01*
X141025494Y-69494620D01*
X141025494Y-69232380D01*
X140991264Y-68972384D01*
X140923392Y-68719081D01*
X140923388Y-68719071D01*
X140823040Y-68476809D01*
X140823035Y-68476799D01*
X140691918Y-68249696D01*
X140532275Y-68041648D01*
X140532268Y-68041640D01*
X140346854Y-67856226D01*
X140346845Y-67856218D01*
X140138797Y-67696575D01*
X139911694Y-67565458D01*
X139911684Y-67565453D01*
X139669422Y-67465105D01*
X139669415Y-67465103D01*
X139669413Y-67465102D01*
X139416110Y-67397230D01*
X139358333Y-67389623D01*
X139156121Y-67363000D01*
X139156114Y-67363000D01*
X138893874Y-67363000D01*
X138893866Y-67363000D01*
X138662766Y-67393426D01*
X138633878Y-67397230D01*
X138507824Y-67431006D01*
X138380575Y-67465102D01*
X138380565Y-67465105D01*
X138138303Y-67565453D01*
X138138293Y-67565458D01*
X137911190Y-67696575D01*
X137703142Y-67856218D01*
X137517712Y-68041648D01*
X137358069Y-68249696D01*
X137226952Y-68476799D01*
X137226947Y-68476809D01*
X137126599Y-68719071D01*
X137126596Y-68719081D01*
X137058724Y-68972385D01*
X137028533Y-69201695D01*
X137000266Y-69265592D01*
X136993275Y-69273190D01*
X136516092Y-69750373D01*
X136454769Y-69783858D01*
X136385077Y-69778874D01*
X136329144Y-69737002D01*
X136304727Y-69671538D01*
X136305472Y-69646506D01*
X136308128Y-69626337D01*
X136325469Y-69494620D01*
X136325469Y-69232380D01*
X136291239Y-68972384D01*
X136223367Y-68719081D01*
X136223363Y-68719071D01*
X136123015Y-68476809D01*
X136123010Y-68476799D01*
X135991893Y-68249696D01*
X135832250Y-68041648D01*
X135832243Y-68041640D01*
X135646829Y-67856226D01*
X135646820Y-67856218D01*
X135438772Y-67696575D01*
X135211669Y-67565458D01*
X135211659Y-67565453D01*
X134969397Y-67465105D01*
X134969390Y-67465103D01*
X134969388Y-67465102D01*
X134716085Y-67397230D01*
X134658308Y-67389623D01*
X134456096Y-67363000D01*
X134456089Y-67363000D01*
X134193849Y-67363000D01*
X134193841Y-67363000D01*
X133962741Y-67393426D01*
X133933853Y-67397230D01*
X133807799Y-67431006D01*
X133680550Y-67465102D01*
X133680540Y-67465105D01*
X133438278Y-67565453D01*
X133438268Y-67565458D01*
X133211165Y-67696575D01*
X133003117Y-67856218D01*
X132817687Y-68041648D01*
X132658044Y-68249696D01*
X132526927Y-68476799D01*
X132526922Y-68476809D01*
X132426574Y-68719071D01*
X132426571Y-68719081D01*
X132358699Y-68972385D01*
X132324469Y-69232372D01*
X132324469Y-69494627D01*
X132344528Y-69646979D01*
X132358699Y-69754616D01*
X132395623Y-69892419D01*
X132426571Y-70007918D01*
X132426574Y-70007928D01*
X132526922Y-70250190D01*
X132526927Y-70250200D01*
X132658044Y-70477303D01*
X132817687Y-70685351D01*
X132817695Y-70685360D01*
X133003109Y-70870774D01*
X133003117Y-70870781D01*
X133211165Y-71030424D01*
X133438268Y-71161541D01*
X133438278Y-71161546D01*
X133680540Y-71261894D01*
X133680550Y-71261898D01*
X133933853Y-71329770D01*
X134193849Y-71364000D01*
X134193856Y-71364000D01*
X134456082Y-71364000D01*
X134456089Y-71364000D01*
X134607975Y-71344003D01*
X134677009Y-71354768D01*
X134729265Y-71401148D01*
X134748151Y-71468417D01*
X134727671Y-71535217D01*
X134711841Y-71554623D01*
X132371527Y-73894938D01*
X132310204Y-73928423D01*
X132240512Y-73923439D01*
X132208359Y-73905632D01*
X132113803Y-73833075D01*
X131886700Y-73701958D01*
X131886690Y-73701953D01*
X131644428Y-73601605D01*
X131644421Y-73601603D01*
X131644419Y-73601602D01*
X131391116Y-73533730D01*
X131333339Y-73526123D01*
X131131127Y-73499500D01*
X131131120Y-73499500D01*
X130868880Y-73499500D01*
X130868872Y-73499500D01*
X130637772Y-73529926D01*
X130608884Y-73533730D01*
X130355581Y-73601602D01*
X130355571Y-73601605D01*
X130113309Y-73701953D01*
X130113299Y-73701958D01*
X129886196Y-73833075D01*
X129678148Y-73992718D01*
X129492718Y-74178148D01*
X129333075Y-74386196D01*
X129201958Y-74613299D01*
X129201953Y-74613309D01*
X129101605Y-74855571D01*
X129101602Y-74855581D01*
X129033730Y-75108885D01*
X128999500Y-75368872D01*
X127500500Y-75368872D01*
X127500500Y-62003750D01*
X127500726Y-61996263D01*
X127518271Y-61706205D01*
X127520076Y-61691340D01*
X127571780Y-61409201D01*
X127575364Y-61394663D01*
X127652096Y-61148422D01*
X127660696Y-61120822D01*
X127665998Y-61106841D01*
X127783731Y-60845249D01*
X127790676Y-60832016D01*
X127939080Y-60586526D01*
X127947567Y-60574230D01*
X128124480Y-60348417D01*
X128134395Y-60337226D01*
X128337226Y-60134395D01*
X128348417Y-60124480D01*
X128574230Y-59947567D01*
X128586526Y-59939080D01*
X128832016Y-59790676D01*
X128845249Y-59783731D01*
X129106841Y-59665998D01*
X129120822Y-59660696D01*
X129394668Y-59575362D01*
X129409197Y-59571780D01*
X129691344Y-59520075D01*
X129706201Y-59518271D01*
X129996264Y-59500726D01*
X130003751Y-59500500D01*
X130065892Y-59500500D01*
X182934108Y-59500500D01*
X182996249Y-59500500D01*
X183003736Y-59500726D01*
G37*
%TD.AperFunction*%
%TD*%
M02*
