%TF.GenerationSoftware,KiCad,Pcbnew,9.0.7*%
%TF.CreationDate,2026-03-31T00:01:03+02:00*%
%TF.ProjectId,KHNATH002_Power_System,4b484e41-5448-4303-9032-5f506f776572,rev?*%
%TF.SameCoordinates,Original*%
%TF.FileFunction,Legend,Top*%
%TF.FilePolarity,Positive*%
%FSLAX46Y46*%
G04 Gerber Fmt 4.6, Leading zero omitted, Abs format (unit mm)*
G04 Created by KiCad (PCBNEW 9.0.7) date 2026-03-31 00:01:03*
%MOMM*%
%LPD*%
G01*
G04 APERTURE LIST*
G04 Aperture macros list*
%AMRoundRect*
0 Rectangle with rounded corners*
0 $1 Rounding radius*
0 $2 $3 $4 $5 $6 $7 $8 $9 X,Y pos of 4 corners*
0 Add a 4 corners polygon primitive as box body*
4,1,4,$2,$3,$4,$5,$6,$7,$8,$9,$2,$3,0*
0 Add four circle primitives for the rounded corners*
1,1,$1+$1,$2,$3*
1,1,$1+$1,$4,$5*
1,1,$1+$1,$6,$7*
1,1,$1+$1,$8,$9*
0 Add four rect primitives between the rounded corners*
20,1,$1+$1,$2,$3,$4,$5,0*
20,1,$1+$1,$4,$5,$6,$7,0*
20,1,$1+$1,$6,$7,$8,$9,0*
20,1,$1+$1,$8,$9,$2,$3,0*%
%AMFreePoly0*
4,1,23,0.500000,-0.750000,0.000000,-0.750000,0.000000,-0.745722,-0.065263,-0.745722,-0.191342,-0.711940,-0.304381,-0.646677,-0.396677,-0.554381,-0.461940,-0.441342,-0.495722,-0.315263,-0.495722,-0.250000,-0.500000,-0.250000,-0.500000,0.250000,-0.495722,0.250000,-0.495722,0.315263,-0.461940,0.441342,-0.396677,0.554381,-0.304381,0.646677,-0.191342,0.711940,-0.065263,0.745722,0.000000,0.745722,
0.000000,0.750000,0.500000,0.750000,0.500000,-0.750000,0.500000,-0.750000,$1*%
%AMFreePoly1*
4,1,23,0.000000,0.745722,0.065263,0.745722,0.191342,0.711940,0.304381,0.646677,0.396677,0.554381,0.461940,0.441342,0.495722,0.315263,0.495722,0.250000,0.500000,0.250000,0.500000,-0.250000,0.495722,-0.250000,0.495722,-0.315263,0.461940,-0.441342,0.396677,-0.554381,0.304381,-0.646677,0.191342,-0.711940,0.065263,-0.745722,0.000000,-0.745722,0.000000,-0.750000,-0.500000,-0.750000,
-0.500000,0.750000,0.000000,0.750000,0.000000,0.745722,0.000000,0.745722,$1*%
%AMFreePoly2*
4,1,6,1.000000,0.000000,0.500000,-0.750000,-0.500000,-0.750000,-0.500000,0.750000,0.500000,0.750000,1.000000,0.000000,1.000000,0.000000,$1*%
%AMFreePoly3*
4,1,6,0.500000,-0.750000,-0.650000,-0.750000,-0.150000,0.000000,-0.650000,0.750000,0.500000,0.750000,0.500000,-0.750000,0.500000,-0.750000,$1*%
G04 Aperture macros list end*
%ADD10C,0.100000*%
%ADD11C,0.150000*%
%ADD12C,0.152400*%
%ADD13C,0.120000*%
%ADD14C,0.254001*%
%ADD15C,0.300000*%
%ADD16R,2.000000X2.000000*%
%ADD17R,3.610008X1.259995*%
%ADD18R,5.400000X2.900000*%
%ADD19R,1.300000X0.600000*%
%ADD20R,2.500000X3.500000*%
%ADD21C,2.000000*%
%ADD22RoundRect,0.237500X0.250000X0.237500X-0.250000X0.237500X-0.250000X-0.237500X0.250000X-0.237500X0*%
%ADD23FreePoly0,0.000000*%
%ADD24FreePoly1,0.000000*%
%ADD25R,1.700000X1.700000*%
%ADD26C,1.700000*%
%ADD27RoundRect,0.237500X0.237500X-0.300000X0.237500X0.300000X-0.237500X0.300000X-0.237500X-0.300000X0*%
%ADD28FreePoly2,0.000000*%
%ADD29FreePoly3,0.000000*%
%ADD30R,2.500000X3.000000*%
%ADD31C,3.000000*%
%ADD32RoundRect,0.249999X-1.425001X0.450001X-1.425001X-0.450001X1.425001X-0.450001X1.425001X0.450001X0*%
%ADD33O,2.045009X0.588011*%
%ADD34RoundRect,0.237500X-0.300000X-0.237500X0.300000X-0.237500X0.300000X0.237500X-0.300000X0.237500X0*%
%ADD35RoundRect,0.237500X-0.250000X-0.237500X0.250000X-0.237500X0.250000X0.237500X-0.250000X0.237500X0*%
%ADD36RoundRect,0.237500X-0.287500X-0.237500X0.287500X-0.237500X0.287500X0.237500X-0.287500X0.237500X0*%
G04 APERTURE END LIST*
D10*
X170803884Y-73372419D02*
X170803884Y-72372419D01*
X171232455Y-72467657D02*
X171280074Y-72420038D01*
X171280074Y-72420038D02*
X171375312Y-72372419D01*
X171375312Y-72372419D02*
X171613407Y-72372419D01*
X171613407Y-72372419D02*
X171708645Y-72420038D01*
X171708645Y-72420038D02*
X171756264Y-72467657D01*
X171756264Y-72467657D02*
X171803883Y-72562895D01*
X171803883Y-72562895D02*
X171803883Y-72658133D01*
X171803883Y-72658133D02*
X171756264Y-72800990D01*
X171756264Y-72800990D02*
X171184836Y-73372419D01*
X171184836Y-73372419D02*
X171803883Y-73372419D01*
X172803883Y-73277180D02*
X172756264Y-73324800D01*
X172756264Y-73324800D02*
X172613407Y-73372419D01*
X172613407Y-73372419D02*
X172518169Y-73372419D01*
X172518169Y-73372419D02*
X172375312Y-73324800D01*
X172375312Y-73324800D02*
X172280074Y-73229561D01*
X172280074Y-73229561D02*
X172232455Y-73134323D01*
X172232455Y-73134323D02*
X172184836Y-72943847D01*
X172184836Y-72943847D02*
X172184836Y-72800990D01*
X172184836Y-72800990D02*
X172232455Y-72610514D01*
X172232455Y-72610514D02*
X172280074Y-72515276D01*
X172280074Y-72515276D02*
X172375312Y-72420038D01*
X172375312Y-72420038D02*
X172518169Y-72372419D01*
X172518169Y-72372419D02*
X172613407Y-72372419D01*
X172613407Y-72372419D02*
X172756264Y-72420038D01*
X172756264Y-72420038D02*
X172803883Y-72467657D01*
X168256265Y-67324800D02*
X168399122Y-67372419D01*
X168399122Y-67372419D02*
X168637217Y-67372419D01*
X168637217Y-67372419D02*
X168732455Y-67324800D01*
X168732455Y-67324800D02*
X168780074Y-67277180D01*
X168780074Y-67277180D02*
X168827693Y-67181942D01*
X168827693Y-67181942D02*
X168827693Y-67086704D01*
X168827693Y-67086704D02*
X168780074Y-66991466D01*
X168780074Y-66991466D02*
X168732455Y-66943847D01*
X168732455Y-66943847D02*
X168637217Y-66896228D01*
X168637217Y-66896228D02*
X168446741Y-66848609D01*
X168446741Y-66848609D02*
X168351503Y-66800990D01*
X168351503Y-66800990D02*
X168303884Y-66753371D01*
X168303884Y-66753371D02*
X168256265Y-66658133D01*
X168256265Y-66658133D02*
X168256265Y-66562895D01*
X168256265Y-66562895D02*
X168303884Y-66467657D01*
X168303884Y-66467657D02*
X168351503Y-66420038D01*
X168351503Y-66420038D02*
X168446741Y-66372419D01*
X168446741Y-66372419D02*
X168684836Y-66372419D01*
X168684836Y-66372419D02*
X168827693Y-66420038D01*
X169256265Y-67372419D02*
X169256265Y-66372419D01*
X169256265Y-66372419D02*
X169494360Y-66372419D01*
X169494360Y-66372419D02*
X169637217Y-66420038D01*
X169637217Y-66420038D02*
X169732455Y-66515276D01*
X169732455Y-66515276D02*
X169780074Y-66610514D01*
X169780074Y-66610514D02*
X169827693Y-66800990D01*
X169827693Y-66800990D02*
X169827693Y-66943847D01*
X169827693Y-66943847D02*
X169780074Y-67134323D01*
X169780074Y-67134323D02*
X169732455Y-67229561D01*
X169732455Y-67229561D02*
X169637217Y-67324800D01*
X169637217Y-67324800D02*
X169494360Y-67372419D01*
X169494360Y-67372419D02*
X169256265Y-67372419D01*
X170208646Y-67086704D02*
X170684836Y-67086704D01*
X170113408Y-67372419D02*
X170446741Y-66372419D01*
X170446741Y-66372419D02*
X170780074Y-67372419D01*
X168256265Y-64229800D02*
X168399122Y-64277419D01*
X168399122Y-64277419D02*
X168637217Y-64277419D01*
X168637217Y-64277419D02*
X168732455Y-64229800D01*
X168732455Y-64229800D02*
X168780074Y-64182180D01*
X168780074Y-64182180D02*
X168827693Y-64086942D01*
X168827693Y-64086942D02*
X168827693Y-63991704D01*
X168827693Y-63991704D02*
X168780074Y-63896466D01*
X168780074Y-63896466D02*
X168732455Y-63848847D01*
X168732455Y-63848847D02*
X168637217Y-63801228D01*
X168637217Y-63801228D02*
X168446741Y-63753609D01*
X168446741Y-63753609D02*
X168351503Y-63705990D01*
X168351503Y-63705990D02*
X168303884Y-63658371D01*
X168303884Y-63658371D02*
X168256265Y-63563133D01*
X168256265Y-63563133D02*
X168256265Y-63467895D01*
X168256265Y-63467895D02*
X168303884Y-63372657D01*
X168303884Y-63372657D02*
X168351503Y-63325038D01*
X168351503Y-63325038D02*
X168446741Y-63277419D01*
X168446741Y-63277419D02*
X168684836Y-63277419D01*
X168684836Y-63277419D02*
X168827693Y-63325038D01*
X169827693Y-64182180D02*
X169780074Y-64229800D01*
X169780074Y-64229800D02*
X169637217Y-64277419D01*
X169637217Y-64277419D02*
X169541979Y-64277419D01*
X169541979Y-64277419D02*
X169399122Y-64229800D01*
X169399122Y-64229800D02*
X169303884Y-64134561D01*
X169303884Y-64134561D02*
X169256265Y-64039323D01*
X169256265Y-64039323D02*
X169208646Y-63848847D01*
X169208646Y-63848847D02*
X169208646Y-63705990D01*
X169208646Y-63705990D02*
X169256265Y-63515514D01*
X169256265Y-63515514D02*
X169303884Y-63420276D01*
X169303884Y-63420276D02*
X169399122Y-63325038D01*
X169399122Y-63325038D02*
X169541979Y-63277419D01*
X169541979Y-63277419D02*
X169637217Y-63277419D01*
X169637217Y-63277419D02*
X169780074Y-63325038D01*
X169780074Y-63325038D02*
X169827693Y-63372657D01*
X170732455Y-64277419D02*
X170256265Y-64277419D01*
X170256265Y-64277419D02*
X170256265Y-63277419D01*
X158533884Y-61991466D02*
X159295789Y-61991466D01*
X158914836Y-62372419D02*
X158914836Y-61610514D01*
X159676741Y-61372419D02*
X160295788Y-61372419D01*
X160295788Y-61372419D02*
X159962455Y-61753371D01*
X159962455Y-61753371D02*
X160105312Y-61753371D01*
X160105312Y-61753371D02*
X160200550Y-61800990D01*
X160200550Y-61800990D02*
X160248169Y-61848609D01*
X160248169Y-61848609D02*
X160295788Y-61943847D01*
X160295788Y-61943847D02*
X160295788Y-62181942D01*
X160295788Y-62181942D02*
X160248169Y-62277180D01*
X160248169Y-62277180D02*
X160200550Y-62324800D01*
X160200550Y-62324800D02*
X160105312Y-62372419D01*
X160105312Y-62372419D02*
X159819598Y-62372419D01*
X159819598Y-62372419D02*
X159724360Y-62324800D01*
X159724360Y-62324800D02*
X159676741Y-62277180D01*
X160724360Y-62277180D02*
X160771979Y-62324800D01*
X160771979Y-62324800D02*
X160724360Y-62372419D01*
X160724360Y-62372419D02*
X160676741Y-62324800D01*
X160676741Y-62324800D02*
X160724360Y-62277180D01*
X160724360Y-62277180D02*
X160724360Y-62372419D01*
X161105312Y-61372419D02*
X161724359Y-61372419D01*
X161724359Y-61372419D02*
X161391026Y-61753371D01*
X161391026Y-61753371D02*
X161533883Y-61753371D01*
X161533883Y-61753371D02*
X161629121Y-61800990D01*
X161629121Y-61800990D02*
X161676740Y-61848609D01*
X161676740Y-61848609D02*
X161724359Y-61943847D01*
X161724359Y-61943847D02*
X161724359Y-62181942D01*
X161724359Y-62181942D02*
X161676740Y-62277180D01*
X161676740Y-62277180D02*
X161629121Y-62324800D01*
X161629121Y-62324800D02*
X161533883Y-62372419D01*
X161533883Y-62372419D02*
X161248169Y-62372419D01*
X161248169Y-62372419D02*
X161152931Y-62324800D01*
X161152931Y-62324800D02*
X161105312Y-62277180D01*
X161914836Y-62467657D02*
X162676740Y-62467657D01*
X162914836Y-62372419D02*
X162914836Y-61372419D01*
X163391026Y-62372419D02*
X163391026Y-61372419D01*
X163391026Y-61372419D02*
X163962454Y-62372419D01*
X163962454Y-62372419D02*
X163962454Y-61372419D01*
X154827693Y-61420038D02*
X154732455Y-61372419D01*
X154732455Y-61372419D02*
X154589598Y-61372419D01*
X154589598Y-61372419D02*
X154446741Y-61420038D01*
X154446741Y-61420038D02*
X154351503Y-61515276D01*
X154351503Y-61515276D02*
X154303884Y-61610514D01*
X154303884Y-61610514D02*
X154256265Y-61800990D01*
X154256265Y-61800990D02*
X154256265Y-61943847D01*
X154256265Y-61943847D02*
X154303884Y-62134323D01*
X154303884Y-62134323D02*
X154351503Y-62229561D01*
X154351503Y-62229561D02*
X154446741Y-62324800D01*
X154446741Y-62324800D02*
X154589598Y-62372419D01*
X154589598Y-62372419D02*
X154684836Y-62372419D01*
X154684836Y-62372419D02*
X154827693Y-62324800D01*
X154827693Y-62324800D02*
X154875312Y-62277180D01*
X154875312Y-62277180D02*
X154875312Y-61943847D01*
X154875312Y-61943847D02*
X154684836Y-61943847D01*
X155303884Y-62372419D02*
X155303884Y-61372419D01*
X155303884Y-61372419D02*
X155875312Y-62372419D01*
X155875312Y-62372419D02*
X155875312Y-61372419D01*
X156351503Y-62372419D02*
X156351503Y-61372419D01*
X156351503Y-61372419D02*
X156589598Y-61372419D01*
X156589598Y-61372419D02*
X156732455Y-61420038D01*
X156732455Y-61420038D02*
X156827693Y-61515276D01*
X156827693Y-61515276D02*
X156875312Y-61610514D01*
X156875312Y-61610514D02*
X156922931Y-61800990D01*
X156922931Y-61800990D02*
X156922931Y-61943847D01*
X156922931Y-61943847D02*
X156875312Y-62134323D01*
X156875312Y-62134323D02*
X156827693Y-62229561D01*
X156827693Y-62229561D02*
X156732455Y-62324800D01*
X156732455Y-62324800D02*
X156589598Y-62372419D01*
X156589598Y-62372419D02*
X156351503Y-62372419D01*
X180327693Y-127920038D02*
X180232455Y-127872419D01*
X180232455Y-127872419D02*
X180089598Y-127872419D01*
X180089598Y-127872419D02*
X179946741Y-127920038D01*
X179946741Y-127920038D02*
X179851503Y-128015276D01*
X179851503Y-128015276D02*
X179803884Y-128110514D01*
X179803884Y-128110514D02*
X179756265Y-128300990D01*
X179756265Y-128300990D02*
X179756265Y-128443847D01*
X179756265Y-128443847D02*
X179803884Y-128634323D01*
X179803884Y-128634323D02*
X179851503Y-128729561D01*
X179851503Y-128729561D02*
X179946741Y-128824800D01*
X179946741Y-128824800D02*
X180089598Y-128872419D01*
X180089598Y-128872419D02*
X180184836Y-128872419D01*
X180184836Y-128872419D02*
X180327693Y-128824800D01*
X180327693Y-128824800D02*
X180375312Y-128777180D01*
X180375312Y-128777180D02*
X180375312Y-128443847D01*
X180375312Y-128443847D02*
X180184836Y-128443847D01*
X180803884Y-128872419D02*
X180803884Y-127872419D01*
X180803884Y-127872419D02*
X181375312Y-128872419D01*
X181375312Y-128872419D02*
X181375312Y-127872419D01*
X181851503Y-128872419D02*
X181851503Y-127872419D01*
X181851503Y-127872419D02*
X182089598Y-127872419D01*
X182089598Y-127872419D02*
X182232455Y-127920038D01*
X182232455Y-127920038D02*
X182327693Y-128015276D01*
X182327693Y-128015276D02*
X182375312Y-128110514D01*
X182375312Y-128110514D02*
X182422931Y-128300990D01*
X182422931Y-128300990D02*
X182422931Y-128443847D01*
X182422931Y-128443847D02*
X182375312Y-128634323D01*
X182375312Y-128634323D02*
X182327693Y-128729561D01*
X182327693Y-128729561D02*
X182232455Y-128824800D01*
X182232455Y-128824800D02*
X182089598Y-128872419D01*
X182089598Y-128872419D02*
X181851503Y-128872419D01*
X179827693Y-98920038D02*
X179732455Y-98872419D01*
X179732455Y-98872419D02*
X179589598Y-98872419D01*
X179589598Y-98872419D02*
X179446741Y-98920038D01*
X179446741Y-98920038D02*
X179351503Y-99015276D01*
X179351503Y-99015276D02*
X179303884Y-99110514D01*
X179303884Y-99110514D02*
X179256265Y-99300990D01*
X179256265Y-99300990D02*
X179256265Y-99443847D01*
X179256265Y-99443847D02*
X179303884Y-99634323D01*
X179303884Y-99634323D02*
X179351503Y-99729561D01*
X179351503Y-99729561D02*
X179446741Y-99824800D01*
X179446741Y-99824800D02*
X179589598Y-99872419D01*
X179589598Y-99872419D02*
X179684836Y-99872419D01*
X179684836Y-99872419D02*
X179827693Y-99824800D01*
X179827693Y-99824800D02*
X179875312Y-99777180D01*
X179875312Y-99777180D02*
X179875312Y-99443847D01*
X179875312Y-99443847D02*
X179684836Y-99443847D01*
X180303884Y-99872419D02*
X180303884Y-98872419D01*
X180303884Y-98872419D02*
X180875312Y-99872419D01*
X180875312Y-99872419D02*
X180875312Y-98872419D01*
X181351503Y-99872419D02*
X181351503Y-98872419D01*
X181351503Y-98872419D02*
X181589598Y-98872419D01*
X181589598Y-98872419D02*
X181732455Y-98920038D01*
X181732455Y-98920038D02*
X181827693Y-99015276D01*
X181827693Y-99015276D02*
X181875312Y-99110514D01*
X181875312Y-99110514D02*
X181922931Y-99300990D01*
X181922931Y-99300990D02*
X181922931Y-99443847D01*
X181922931Y-99443847D02*
X181875312Y-99634323D01*
X181875312Y-99634323D02*
X181827693Y-99729561D01*
X181827693Y-99729561D02*
X181732455Y-99824800D01*
X181732455Y-99824800D02*
X181589598Y-99872419D01*
X181589598Y-99872419D02*
X181351503Y-99872419D01*
X153000000Y-60500000D02*
X173000000Y-60500000D01*
X173000000Y-72000000D01*
X153000000Y-72000000D01*
X153000000Y-60500000D01*
D11*
X153261905Y-141954819D02*
X153261905Y-140954819D01*
X153261905Y-140954819D02*
X153500000Y-140954819D01*
X153500000Y-140954819D02*
X153642857Y-141002438D01*
X153642857Y-141002438D02*
X153738095Y-141097676D01*
X153738095Y-141097676D02*
X153785714Y-141192914D01*
X153785714Y-141192914D02*
X153833333Y-141383390D01*
X153833333Y-141383390D02*
X153833333Y-141526247D01*
X153833333Y-141526247D02*
X153785714Y-141716723D01*
X153785714Y-141716723D02*
X153738095Y-141811961D01*
X153738095Y-141811961D02*
X153642857Y-141907200D01*
X153642857Y-141907200D02*
X153500000Y-141954819D01*
X153500000Y-141954819D02*
X153261905Y-141954819D01*
X154166667Y-140954819D02*
X154785714Y-140954819D01*
X154785714Y-140954819D02*
X154452381Y-141335771D01*
X154452381Y-141335771D02*
X154595238Y-141335771D01*
X154595238Y-141335771D02*
X154690476Y-141383390D01*
X154690476Y-141383390D02*
X154738095Y-141431009D01*
X154738095Y-141431009D02*
X154785714Y-141526247D01*
X154785714Y-141526247D02*
X154785714Y-141764342D01*
X154785714Y-141764342D02*
X154738095Y-141859580D01*
X154738095Y-141859580D02*
X154690476Y-141907200D01*
X154690476Y-141907200D02*
X154595238Y-141954819D01*
X154595238Y-141954819D02*
X154309524Y-141954819D01*
X154309524Y-141954819D02*
X154214286Y-141907200D01*
X154214286Y-141907200D02*
X154166667Y-141859580D01*
X150961930Y-111579798D02*
X150961930Y-110579798D01*
X150961930Y-110579798D02*
X151200025Y-110579798D01*
X151200025Y-110579798D02*
X151342882Y-110627417D01*
X151342882Y-110627417D02*
X151438120Y-110722655D01*
X151438120Y-110722655D02*
X151485739Y-110817893D01*
X151485739Y-110817893D02*
X151533358Y-111008369D01*
X151533358Y-111008369D02*
X151533358Y-111151226D01*
X151533358Y-111151226D02*
X151485739Y-111341702D01*
X151485739Y-111341702D02*
X151438120Y-111436940D01*
X151438120Y-111436940D02*
X151342882Y-111532179D01*
X151342882Y-111532179D02*
X151200025Y-111579798D01*
X151200025Y-111579798D02*
X150961930Y-111579798D01*
X151914311Y-110675036D02*
X151961930Y-110627417D01*
X151961930Y-110627417D02*
X152057168Y-110579798D01*
X152057168Y-110579798D02*
X152295263Y-110579798D01*
X152295263Y-110579798D02*
X152390501Y-110627417D01*
X152390501Y-110627417D02*
X152438120Y-110675036D01*
X152438120Y-110675036D02*
X152485739Y-110770274D01*
X152485739Y-110770274D02*
X152485739Y-110865512D01*
X152485739Y-110865512D02*
X152438120Y-111008369D01*
X152438120Y-111008369D02*
X151866692Y-111579798D01*
X151866692Y-111579798D02*
X152485739Y-111579798D01*
X166443200Y-123454819D02*
X166443200Y-124264342D01*
X166443200Y-124264342D02*
X166490819Y-124359580D01*
X166490819Y-124359580D02*
X166538438Y-124407200D01*
X166538438Y-124407200D02*
X166633676Y-124454819D01*
X166633676Y-124454819D02*
X166824152Y-124454819D01*
X166824152Y-124454819D02*
X166919390Y-124407200D01*
X166919390Y-124407200D02*
X166967009Y-124359580D01*
X166967009Y-124359580D02*
X167014628Y-124264342D01*
X167014628Y-124264342D02*
X167014628Y-123454819D01*
X167633676Y-123883390D02*
X167538438Y-123835771D01*
X167538438Y-123835771D02*
X167490819Y-123788152D01*
X167490819Y-123788152D02*
X167443200Y-123692914D01*
X167443200Y-123692914D02*
X167443200Y-123645295D01*
X167443200Y-123645295D02*
X167490819Y-123550057D01*
X167490819Y-123550057D02*
X167538438Y-123502438D01*
X167538438Y-123502438D02*
X167633676Y-123454819D01*
X167633676Y-123454819D02*
X167824152Y-123454819D01*
X167824152Y-123454819D02*
X167919390Y-123502438D01*
X167919390Y-123502438D02*
X167967009Y-123550057D01*
X167967009Y-123550057D02*
X168014628Y-123645295D01*
X168014628Y-123645295D02*
X168014628Y-123692914D01*
X168014628Y-123692914D02*
X167967009Y-123788152D01*
X167967009Y-123788152D02*
X167919390Y-123835771D01*
X167919390Y-123835771D02*
X167824152Y-123883390D01*
X167824152Y-123883390D02*
X167633676Y-123883390D01*
X167633676Y-123883390D02*
X167538438Y-123931009D01*
X167538438Y-123931009D02*
X167490819Y-123978628D01*
X167490819Y-123978628D02*
X167443200Y-124073866D01*
X167443200Y-124073866D02*
X167443200Y-124264342D01*
X167443200Y-124264342D02*
X167490819Y-124359580D01*
X167490819Y-124359580D02*
X167538438Y-124407200D01*
X167538438Y-124407200D02*
X167633676Y-124454819D01*
X167633676Y-124454819D02*
X167824152Y-124454819D01*
X167824152Y-124454819D02*
X167919390Y-124407200D01*
X167919390Y-124407200D02*
X167967009Y-124359580D01*
X167967009Y-124359580D02*
X168014628Y-124264342D01*
X168014628Y-124264342D02*
X168014628Y-124073866D01*
X168014628Y-124073866D02*
X167967009Y-123978628D01*
X167967009Y-123978628D02*
X167919390Y-123931009D01*
X167919390Y-123931009D02*
X167824152Y-123883390D01*
X161238095Y-96454819D02*
X161238095Y-97264342D01*
X161238095Y-97264342D02*
X161285714Y-97359580D01*
X161285714Y-97359580D02*
X161333333Y-97407200D01*
X161333333Y-97407200D02*
X161428571Y-97454819D01*
X161428571Y-97454819D02*
X161619047Y-97454819D01*
X161619047Y-97454819D02*
X161714285Y-97407200D01*
X161714285Y-97407200D02*
X161761904Y-97359580D01*
X161761904Y-97359580D02*
X161809523Y-97264342D01*
X161809523Y-97264342D02*
X161809523Y-96454819D01*
X162190476Y-96454819D02*
X162857142Y-96454819D01*
X162857142Y-96454819D02*
X162428571Y-97454819D01*
X181454819Y-136711904D02*
X182264342Y-136711904D01*
X182264342Y-136711904D02*
X182359580Y-136664285D01*
X182359580Y-136664285D02*
X182407200Y-136616666D01*
X182407200Y-136616666D02*
X182454819Y-136521428D01*
X182454819Y-136521428D02*
X182454819Y-136330952D01*
X182454819Y-136330952D02*
X182407200Y-136235714D01*
X182407200Y-136235714D02*
X182359580Y-136188095D01*
X182359580Y-136188095D02*
X182264342Y-136140476D01*
X182264342Y-136140476D02*
X181454819Y-136140476D01*
X181454819Y-135235714D02*
X181454819Y-135426190D01*
X181454819Y-135426190D02*
X181502438Y-135521428D01*
X181502438Y-135521428D02*
X181550057Y-135569047D01*
X181550057Y-135569047D02*
X181692914Y-135664285D01*
X181692914Y-135664285D02*
X181883390Y-135711904D01*
X181883390Y-135711904D02*
X182264342Y-135711904D01*
X182264342Y-135711904D02*
X182359580Y-135664285D01*
X182359580Y-135664285D02*
X182407200Y-135616666D01*
X182407200Y-135616666D02*
X182454819Y-135521428D01*
X182454819Y-135521428D02*
X182454819Y-135330952D01*
X182454819Y-135330952D02*
X182407200Y-135235714D01*
X182407200Y-135235714D02*
X182359580Y-135188095D01*
X182359580Y-135188095D02*
X182264342Y-135140476D01*
X182264342Y-135140476D02*
X182026247Y-135140476D01*
X182026247Y-135140476D02*
X181931009Y-135188095D01*
X181931009Y-135188095D02*
X181883390Y-135235714D01*
X181883390Y-135235714D02*
X181835771Y-135330952D01*
X181835771Y-135330952D02*
X181835771Y-135521428D01*
X181835771Y-135521428D02*
X181883390Y-135616666D01*
X181883390Y-135616666D02*
X181931009Y-135664285D01*
X181931009Y-135664285D02*
X182026247Y-135711904D01*
X179654819Y-106812031D02*
X180464342Y-106812031D01*
X180464342Y-106812031D02*
X180559580Y-106764412D01*
X180559580Y-106764412D02*
X180607200Y-106716793D01*
X180607200Y-106716793D02*
X180654819Y-106621555D01*
X180654819Y-106621555D02*
X180654819Y-106431079D01*
X180654819Y-106431079D02*
X180607200Y-106335841D01*
X180607200Y-106335841D02*
X180559580Y-106288222D01*
X180559580Y-106288222D02*
X180464342Y-106240603D01*
X180464342Y-106240603D02*
X179654819Y-106240603D01*
X179654819Y-105288222D02*
X179654819Y-105764412D01*
X179654819Y-105764412D02*
X180131009Y-105812031D01*
X180131009Y-105812031D02*
X180083390Y-105764412D01*
X180083390Y-105764412D02*
X180035771Y-105669174D01*
X180035771Y-105669174D02*
X180035771Y-105431079D01*
X180035771Y-105431079D02*
X180083390Y-105335841D01*
X180083390Y-105335841D02*
X180131009Y-105288222D01*
X180131009Y-105288222D02*
X180226247Y-105240603D01*
X180226247Y-105240603D02*
X180464342Y-105240603D01*
X180464342Y-105240603D02*
X180559580Y-105288222D01*
X180559580Y-105288222D02*
X180607200Y-105335841D01*
X180607200Y-105335841D02*
X180654819Y-105431079D01*
X180654819Y-105431079D02*
X180654819Y-105669174D01*
X180654819Y-105669174D02*
X180607200Y-105764412D01*
X180607200Y-105764412D02*
X180559580Y-105812031D01*
X162238095Y-136454819D02*
X162238095Y-137264342D01*
X162238095Y-137264342D02*
X162285714Y-137359580D01*
X162285714Y-137359580D02*
X162333333Y-137407200D01*
X162333333Y-137407200D02*
X162428571Y-137454819D01*
X162428571Y-137454819D02*
X162619047Y-137454819D01*
X162619047Y-137454819D02*
X162714285Y-137407200D01*
X162714285Y-137407200D02*
X162761904Y-137359580D01*
X162761904Y-137359580D02*
X162809523Y-137264342D01*
X162809523Y-137264342D02*
X162809523Y-136454819D01*
X163714285Y-136788152D02*
X163714285Y-137454819D01*
X163476190Y-136407200D02*
X163238095Y-137121485D01*
X163238095Y-137121485D02*
X163857142Y-137121485D01*
X159238095Y-106454819D02*
X159238095Y-107264342D01*
X159238095Y-107264342D02*
X159285714Y-107359580D01*
X159285714Y-107359580D02*
X159333333Y-107407200D01*
X159333333Y-107407200D02*
X159428571Y-107454819D01*
X159428571Y-107454819D02*
X159619047Y-107454819D01*
X159619047Y-107454819D02*
X159714285Y-107407200D01*
X159714285Y-107407200D02*
X159761904Y-107359580D01*
X159761904Y-107359580D02*
X159809523Y-107264342D01*
X159809523Y-107264342D02*
X159809523Y-106454819D01*
X160190476Y-106454819D02*
X160809523Y-106454819D01*
X160809523Y-106454819D02*
X160476190Y-106835771D01*
X160476190Y-106835771D02*
X160619047Y-106835771D01*
X160619047Y-106835771D02*
X160714285Y-106883390D01*
X160714285Y-106883390D02*
X160761904Y-106931009D01*
X160761904Y-106931009D02*
X160809523Y-107026247D01*
X160809523Y-107026247D02*
X160809523Y-107264342D01*
X160809523Y-107264342D02*
X160761904Y-107359580D01*
X160761904Y-107359580D02*
X160714285Y-107407200D01*
X160714285Y-107407200D02*
X160619047Y-107454819D01*
X160619047Y-107454819D02*
X160333333Y-107454819D01*
X160333333Y-107454819D02*
X160238095Y-107407200D01*
X160238095Y-107407200D02*
X160190476Y-107359580D01*
X179714286Y-116075866D02*
X180476191Y-116075866D01*
X180095238Y-116456819D02*
X180095238Y-115694914D01*
X181428571Y-115456819D02*
X180952381Y-115456819D01*
X180952381Y-115456819D02*
X180904762Y-115933009D01*
X180904762Y-115933009D02*
X180952381Y-115885390D01*
X180952381Y-115885390D02*
X181047619Y-115837771D01*
X181047619Y-115837771D02*
X181285714Y-115837771D01*
X181285714Y-115837771D02*
X181380952Y-115885390D01*
X181380952Y-115885390D02*
X181428571Y-115933009D01*
X181428571Y-115933009D02*
X181476190Y-116028247D01*
X181476190Y-116028247D02*
X181476190Y-116266342D01*
X181476190Y-116266342D02*
X181428571Y-116361580D01*
X181428571Y-116361580D02*
X181380952Y-116409200D01*
X181380952Y-116409200D02*
X181285714Y-116456819D01*
X181285714Y-116456819D02*
X181047619Y-116456819D01*
X181047619Y-116456819D02*
X180952381Y-116409200D01*
X180952381Y-116409200D02*
X180904762Y-116361580D01*
X181761905Y-115456819D02*
X182095238Y-116456819D01*
X182095238Y-116456819D02*
X182428571Y-115456819D01*
X179000000Y-87075866D02*
X179761905Y-87075866D01*
X179380952Y-87456819D02*
X179380952Y-86694914D01*
X180142857Y-86456819D02*
X180761904Y-86456819D01*
X180761904Y-86456819D02*
X180428571Y-86837771D01*
X180428571Y-86837771D02*
X180571428Y-86837771D01*
X180571428Y-86837771D02*
X180666666Y-86885390D01*
X180666666Y-86885390D02*
X180714285Y-86933009D01*
X180714285Y-86933009D02*
X180761904Y-87028247D01*
X180761904Y-87028247D02*
X180761904Y-87266342D01*
X180761904Y-87266342D02*
X180714285Y-87361580D01*
X180714285Y-87361580D02*
X180666666Y-87409200D01*
X180666666Y-87409200D02*
X180571428Y-87456819D01*
X180571428Y-87456819D02*
X180285714Y-87456819D01*
X180285714Y-87456819D02*
X180190476Y-87409200D01*
X180190476Y-87409200D02*
X180142857Y-87361580D01*
X181190476Y-87361580D02*
X181238095Y-87409200D01*
X181238095Y-87409200D02*
X181190476Y-87456819D01*
X181190476Y-87456819D02*
X181142857Y-87409200D01*
X181142857Y-87409200D02*
X181190476Y-87361580D01*
X181190476Y-87361580D02*
X181190476Y-87456819D01*
X181571428Y-86456819D02*
X182190475Y-86456819D01*
X182190475Y-86456819D02*
X181857142Y-86837771D01*
X181857142Y-86837771D02*
X181999999Y-86837771D01*
X181999999Y-86837771D02*
X182095237Y-86885390D01*
X182095237Y-86885390D02*
X182142856Y-86933009D01*
X182142856Y-86933009D02*
X182190475Y-87028247D01*
X182190475Y-87028247D02*
X182190475Y-87266342D01*
X182190475Y-87266342D02*
X182142856Y-87361580D01*
X182142856Y-87361580D02*
X182095237Y-87409200D01*
X182095237Y-87409200D02*
X181999999Y-87456819D01*
X181999999Y-87456819D02*
X181714285Y-87456819D01*
X181714285Y-87456819D02*
X181619047Y-87409200D01*
X181619047Y-87409200D02*
X181571428Y-87361580D01*
X182476190Y-86456819D02*
X182809523Y-87456819D01*
X182809523Y-87456819D02*
X183142856Y-86456819D01*
X163538362Y-129284819D02*
X163205029Y-128808628D01*
X162966934Y-129284819D02*
X162966934Y-128284819D01*
X162966934Y-128284819D02*
X163347886Y-128284819D01*
X163347886Y-128284819D02*
X163443124Y-128332438D01*
X163443124Y-128332438D02*
X163490743Y-128380057D01*
X163490743Y-128380057D02*
X163538362Y-128475295D01*
X163538362Y-128475295D02*
X163538362Y-128618152D01*
X163538362Y-128618152D02*
X163490743Y-128713390D01*
X163490743Y-128713390D02*
X163443124Y-128761009D01*
X163443124Y-128761009D02*
X163347886Y-128808628D01*
X163347886Y-128808628D02*
X162966934Y-128808628D01*
X164109791Y-128713390D02*
X164014553Y-128665771D01*
X164014553Y-128665771D02*
X163966934Y-128618152D01*
X163966934Y-128618152D02*
X163919315Y-128522914D01*
X163919315Y-128522914D02*
X163919315Y-128475295D01*
X163919315Y-128475295D02*
X163966934Y-128380057D01*
X163966934Y-128380057D02*
X164014553Y-128332438D01*
X164014553Y-128332438D02*
X164109791Y-128284819D01*
X164109791Y-128284819D02*
X164300267Y-128284819D01*
X164300267Y-128284819D02*
X164395505Y-128332438D01*
X164395505Y-128332438D02*
X164443124Y-128380057D01*
X164443124Y-128380057D02*
X164490743Y-128475295D01*
X164490743Y-128475295D02*
X164490743Y-128522914D01*
X164490743Y-128522914D02*
X164443124Y-128618152D01*
X164443124Y-128618152D02*
X164395505Y-128665771D01*
X164395505Y-128665771D02*
X164300267Y-128713390D01*
X164300267Y-128713390D02*
X164109791Y-128713390D01*
X164109791Y-128713390D02*
X164014553Y-128761009D01*
X164014553Y-128761009D02*
X163966934Y-128808628D01*
X163966934Y-128808628D02*
X163919315Y-128903866D01*
X163919315Y-128903866D02*
X163919315Y-129094342D01*
X163919315Y-129094342D02*
X163966934Y-129189580D01*
X163966934Y-129189580D02*
X164014553Y-129237200D01*
X164014553Y-129237200D02*
X164109791Y-129284819D01*
X164109791Y-129284819D02*
X164300267Y-129284819D01*
X164300267Y-129284819D02*
X164395505Y-129237200D01*
X164395505Y-129237200D02*
X164443124Y-129189580D01*
X164443124Y-129189580D02*
X164490743Y-129094342D01*
X164490743Y-129094342D02*
X164490743Y-128903866D01*
X164490743Y-128903866D02*
X164443124Y-128808628D01*
X164443124Y-128808628D02*
X164395505Y-128761009D01*
X164395505Y-128761009D02*
X164300267Y-128713390D01*
X168538362Y-129284819D02*
X168205029Y-128808628D01*
X167966934Y-129284819D02*
X167966934Y-128284819D01*
X167966934Y-128284819D02*
X168347886Y-128284819D01*
X168347886Y-128284819D02*
X168443124Y-128332438D01*
X168443124Y-128332438D02*
X168490743Y-128380057D01*
X168490743Y-128380057D02*
X168538362Y-128475295D01*
X168538362Y-128475295D02*
X168538362Y-128618152D01*
X168538362Y-128618152D02*
X168490743Y-128713390D01*
X168490743Y-128713390D02*
X168443124Y-128761009D01*
X168443124Y-128761009D02*
X168347886Y-128808628D01*
X168347886Y-128808628D02*
X167966934Y-128808628D01*
X168871696Y-128284819D02*
X169538362Y-128284819D01*
X169538362Y-128284819D02*
X169109791Y-129284819D01*
X159833333Y-100384819D02*
X159500000Y-99908628D01*
X159261905Y-100384819D02*
X159261905Y-99384819D01*
X159261905Y-99384819D02*
X159642857Y-99384819D01*
X159642857Y-99384819D02*
X159738095Y-99432438D01*
X159738095Y-99432438D02*
X159785714Y-99480057D01*
X159785714Y-99480057D02*
X159833333Y-99575295D01*
X159833333Y-99575295D02*
X159833333Y-99718152D01*
X159833333Y-99718152D02*
X159785714Y-99813390D01*
X159785714Y-99813390D02*
X159738095Y-99861009D01*
X159738095Y-99861009D02*
X159642857Y-99908628D01*
X159642857Y-99908628D02*
X159261905Y-99908628D01*
X160690476Y-99384819D02*
X160500000Y-99384819D01*
X160500000Y-99384819D02*
X160404762Y-99432438D01*
X160404762Y-99432438D02*
X160357143Y-99480057D01*
X160357143Y-99480057D02*
X160261905Y-99622914D01*
X160261905Y-99622914D02*
X160214286Y-99813390D01*
X160214286Y-99813390D02*
X160214286Y-100194342D01*
X160214286Y-100194342D02*
X160261905Y-100289580D01*
X160261905Y-100289580D02*
X160309524Y-100337200D01*
X160309524Y-100337200D02*
X160404762Y-100384819D01*
X160404762Y-100384819D02*
X160595238Y-100384819D01*
X160595238Y-100384819D02*
X160690476Y-100337200D01*
X160690476Y-100337200D02*
X160738095Y-100289580D01*
X160738095Y-100289580D02*
X160785714Y-100194342D01*
X160785714Y-100194342D02*
X160785714Y-99956247D01*
X160785714Y-99956247D02*
X160738095Y-99861009D01*
X160738095Y-99861009D02*
X160690476Y-99813390D01*
X160690476Y-99813390D02*
X160595238Y-99765771D01*
X160595238Y-99765771D02*
X160404762Y-99765771D01*
X160404762Y-99765771D02*
X160309524Y-99813390D01*
X160309524Y-99813390D02*
X160261905Y-99861009D01*
X160261905Y-99861009D02*
X160214286Y-99956247D01*
X164333333Y-100384819D02*
X164000000Y-99908628D01*
X163761905Y-100384819D02*
X163761905Y-99384819D01*
X163761905Y-99384819D02*
X164142857Y-99384819D01*
X164142857Y-99384819D02*
X164238095Y-99432438D01*
X164238095Y-99432438D02*
X164285714Y-99480057D01*
X164285714Y-99480057D02*
X164333333Y-99575295D01*
X164333333Y-99575295D02*
X164333333Y-99718152D01*
X164333333Y-99718152D02*
X164285714Y-99813390D01*
X164285714Y-99813390D02*
X164238095Y-99861009D01*
X164238095Y-99861009D02*
X164142857Y-99908628D01*
X164142857Y-99908628D02*
X163761905Y-99908628D01*
X165238095Y-99384819D02*
X164761905Y-99384819D01*
X164761905Y-99384819D02*
X164714286Y-99861009D01*
X164714286Y-99861009D02*
X164761905Y-99813390D01*
X164761905Y-99813390D02*
X164857143Y-99765771D01*
X164857143Y-99765771D02*
X165095238Y-99765771D01*
X165095238Y-99765771D02*
X165190476Y-99813390D01*
X165190476Y-99813390D02*
X165238095Y-99861009D01*
X165238095Y-99861009D02*
X165285714Y-99956247D01*
X165285714Y-99956247D02*
X165285714Y-100194342D01*
X165285714Y-100194342D02*
X165238095Y-100289580D01*
X165238095Y-100289580D02*
X165190476Y-100337200D01*
X165190476Y-100337200D02*
X165095238Y-100384819D01*
X165095238Y-100384819D02*
X164857143Y-100384819D01*
X164857143Y-100384819D02*
X164761905Y-100337200D01*
X164761905Y-100337200D02*
X164714286Y-100289580D01*
X148516666Y-131654819D02*
X148516666Y-132369104D01*
X148516666Y-132369104D02*
X148469047Y-132511961D01*
X148469047Y-132511961D02*
X148373809Y-132607200D01*
X148373809Y-132607200D02*
X148230952Y-132654819D01*
X148230952Y-132654819D02*
X148135714Y-132654819D01*
X148992857Y-132654819D02*
X148992857Y-131654819D01*
X148992857Y-131654819D02*
X149373809Y-131654819D01*
X149373809Y-131654819D02*
X149469047Y-131702438D01*
X149469047Y-131702438D02*
X149516666Y-131750057D01*
X149516666Y-131750057D02*
X149564285Y-131845295D01*
X149564285Y-131845295D02*
X149564285Y-131988152D01*
X149564285Y-131988152D02*
X149516666Y-132083390D01*
X149516666Y-132083390D02*
X149469047Y-132131009D01*
X149469047Y-132131009D02*
X149373809Y-132178628D01*
X149373809Y-132178628D02*
X148992857Y-132178628D01*
X149897619Y-131654819D02*
X150516666Y-131654819D01*
X150516666Y-131654819D02*
X150183333Y-132035771D01*
X150183333Y-132035771D02*
X150326190Y-132035771D01*
X150326190Y-132035771D02*
X150421428Y-132083390D01*
X150421428Y-132083390D02*
X150469047Y-132131009D01*
X150469047Y-132131009D02*
X150516666Y-132226247D01*
X150516666Y-132226247D02*
X150516666Y-132464342D01*
X150516666Y-132464342D02*
X150469047Y-132559580D01*
X150469047Y-132559580D02*
X150421428Y-132607200D01*
X150421428Y-132607200D02*
X150326190Y-132654819D01*
X150326190Y-132654819D02*
X150040476Y-132654819D01*
X150040476Y-132654819D02*
X149945238Y-132607200D01*
X149945238Y-132607200D02*
X149897619Y-132559580D01*
X148516666Y-101654819D02*
X148516666Y-102369104D01*
X148516666Y-102369104D02*
X148469047Y-102511961D01*
X148469047Y-102511961D02*
X148373809Y-102607200D01*
X148373809Y-102607200D02*
X148230952Y-102654819D01*
X148230952Y-102654819D02*
X148135714Y-102654819D01*
X148992857Y-102654819D02*
X148992857Y-101654819D01*
X148992857Y-101654819D02*
X149373809Y-101654819D01*
X149373809Y-101654819D02*
X149469047Y-101702438D01*
X149469047Y-101702438D02*
X149516666Y-101750057D01*
X149516666Y-101750057D02*
X149564285Y-101845295D01*
X149564285Y-101845295D02*
X149564285Y-101988152D01*
X149564285Y-101988152D02*
X149516666Y-102083390D01*
X149516666Y-102083390D02*
X149469047Y-102131009D01*
X149469047Y-102131009D02*
X149373809Y-102178628D01*
X149373809Y-102178628D02*
X148992857Y-102178628D01*
X149945238Y-101750057D02*
X149992857Y-101702438D01*
X149992857Y-101702438D02*
X150088095Y-101654819D01*
X150088095Y-101654819D02*
X150326190Y-101654819D01*
X150326190Y-101654819D02*
X150421428Y-101702438D01*
X150421428Y-101702438D02*
X150469047Y-101750057D01*
X150469047Y-101750057D02*
X150516666Y-101845295D01*
X150516666Y-101845295D02*
X150516666Y-101940533D01*
X150516666Y-101940533D02*
X150469047Y-102083390D01*
X150469047Y-102083390D02*
X149897619Y-102654819D01*
X149897619Y-102654819D02*
X150516666Y-102654819D01*
X181214286Y-120693866D02*
X181976191Y-120693866D01*
X181595238Y-121074819D02*
X181595238Y-120312914D01*
X182928571Y-120074819D02*
X182452381Y-120074819D01*
X182452381Y-120074819D02*
X182404762Y-120551009D01*
X182404762Y-120551009D02*
X182452381Y-120503390D01*
X182452381Y-120503390D02*
X182547619Y-120455771D01*
X182547619Y-120455771D02*
X182785714Y-120455771D01*
X182785714Y-120455771D02*
X182880952Y-120503390D01*
X182880952Y-120503390D02*
X182928571Y-120551009D01*
X182928571Y-120551009D02*
X182976190Y-120646247D01*
X182976190Y-120646247D02*
X182976190Y-120884342D01*
X182976190Y-120884342D02*
X182928571Y-120979580D01*
X182928571Y-120979580D02*
X182880952Y-121027200D01*
X182880952Y-121027200D02*
X182785714Y-121074819D01*
X182785714Y-121074819D02*
X182547619Y-121074819D01*
X182547619Y-121074819D02*
X182452381Y-121027200D01*
X182452381Y-121027200D02*
X182404762Y-120979580D01*
X183261905Y-120074819D02*
X183595238Y-121074819D01*
X183595238Y-121074819D02*
X183928571Y-120074819D01*
X177214286Y-120693866D02*
X177976191Y-120693866D01*
X177595238Y-121074819D02*
X177595238Y-120312914D01*
X178928571Y-120074819D02*
X178452381Y-120074819D01*
X178452381Y-120074819D02*
X178404762Y-120551009D01*
X178404762Y-120551009D02*
X178452381Y-120503390D01*
X178452381Y-120503390D02*
X178547619Y-120455771D01*
X178547619Y-120455771D02*
X178785714Y-120455771D01*
X178785714Y-120455771D02*
X178880952Y-120503390D01*
X178880952Y-120503390D02*
X178928571Y-120551009D01*
X178928571Y-120551009D02*
X178976190Y-120646247D01*
X178976190Y-120646247D02*
X178976190Y-120884342D01*
X178976190Y-120884342D02*
X178928571Y-120979580D01*
X178928571Y-120979580D02*
X178880952Y-121027200D01*
X178880952Y-121027200D02*
X178785714Y-121074819D01*
X178785714Y-121074819D02*
X178547619Y-121074819D01*
X178547619Y-121074819D02*
X178452381Y-121027200D01*
X178452381Y-121027200D02*
X178404762Y-120979580D01*
X179261905Y-120074819D02*
X179595238Y-121074819D01*
X179595238Y-121074819D02*
X179928571Y-120074819D01*
X175500000Y-91918866D02*
X176261905Y-91918866D01*
X175880952Y-92299819D02*
X175880952Y-91537914D01*
X176642857Y-91299819D02*
X177261904Y-91299819D01*
X177261904Y-91299819D02*
X176928571Y-91680771D01*
X176928571Y-91680771D02*
X177071428Y-91680771D01*
X177071428Y-91680771D02*
X177166666Y-91728390D01*
X177166666Y-91728390D02*
X177214285Y-91776009D01*
X177214285Y-91776009D02*
X177261904Y-91871247D01*
X177261904Y-91871247D02*
X177261904Y-92109342D01*
X177261904Y-92109342D02*
X177214285Y-92204580D01*
X177214285Y-92204580D02*
X177166666Y-92252200D01*
X177166666Y-92252200D02*
X177071428Y-92299819D01*
X177071428Y-92299819D02*
X176785714Y-92299819D01*
X176785714Y-92299819D02*
X176690476Y-92252200D01*
X176690476Y-92252200D02*
X176642857Y-92204580D01*
X177690476Y-92204580D02*
X177738095Y-92252200D01*
X177738095Y-92252200D02*
X177690476Y-92299819D01*
X177690476Y-92299819D02*
X177642857Y-92252200D01*
X177642857Y-92252200D02*
X177690476Y-92204580D01*
X177690476Y-92204580D02*
X177690476Y-92299819D01*
X178071428Y-91299819D02*
X178690475Y-91299819D01*
X178690475Y-91299819D02*
X178357142Y-91680771D01*
X178357142Y-91680771D02*
X178499999Y-91680771D01*
X178499999Y-91680771D02*
X178595237Y-91728390D01*
X178595237Y-91728390D02*
X178642856Y-91776009D01*
X178642856Y-91776009D02*
X178690475Y-91871247D01*
X178690475Y-91871247D02*
X178690475Y-92109342D01*
X178690475Y-92109342D02*
X178642856Y-92204580D01*
X178642856Y-92204580D02*
X178595237Y-92252200D01*
X178595237Y-92252200D02*
X178499999Y-92299819D01*
X178499999Y-92299819D02*
X178214285Y-92299819D01*
X178214285Y-92299819D02*
X178119047Y-92252200D01*
X178119047Y-92252200D02*
X178071428Y-92204580D01*
X178976190Y-91299819D02*
X179309523Y-92299819D01*
X179309523Y-92299819D02*
X179642856Y-91299819D01*
X181000000Y-91918866D02*
X181761905Y-91918866D01*
X181380952Y-92299819D02*
X181380952Y-91537914D01*
X182142857Y-91299819D02*
X182761904Y-91299819D01*
X182761904Y-91299819D02*
X182428571Y-91680771D01*
X182428571Y-91680771D02*
X182571428Y-91680771D01*
X182571428Y-91680771D02*
X182666666Y-91728390D01*
X182666666Y-91728390D02*
X182714285Y-91776009D01*
X182714285Y-91776009D02*
X182761904Y-91871247D01*
X182761904Y-91871247D02*
X182761904Y-92109342D01*
X182761904Y-92109342D02*
X182714285Y-92204580D01*
X182714285Y-92204580D02*
X182666666Y-92252200D01*
X182666666Y-92252200D02*
X182571428Y-92299819D01*
X182571428Y-92299819D02*
X182285714Y-92299819D01*
X182285714Y-92299819D02*
X182190476Y-92252200D01*
X182190476Y-92252200D02*
X182142857Y-92204580D01*
X183190476Y-92204580D02*
X183238095Y-92252200D01*
X183238095Y-92252200D02*
X183190476Y-92299819D01*
X183190476Y-92299819D02*
X183142857Y-92252200D01*
X183142857Y-92252200D02*
X183190476Y-92204580D01*
X183190476Y-92204580D02*
X183190476Y-92299819D01*
X183571428Y-91299819D02*
X184190475Y-91299819D01*
X184190475Y-91299819D02*
X183857142Y-91680771D01*
X183857142Y-91680771D02*
X183999999Y-91680771D01*
X183999999Y-91680771D02*
X184095237Y-91728390D01*
X184095237Y-91728390D02*
X184142856Y-91776009D01*
X184142856Y-91776009D02*
X184190475Y-91871247D01*
X184190475Y-91871247D02*
X184190475Y-92109342D01*
X184190475Y-92109342D02*
X184142856Y-92204580D01*
X184142856Y-92204580D02*
X184095237Y-92252200D01*
X184095237Y-92252200D02*
X183999999Y-92299819D01*
X183999999Y-92299819D02*
X183714285Y-92299819D01*
X183714285Y-92299819D02*
X183619047Y-92252200D01*
X183619047Y-92252200D02*
X183571428Y-92204580D01*
X184476190Y-91299819D02*
X184809523Y-92299819D01*
X184809523Y-92299819D02*
X185142856Y-91299819D01*
X166017051Y-142766666D02*
X166064671Y-142814285D01*
X166064671Y-142814285D02*
X166112290Y-142957142D01*
X166112290Y-142957142D02*
X166112290Y-143052380D01*
X166112290Y-143052380D02*
X166064671Y-143195237D01*
X166064671Y-143195237D02*
X165969432Y-143290475D01*
X165969432Y-143290475D02*
X165874194Y-143338094D01*
X165874194Y-143338094D02*
X165683718Y-143385713D01*
X165683718Y-143385713D02*
X165540861Y-143385713D01*
X165540861Y-143385713D02*
X165350385Y-143338094D01*
X165350385Y-143338094D02*
X165255147Y-143290475D01*
X165255147Y-143290475D02*
X165159909Y-143195237D01*
X165159909Y-143195237D02*
X165112290Y-143052380D01*
X165112290Y-143052380D02*
X165112290Y-142957142D01*
X165112290Y-142957142D02*
X165159909Y-142814285D01*
X165159909Y-142814285D02*
X165207528Y-142766666D01*
X165112290Y-141909523D02*
X165112290Y-142099999D01*
X165112290Y-142099999D02*
X165159909Y-142195237D01*
X165159909Y-142195237D02*
X165207528Y-142242856D01*
X165207528Y-142242856D02*
X165350385Y-142338094D01*
X165350385Y-142338094D02*
X165540861Y-142385713D01*
X165540861Y-142385713D02*
X165921813Y-142385713D01*
X165921813Y-142385713D02*
X166017051Y-142338094D01*
X166017051Y-142338094D02*
X166064671Y-142290475D01*
X166064671Y-142290475D02*
X166112290Y-142195237D01*
X166112290Y-142195237D02*
X166112290Y-142004761D01*
X166112290Y-142004761D02*
X166064671Y-141909523D01*
X166064671Y-141909523D02*
X166017051Y-141861904D01*
X166017051Y-141861904D02*
X165921813Y-141814285D01*
X165921813Y-141814285D02*
X165683718Y-141814285D01*
X165683718Y-141814285D02*
X165588480Y-141861904D01*
X165588480Y-141861904D02*
X165540861Y-141909523D01*
X165540861Y-141909523D02*
X165493242Y-142004761D01*
X165493242Y-142004761D02*
X165493242Y-142195237D01*
X165493242Y-142195237D02*
X165540861Y-142290475D01*
X165540861Y-142290475D02*
X165588480Y-142338094D01*
X165588480Y-142338094D02*
X165683718Y-142385713D01*
X164359580Y-110666666D02*
X164407200Y-110714285D01*
X164407200Y-110714285D02*
X164454819Y-110857142D01*
X164454819Y-110857142D02*
X164454819Y-110952380D01*
X164454819Y-110952380D02*
X164407200Y-111095237D01*
X164407200Y-111095237D02*
X164311961Y-111190475D01*
X164311961Y-111190475D02*
X164216723Y-111238094D01*
X164216723Y-111238094D02*
X164026247Y-111285713D01*
X164026247Y-111285713D02*
X163883390Y-111285713D01*
X163883390Y-111285713D02*
X163692914Y-111238094D01*
X163692914Y-111238094D02*
X163597676Y-111190475D01*
X163597676Y-111190475D02*
X163502438Y-111095237D01*
X163502438Y-111095237D02*
X163454819Y-110952380D01*
X163454819Y-110952380D02*
X163454819Y-110857142D01*
X163454819Y-110857142D02*
X163502438Y-110714285D01*
X163502438Y-110714285D02*
X163550057Y-110666666D01*
X163454819Y-109761904D02*
X163454819Y-110238094D01*
X163454819Y-110238094D02*
X163931009Y-110285713D01*
X163931009Y-110285713D02*
X163883390Y-110238094D01*
X163883390Y-110238094D02*
X163835771Y-110142856D01*
X163835771Y-110142856D02*
X163835771Y-109904761D01*
X163835771Y-109904761D02*
X163883390Y-109809523D01*
X163883390Y-109809523D02*
X163931009Y-109761904D01*
X163931009Y-109761904D02*
X164026247Y-109714285D01*
X164026247Y-109714285D02*
X164264342Y-109714285D01*
X164264342Y-109714285D02*
X164359580Y-109761904D01*
X164359580Y-109761904D02*
X164407200Y-109809523D01*
X164407200Y-109809523D02*
X164454819Y-109904761D01*
X164454819Y-109904761D02*
X164454819Y-110142856D01*
X164454819Y-110142856D02*
X164407200Y-110238094D01*
X164407200Y-110238094D02*
X164359580Y-110285713D01*
X156564609Y-133066666D02*
X156612229Y-133114285D01*
X156612229Y-133114285D02*
X156659848Y-133257142D01*
X156659848Y-133257142D02*
X156659848Y-133352380D01*
X156659848Y-133352380D02*
X156612229Y-133495237D01*
X156612229Y-133495237D02*
X156516990Y-133590475D01*
X156516990Y-133590475D02*
X156421752Y-133638094D01*
X156421752Y-133638094D02*
X156231276Y-133685713D01*
X156231276Y-133685713D02*
X156088419Y-133685713D01*
X156088419Y-133685713D02*
X155897943Y-133638094D01*
X155897943Y-133638094D02*
X155802705Y-133590475D01*
X155802705Y-133590475D02*
X155707467Y-133495237D01*
X155707467Y-133495237D02*
X155659848Y-133352380D01*
X155659848Y-133352380D02*
X155659848Y-133257142D01*
X155659848Y-133257142D02*
X155707467Y-133114285D01*
X155707467Y-133114285D02*
X155755086Y-133066666D01*
X155993181Y-132209523D02*
X156659848Y-132209523D01*
X155612229Y-132447618D02*
X156326514Y-132685713D01*
X156326514Y-132685713D02*
X156326514Y-132066666D01*
X155259376Y-105706671D02*
X155306996Y-105754290D01*
X155306996Y-105754290D02*
X155354615Y-105897147D01*
X155354615Y-105897147D02*
X155354615Y-105992385D01*
X155354615Y-105992385D02*
X155306996Y-106135242D01*
X155306996Y-106135242D02*
X155211757Y-106230480D01*
X155211757Y-106230480D02*
X155116519Y-106278099D01*
X155116519Y-106278099D02*
X154926043Y-106325718D01*
X154926043Y-106325718D02*
X154783186Y-106325718D01*
X154783186Y-106325718D02*
X154592710Y-106278099D01*
X154592710Y-106278099D02*
X154497472Y-106230480D01*
X154497472Y-106230480D02*
X154402234Y-106135242D01*
X154402234Y-106135242D02*
X154354615Y-105992385D01*
X154354615Y-105992385D02*
X154354615Y-105897147D01*
X154354615Y-105897147D02*
X154402234Y-105754290D01*
X154402234Y-105754290D02*
X154449853Y-105706671D01*
X154354615Y-105373337D02*
X154354615Y-104754290D01*
X154354615Y-104754290D02*
X154735567Y-105087623D01*
X154735567Y-105087623D02*
X154735567Y-104944766D01*
X154735567Y-104944766D02*
X154783186Y-104849528D01*
X154783186Y-104849528D02*
X154830805Y-104801909D01*
X154830805Y-104801909D02*
X154926043Y-104754290D01*
X154926043Y-104754290D02*
X155164138Y-104754290D01*
X155164138Y-104754290D02*
X155259376Y-104801909D01*
X155259376Y-104801909D02*
X155306996Y-104849528D01*
X155306996Y-104849528D02*
X155354615Y-104944766D01*
X155354615Y-104944766D02*
X155354615Y-105230480D01*
X155354615Y-105230480D02*
X155306996Y-105325718D01*
X155306996Y-105325718D02*
X155259376Y-105373337D01*
X148441666Y-66654819D02*
X148441666Y-67369104D01*
X148441666Y-67369104D02*
X148394047Y-67511961D01*
X148394047Y-67511961D02*
X148298809Y-67607200D01*
X148298809Y-67607200D02*
X148155952Y-67654819D01*
X148155952Y-67654819D02*
X148060714Y-67654819D01*
X148917857Y-67654819D02*
X148917857Y-66654819D01*
X148917857Y-66654819D02*
X149298809Y-66654819D01*
X149298809Y-66654819D02*
X149394047Y-66702438D01*
X149394047Y-66702438D02*
X149441666Y-66750057D01*
X149441666Y-66750057D02*
X149489285Y-66845295D01*
X149489285Y-66845295D02*
X149489285Y-66988152D01*
X149489285Y-66988152D02*
X149441666Y-67083390D01*
X149441666Y-67083390D02*
X149394047Y-67131009D01*
X149394047Y-67131009D02*
X149298809Y-67178628D01*
X149298809Y-67178628D02*
X148917857Y-67178628D01*
X150441666Y-67654819D02*
X149870238Y-67654819D01*
X150155952Y-67654819D02*
X150155952Y-66654819D01*
X150155952Y-66654819D02*
X150060714Y-66797676D01*
X150060714Y-66797676D02*
X149965476Y-66892914D01*
X149965476Y-66892914D02*
X149870238Y-66940533D01*
X138238095Y-71454819D02*
X138238095Y-72264342D01*
X138238095Y-72264342D02*
X138285714Y-72359580D01*
X138285714Y-72359580D02*
X138333333Y-72407200D01*
X138333333Y-72407200D02*
X138428571Y-72454819D01*
X138428571Y-72454819D02*
X138619047Y-72454819D01*
X138619047Y-72454819D02*
X138714285Y-72407200D01*
X138714285Y-72407200D02*
X138761904Y-72359580D01*
X138761904Y-72359580D02*
X138809523Y-72264342D01*
X138809523Y-72264342D02*
X138809523Y-71454819D01*
X139809523Y-72454819D02*
X139238095Y-72454819D01*
X139523809Y-72454819D02*
X139523809Y-71454819D01*
X139523809Y-71454819D02*
X139428571Y-71597676D01*
X139428571Y-71597676D02*
X139333333Y-71692914D01*
X139333333Y-71692914D02*
X139238095Y-71740533D01*
X130738095Y-108104438D02*
X130642857Y-108056819D01*
X130642857Y-108056819D02*
X130500000Y-108056819D01*
X130500000Y-108056819D02*
X130357143Y-108104438D01*
X130357143Y-108104438D02*
X130261905Y-108199676D01*
X130261905Y-108199676D02*
X130214286Y-108294914D01*
X130214286Y-108294914D02*
X130166667Y-108485390D01*
X130166667Y-108485390D02*
X130166667Y-108628247D01*
X130166667Y-108628247D02*
X130214286Y-108818723D01*
X130214286Y-108818723D02*
X130261905Y-108913961D01*
X130261905Y-108913961D02*
X130357143Y-109009200D01*
X130357143Y-109009200D02*
X130500000Y-109056819D01*
X130500000Y-109056819D02*
X130595238Y-109056819D01*
X130595238Y-109056819D02*
X130738095Y-109009200D01*
X130738095Y-109009200D02*
X130785714Y-108961580D01*
X130785714Y-108961580D02*
X130785714Y-108628247D01*
X130785714Y-108628247D02*
X130595238Y-108628247D01*
X131214286Y-109056819D02*
X131214286Y-108056819D01*
X131214286Y-108056819D02*
X131785714Y-109056819D01*
X131785714Y-109056819D02*
X131785714Y-108056819D01*
X132261905Y-109056819D02*
X132261905Y-108056819D01*
X132261905Y-108056819D02*
X132500000Y-108056819D01*
X132500000Y-108056819D02*
X132642857Y-108104438D01*
X132642857Y-108104438D02*
X132738095Y-108199676D01*
X132738095Y-108199676D02*
X132785714Y-108294914D01*
X132785714Y-108294914D02*
X132833333Y-108485390D01*
X132833333Y-108485390D02*
X132833333Y-108628247D01*
X132833333Y-108628247D02*
X132785714Y-108818723D01*
X132785714Y-108818723D02*
X132738095Y-108913961D01*
X132738095Y-108913961D02*
X132642857Y-109009200D01*
X132642857Y-109009200D02*
X132500000Y-109056819D01*
X132500000Y-109056819D02*
X132261905Y-109056819D01*
X146584819Y-85166666D02*
X146108628Y-85499999D01*
X146584819Y-85738094D02*
X145584819Y-85738094D01*
X145584819Y-85738094D02*
X145584819Y-85357142D01*
X145584819Y-85357142D02*
X145632438Y-85261904D01*
X145632438Y-85261904D02*
X145680057Y-85214285D01*
X145680057Y-85214285D02*
X145775295Y-85166666D01*
X145775295Y-85166666D02*
X145918152Y-85166666D01*
X145918152Y-85166666D02*
X146013390Y-85214285D01*
X146013390Y-85214285D02*
X146061009Y-85261904D01*
X146061009Y-85261904D02*
X146108628Y-85357142D01*
X146108628Y-85357142D02*
X146108628Y-85738094D01*
X145918152Y-84309523D02*
X146584819Y-84309523D01*
X145537200Y-84547618D02*
X146251485Y-84785713D01*
X146251485Y-84785713D02*
X146251485Y-84166666D01*
X128928571Y-102556819D02*
X128928571Y-101556819D01*
X128928571Y-101556819D02*
X129261904Y-102271104D01*
X129261904Y-102271104D02*
X129595237Y-101556819D01*
X129595237Y-101556819D02*
X129595237Y-102556819D01*
X129833333Y-102652057D02*
X130595237Y-102652057D01*
X131309523Y-102556819D02*
X130833333Y-102556819D01*
X130833333Y-102556819D02*
X130833333Y-101556819D01*
X131833333Y-101556819D02*
X132023809Y-101556819D01*
X132023809Y-101556819D02*
X132119047Y-101604438D01*
X132119047Y-101604438D02*
X132214285Y-101699676D01*
X132214285Y-101699676D02*
X132261904Y-101890152D01*
X132261904Y-101890152D02*
X132261904Y-102223485D01*
X132261904Y-102223485D02*
X132214285Y-102413961D01*
X132214285Y-102413961D02*
X132119047Y-102509200D01*
X132119047Y-102509200D02*
X132023809Y-102556819D01*
X132023809Y-102556819D02*
X131833333Y-102556819D01*
X131833333Y-102556819D02*
X131738095Y-102509200D01*
X131738095Y-102509200D02*
X131642857Y-102413961D01*
X131642857Y-102413961D02*
X131595238Y-102223485D01*
X131595238Y-102223485D02*
X131595238Y-101890152D01*
X131595238Y-101890152D02*
X131642857Y-101699676D01*
X131642857Y-101699676D02*
X131738095Y-101604438D01*
X131738095Y-101604438D02*
X131833333Y-101556819D01*
X132642857Y-102271104D02*
X133119047Y-102271104D01*
X132547619Y-102556819D02*
X132880952Y-101556819D01*
X132880952Y-101556819D02*
X133214285Y-102556819D01*
X133547619Y-102556819D02*
X133547619Y-101556819D01*
X133547619Y-101556819D02*
X133785714Y-101556819D01*
X133785714Y-101556819D02*
X133928571Y-101604438D01*
X133928571Y-101604438D02*
X134023809Y-101699676D01*
X134023809Y-101699676D02*
X134071428Y-101794914D01*
X134071428Y-101794914D02*
X134119047Y-101985390D01*
X134119047Y-101985390D02*
X134119047Y-102128247D01*
X134119047Y-102128247D02*
X134071428Y-102318723D01*
X134071428Y-102318723D02*
X134023809Y-102413961D01*
X134023809Y-102413961D02*
X133928571Y-102509200D01*
X133928571Y-102509200D02*
X133785714Y-102556819D01*
X133785714Y-102556819D02*
X133547619Y-102556819D01*
X149384842Y-85761904D02*
X150194365Y-85761904D01*
X150194365Y-85761904D02*
X150289603Y-85714285D01*
X150289603Y-85714285D02*
X150337223Y-85666666D01*
X150337223Y-85666666D02*
X150384842Y-85571428D01*
X150384842Y-85571428D02*
X150384842Y-85380952D01*
X150384842Y-85380952D02*
X150337223Y-85285714D01*
X150337223Y-85285714D02*
X150289603Y-85238095D01*
X150289603Y-85238095D02*
X150194365Y-85190476D01*
X150194365Y-85190476D02*
X149384842Y-85190476D01*
X149480080Y-84761904D02*
X149432461Y-84714285D01*
X149432461Y-84714285D02*
X149384842Y-84619047D01*
X149384842Y-84619047D02*
X149384842Y-84380952D01*
X149384842Y-84380952D02*
X149432461Y-84285714D01*
X149432461Y-84285714D02*
X149480080Y-84238095D01*
X149480080Y-84238095D02*
X149575318Y-84190476D01*
X149575318Y-84190476D02*
X149670556Y-84190476D01*
X149670556Y-84190476D02*
X149813413Y-84238095D01*
X149813413Y-84238095D02*
X150384842Y-84809523D01*
X150384842Y-84809523D02*
X150384842Y-84190476D01*
X130238095Y-94104438D02*
X130142857Y-94056819D01*
X130142857Y-94056819D02*
X130000000Y-94056819D01*
X130000000Y-94056819D02*
X129857143Y-94104438D01*
X129857143Y-94104438D02*
X129761905Y-94199676D01*
X129761905Y-94199676D02*
X129714286Y-94294914D01*
X129714286Y-94294914D02*
X129666667Y-94485390D01*
X129666667Y-94485390D02*
X129666667Y-94628247D01*
X129666667Y-94628247D02*
X129714286Y-94818723D01*
X129714286Y-94818723D02*
X129761905Y-94913961D01*
X129761905Y-94913961D02*
X129857143Y-95009200D01*
X129857143Y-95009200D02*
X130000000Y-95056819D01*
X130000000Y-95056819D02*
X130095238Y-95056819D01*
X130095238Y-95056819D02*
X130238095Y-95009200D01*
X130238095Y-95009200D02*
X130285714Y-94961580D01*
X130285714Y-94961580D02*
X130285714Y-94628247D01*
X130285714Y-94628247D02*
X130095238Y-94628247D01*
X130714286Y-95056819D02*
X130714286Y-94056819D01*
X130714286Y-94056819D02*
X131285714Y-95056819D01*
X131285714Y-95056819D02*
X131285714Y-94056819D01*
X131761905Y-95056819D02*
X131761905Y-94056819D01*
X131761905Y-94056819D02*
X132000000Y-94056819D01*
X132000000Y-94056819D02*
X132142857Y-94104438D01*
X132142857Y-94104438D02*
X132238095Y-94199676D01*
X132238095Y-94199676D02*
X132285714Y-94294914D01*
X132285714Y-94294914D02*
X132333333Y-94485390D01*
X132333333Y-94485390D02*
X132333333Y-94628247D01*
X132333333Y-94628247D02*
X132285714Y-94818723D01*
X132285714Y-94818723D02*
X132238095Y-94913961D01*
X132238095Y-94913961D02*
X132142857Y-95009200D01*
X132142857Y-95009200D02*
X132000000Y-95056819D01*
X132000000Y-95056819D02*
X131761905Y-95056819D01*
X156333333Y-78859580D02*
X156285714Y-78907200D01*
X156285714Y-78907200D02*
X156142857Y-78954819D01*
X156142857Y-78954819D02*
X156047619Y-78954819D01*
X156047619Y-78954819D02*
X155904762Y-78907200D01*
X155904762Y-78907200D02*
X155809524Y-78811961D01*
X155809524Y-78811961D02*
X155761905Y-78716723D01*
X155761905Y-78716723D02*
X155714286Y-78526247D01*
X155714286Y-78526247D02*
X155714286Y-78383390D01*
X155714286Y-78383390D02*
X155761905Y-78192914D01*
X155761905Y-78192914D02*
X155809524Y-78097676D01*
X155809524Y-78097676D02*
X155904762Y-78002438D01*
X155904762Y-78002438D02*
X156047619Y-77954819D01*
X156047619Y-77954819D02*
X156142857Y-77954819D01*
X156142857Y-77954819D02*
X156285714Y-78002438D01*
X156285714Y-78002438D02*
X156333333Y-78050057D01*
X156714286Y-78050057D02*
X156761905Y-78002438D01*
X156761905Y-78002438D02*
X156857143Y-77954819D01*
X156857143Y-77954819D02*
X157095238Y-77954819D01*
X157095238Y-77954819D02*
X157190476Y-78002438D01*
X157190476Y-78002438D02*
X157238095Y-78050057D01*
X157238095Y-78050057D02*
X157285714Y-78145295D01*
X157285714Y-78145295D02*
X157285714Y-78240533D01*
X157285714Y-78240533D02*
X157238095Y-78383390D01*
X157238095Y-78383390D02*
X156666667Y-78954819D01*
X156666667Y-78954819D02*
X157285714Y-78954819D01*
X151833333Y-75954819D02*
X151500000Y-75478628D01*
X151261905Y-75954819D02*
X151261905Y-74954819D01*
X151261905Y-74954819D02*
X151642857Y-74954819D01*
X151642857Y-74954819D02*
X151738095Y-75002438D01*
X151738095Y-75002438D02*
X151785714Y-75050057D01*
X151785714Y-75050057D02*
X151833333Y-75145295D01*
X151833333Y-75145295D02*
X151833333Y-75288152D01*
X151833333Y-75288152D02*
X151785714Y-75383390D01*
X151785714Y-75383390D02*
X151738095Y-75431009D01*
X151738095Y-75431009D02*
X151642857Y-75478628D01*
X151642857Y-75478628D02*
X151261905Y-75478628D01*
X152785714Y-75954819D02*
X152214286Y-75954819D01*
X152500000Y-75954819D02*
X152500000Y-74954819D01*
X152500000Y-74954819D02*
X152404762Y-75097676D01*
X152404762Y-75097676D02*
X152309524Y-75192914D01*
X152309524Y-75192914D02*
X152214286Y-75240533D01*
X164833333Y-83454819D02*
X164500000Y-82978628D01*
X164261905Y-83454819D02*
X164261905Y-82454819D01*
X164261905Y-82454819D02*
X164642857Y-82454819D01*
X164642857Y-82454819D02*
X164738095Y-82502438D01*
X164738095Y-82502438D02*
X164785714Y-82550057D01*
X164785714Y-82550057D02*
X164833333Y-82645295D01*
X164833333Y-82645295D02*
X164833333Y-82788152D01*
X164833333Y-82788152D02*
X164785714Y-82883390D01*
X164785714Y-82883390D02*
X164738095Y-82931009D01*
X164738095Y-82931009D02*
X164642857Y-82978628D01*
X164642857Y-82978628D02*
X164261905Y-82978628D01*
X165166667Y-82454819D02*
X165785714Y-82454819D01*
X165785714Y-82454819D02*
X165452381Y-82835771D01*
X165452381Y-82835771D02*
X165595238Y-82835771D01*
X165595238Y-82835771D02*
X165690476Y-82883390D01*
X165690476Y-82883390D02*
X165738095Y-82931009D01*
X165738095Y-82931009D02*
X165785714Y-83026247D01*
X165785714Y-83026247D02*
X165785714Y-83264342D01*
X165785714Y-83264342D02*
X165738095Y-83359580D01*
X165738095Y-83359580D02*
X165690476Y-83407200D01*
X165690476Y-83407200D02*
X165595238Y-83454819D01*
X165595238Y-83454819D02*
X165309524Y-83454819D01*
X165309524Y-83454819D02*
X165214286Y-83407200D01*
X165214286Y-83407200D02*
X165166667Y-83359580D01*
X141761905Y-72556819D02*
X142333333Y-72556819D01*
X142047619Y-73556819D02*
X142047619Y-72556819D01*
X142666667Y-73556819D02*
X142666667Y-72556819D01*
X142666667Y-72556819D02*
X143047619Y-72556819D01*
X143047619Y-72556819D02*
X143142857Y-72604438D01*
X143142857Y-72604438D02*
X143190476Y-72652057D01*
X143190476Y-72652057D02*
X143238095Y-72747295D01*
X143238095Y-72747295D02*
X143238095Y-72890152D01*
X143238095Y-72890152D02*
X143190476Y-72985390D01*
X143190476Y-72985390D02*
X143142857Y-73033009D01*
X143142857Y-73033009D02*
X143047619Y-73080628D01*
X143047619Y-73080628D02*
X142666667Y-73080628D01*
X144190476Y-73556819D02*
X143619048Y-73556819D01*
X143904762Y-73556819D02*
X143904762Y-72556819D01*
X143904762Y-72556819D02*
X143809524Y-72699676D01*
X143809524Y-72699676D02*
X143714286Y-72794914D01*
X143714286Y-72794914D02*
X143619048Y-72842533D01*
X144809524Y-72556819D02*
X144904762Y-72556819D01*
X144904762Y-72556819D02*
X145000000Y-72604438D01*
X145000000Y-72604438D02*
X145047619Y-72652057D01*
X145047619Y-72652057D02*
X145095238Y-72747295D01*
X145095238Y-72747295D02*
X145142857Y-72937771D01*
X145142857Y-72937771D02*
X145142857Y-73175866D01*
X145142857Y-73175866D02*
X145095238Y-73366342D01*
X145095238Y-73366342D02*
X145047619Y-73461580D01*
X145047619Y-73461580D02*
X145000000Y-73509200D01*
X145000000Y-73509200D02*
X144904762Y-73556819D01*
X144904762Y-73556819D02*
X144809524Y-73556819D01*
X144809524Y-73556819D02*
X144714286Y-73509200D01*
X144714286Y-73509200D02*
X144666667Y-73461580D01*
X144666667Y-73461580D02*
X144619048Y-73366342D01*
X144619048Y-73366342D02*
X144571429Y-73175866D01*
X144571429Y-73175866D02*
X144571429Y-72937771D01*
X144571429Y-72937771D02*
X144619048Y-72747295D01*
X144619048Y-72747295D02*
X144666667Y-72652057D01*
X144666667Y-72652057D02*
X144714286Y-72604438D01*
X144714286Y-72604438D02*
X144809524Y-72556819D01*
X128928571Y-73175866D02*
X129690476Y-73175866D01*
X129309523Y-73556819D02*
X129309523Y-72794914D01*
X130499999Y-73033009D02*
X130642856Y-73080628D01*
X130642856Y-73080628D02*
X130690475Y-73128247D01*
X130690475Y-73128247D02*
X130738094Y-73223485D01*
X130738094Y-73223485D02*
X130738094Y-73366342D01*
X130738094Y-73366342D02*
X130690475Y-73461580D01*
X130690475Y-73461580D02*
X130642856Y-73509200D01*
X130642856Y-73509200D02*
X130547618Y-73556819D01*
X130547618Y-73556819D02*
X130166666Y-73556819D01*
X130166666Y-73556819D02*
X130166666Y-72556819D01*
X130166666Y-72556819D02*
X130499999Y-72556819D01*
X130499999Y-72556819D02*
X130595237Y-72604438D01*
X130595237Y-72604438D02*
X130642856Y-72652057D01*
X130642856Y-72652057D02*
X130690475Y-72747295D01*
X130690475Y-72747295D02*
X130690475Y-72842533D01*
X130690475Y-72842533D02*
X130642856Y-72937771D01*
X130642856Y-72937771D02*
X130595237Y-72985390D01*
X130595237Y-72985390D02*
X130499999Y-73033009D01*
X130499999Y-73033009D02*
X130166666Y-73033009D01*
X131119047Y-73271104D02*
X131595237Y-73271104D01*
X131023809Y-73556819D02*
X131357142Y-72556819D01*
X131357142Y-72556819D02*
X131690475Y-73556819D01*
X131880952Y-72556819D02*
X132452380Y-72556819D01*
X132166666Y-73556819D02*
X132166666Y-72556819D01*
X132642857Y-72556819D02*
X133214285Y-72556819D01*
X132928571Y-73556819D02*
X132928571Y-72556819D01*
X151261905Y-73454819D02*
X151261905Y-72454819D01*
X151261905Y-72454819D02*
X151500000Y-72454819D01*
X151500000Y-72454819D02*
X151642857Y-72502438D01*
X151642857Y-72502438D02*
X151738095Y-72597676D01*
X151738095Y-72597676D02*
X151785714Y-72692914D01*
X151785714Y-72692914D02*
X151833333Y-72883390D01*
X151833333Y-72883390D02*
X151833333Y-73026247D01*
X151833333Y-73026247D02*
X151785714Y-73216723D01*
X151785714Y-73216723D02*
X151738095Y-73311961D01*
X151738095Y-73311961D02*
X151642857Y-73407200D01*
X151642857Y-73407200D02*
X151500000Y-73454819D01*
X151500000Y-73454819D02*
X151261905Y-73454819D01*
X152785714Y-73454819D02*
X152214286Y-73454819D01*
X152500000Y-73454819D02*
X152500000Y-72454819D01*
X152500000Y-72454819D02*
X152404762Y-72597676D01*
X152404762Y-72597676D02*
X152309524Y-72692914D01*
X152309524Y-72692914D02*
X152214286Y-72740533D01*
X128928571Y-115556819D02*
X128928571Y-114556819D01*
X128928571Y-114556819D02*
X129261904Y-115271104D01*
X129261904Y-115271104D02*
X129595237Y-114556819D01*
X129595237Y-114556819D02*
X129595237Y-115556819D01*
X129833333Y-115652057D02*
X130595237Y-115652057D01*
X131309523Y-115556819D02*
X130833333Y-115556819D01*
X130833333Y-115556819D02*
X130833333Y-114556819D01*
X131833333Y-114556819D02*
X132023809Y-114556819D01*
X132023809Y-114556819D02*
X132119047Y-114604438D01*
X132119047Y-114604438D02*
X132214285Y-114699676D01*
X132214285Y-114699676D02*
X132261904Y-114890152D01*
X132261904Y-114890152D02*
X132261904Y-115223485D01*
X132261904Y-115223485D02*
X132214285Y-115413961D01*
X132214285Y-115413961D02*
X132119047Y-115509200D01*
X132119047Y-115509200D02*
X132023809Y-115556819D01*
X132023809Y-115556819D02*
X131833333Y-115556819D01*
X131833333Y-115556819D02*
X131738095Y-115509200D01*
X131738095Y-115509200D02*
X131642857Y-115413961D01*
X131642857Y-115413961D02*
X131595238Y-115223485D01*
X131595238Y-115223485D02*
X131595238Y-114890152D01*
X131595238Y-114890152D02*
X131642857Y-114699676D01*
X131642857Y-114699676D02*
X131738095Y-114604438D01*
X131738095Y-114604438D02*
X131833333Y-114556819D01*
X132642857Y-115271104D02*
X133119047Y-115271104D01*
X132547619Y-115556819D02*
X132880952Y-114556819D01*
X132880952Y-114556819D02*
X133214285Y-115556819D01*
X133547619Y-115556819D02*
X133547619Y-114556819D01*
X133547619Y-114556819D02*
X133785714Y-114556819D01*
X133785714Y-114556819D02*
X133928571Y-114604438D01*
X133928571Y-114604438D02*
X134023809Y-114699676D01*
X134023809Y-114699676D02*
X134071428Y-114794914D01*
X134071428Y-114794914D02*
X134119047Y-114985390D01*
X134119047Y-114985390D02*
X134119047Y-115128247D01*
X134119047Y-115128247D02*
X134071428Y-115318723D01*
X134071428Y-115318723D02*
X134023809Y-115413961D01*
X134023809Y-115413961D02*
X133928571Y-115509200D01*
X133928571Y-115509200D02*
X133785714Y-115556819D01*
X133785714Y-115556819D02*
X133547619Y-115556819D01*
X164833333Y-85454819D02*
X164500000Y-84978628D01*
X164261905Y-85454819D02*
X164261905Y-84454819D01*
X164261905Y-84454819D02*
X164642857Y-84454819D01*
X164642857Y-84454819D02*
X164738095Y-84502438D01*
X164738095Y-84502438D02*
X164785714Y-84550057D01*
X164785714Y-84550057D02*
X164833333Y-84645295D01*
X164833333Y-84645295D02*
X164833333Y-84788152D01*
X164833333Y-84788152D02*
X164785714Y-84883390D01*
X164785714Y-84883390D02*
X164738095Y-84931009D01*
X164738095Y-84931009D02*
X164642857Y-84978628D01*
X164642857Y-84978628D02*
X164261905Y-84978628D01*
X165214286Y-84550057D02*
X165261905Y-84502438D01*
X165261905Y-84502438D02*
X165357143Y-84454819D01*
X165357143Y-84454819D02*
X165595238Y-84454819D01*
X165595238Y-84454819D02*
X165690476Y-84502438D01*
X165690476Y-84502438D02*
X165738095Y-84550057D01*
X165738095Y-84550057D02*
X165785714Y-84645295D01*
X165785714Y-84645295D02*
X165785714Y-84740533D01*
X165785714Y-84740533D02*
X165738095Y-84883390D01*
X165738095Y-84883390D02*
X165166667Y-85454819D01*
X165166667Y-85454819D02*
X165785714Y-85454819D01*
X130238095Y-79104438D02*
X130142857Y-79056819D01*
X130142857Y-79056819D02*
X130000000Y-79056819D01*
X130000000Y-79056819D02*
X129857143Y-79104438D01*
X129857143Y-79104438D02*
X129761905Y-79199676D01*
X129761905Y-79199676D02*
X129714286Y-79294914D01*
X129714286Y-79294914D02*
X129666667Y-79485390D01*
X129666667Y-79485390D02*
X129666667Y-79628247D01*
X129666667Y-79628247D02*
X129714286Y-79818723D01*
X129714286Y-79818723D02*
X129761905Y-79913961D01*
X129761905Y-79913961D02*
X129857143Y-80009200D01*
X129857143Y-80009200D02*
X130000000Y-80056819D01*
X130000000Y-80056819D02*
X130095238Y-80056819D01*
X130095238Y-80056819D02*
X130238095Y-80009200D01*
X130238095Y-80009200D02*
X130285714Y-79961580D01*
X130285714Y-79961580D02*
X130285714Y-79628247D01*
X130285714Y-79628247D02*
X130095238Y-79628247D01*
X130714286Y-80056819D02*
X130714286Y-79056819D01*
X130714286Y-79056819D02*
X131285714Y-80056819D01*
X131285714Y-80056819D02*
X131285714Y-79056819D01*
X131761905Y-80056819D02*
X131761905Y-79056819D01*
X131761905Y-79056819D02*
X132000000Y-79056819D01*
X132000000Y-79056819D02*
X132142857Y-79104438D01*
X132142857Y-79104438D02*
X132238095Y-79199676D01*
X132238095Y-79199676D02*
X132285714Y-79294914D01*
X132285714Y-79294914D02*
X132333333Y-79485390D01*
X132333333Y-79485390D02*
X132333333Y-79628247D01*
X132333333Y-79628247D02*
X132285714Y-79818723D01*
X132285714Y-79818723D02*
X132238095Y-79913961D01*
X132238095Y-79913961D02*
X132142857Y-80009200D01*
X132142857Y-80009200D02*
X132000000Y-80056819D01*
X132000000Y-80056819D02*
X131761905Y-80056819D01*
X128428571Y-89056819D02*
X128428571Y-88056819D01*
X128428571Y-88056819D02*
X128761904Y-88771104D01*
X128761904Y-88771104D02*
X129095237Y-88056819D01*
X129095237Y-88056819D02*
X129095237Y-89056819D01*
X129333333Y-89152057D02*
X130095237Y-89152057D01*
X130809523Y-89056819D02*
X130333333Y-89056819D01*
X130333333Y-89056819D02*
X130333333Y-88056819D01*
X131333333Y-88056819D02*
X131523809Y-88056819D01*
X131523809Y-88056819D02*
X131619047Y-88104438D01*
X131619047Y-88104438D02*
X131714285Y-88199676D01*
X131714285Y-88199676D02*
X131761904Y-88390152D01*
X131761904Y-88390152D02*
X131761904Y-88723485D01*
X131761904Y-88723485D02*
X131714285Y-88913961D01*
X131714285Y-88913961D02*
X131619047Y-89009200D01*
X131619047Y-89009200D02*
X131523809Y-89056819D01*
X131523809Y-89056819D02*
X131333333Y-89056819D01*
X131333333Y-89056819D02*
X131238095Y-89009200D01*
X131238095Y-89009200D02*
X131142857Y-88913961D01*
X131142857Y-88913961D02*
X131095238Y-88723485D01*
X131095238Y-88723485D02*
X131095238Y-88390152D01*
X131095238Y-88390152D02*
X131142857Y-88199676D01*
X131142857Y-88199676D02*
X131238095Y-88104438D01*
X131238095Y-88104438D02*
X131333333Y-88056819D01*
X132142857Y-88771104D02*
X132619047Y-88771104D01*
X132047619Y-89056819D02*
X132380952Y-88056819D01*
X132380952Y-88056819D02*
X132714285Y-89056819D01*
X133047619Y-89056819D02*
X133047619Y-88056819D01*
X133047619Y-88056819D02*
X133285714Y-88056819D01*
X133285714Y-88056819D02*
X133428571Y-88104438D01*
X133428571Y-88104438D02*
X133523809Y-88199676D01*
X133523809Y-88199676D02*
X133571428Y-88294914D01*
X133571428Y-88294914D02*
X133619047Y-88485390D01*
X133619047Y-88485390D02*
X133619047Y-88628247D01*
X133619047Y-88628247D02*
X133571428Y-88818723D01*
X133571428Y-88818723D02*
X133523809Y-88913961D01*
X133523809Y-88913961D02*
X133428571Y-89009200D01*
X133428571Y-89009200D02*
X133285714Y-89056819D01*
X133285714Y-89056819D02*
X133047619Y-89056819D01*
X156333333Y-80859580D02*
X156285714Y-80907200D01*
X156285714Y-80907200D02*
X156142857Y-80954819D01*
X156142857Y-80954819D02*
X156047619Y-80954819D01*
X156047619Y-80954819D02*
X155904762Y-80907200D01*
X155904762Y-80907200D02*
X155809524Y-80811961D01*
X155809524Y-80811961D02*
X155761905Y-80716723D01*
X155761905Y-80716723D02*
X155714286Y-80526247D01*
X155714286Y-80526247D02*
X155714286Y-80383390D01*
X155714286Y-80383390D02*
X155761905Y-80192914D01*
X155761905Y-80192914D02*
X155809524Y-80097676D01*
X155809524Y-80097676D02*
X155904762Y-80002438D01*
X155904762Y-80002438D02*
X156047619Y-79954819D01*
X156047619Y-79954819D02*
X156142857Y-79954819D01*
X156142857Y-79954819D02*
X156285714Y-80002438D01*
X156285714Y-80002438D02*
X156333333Y-80050057D01*
X157285714Y-80954819D02*
X156714286Y-80954819D01*
X157000000Y-80954819D02*
X157000000Y-79954819D01*
X157000000Y-79954819D02*
X156904762Y-80097676D01*
X156904762Y-80097676D02*
X156809524Y-80192914D01*
X156809524Y-80192914D02*
X156714286Y-80240533D01*
X161334819Y-64833333D02*
X162049104Y-64833333D01*
X162049104Y-64833333D02*
X162191961Y-64880952D01*
X162191961Y-64880952D02*
X162287200Y-64976190D01*
X162287200Y-64976190D02*
X162334819Y-65119047D01*
X162334819Y-65119047D02*
X162334819Y-65214285D01*
X161334819Y-63928571D02*
X161334819Y-64119047D01*
X161334819Y-64119047D02*
X161382438Y-64214285D01*
X161382438Y-64214285D02*
X161430057Y-64261904D01*
X161430057Y-64261904D02*
X161572914Y-64357142D01*
X161572914Y-64357142D02*
X161763390Y-64404761D01*
X161763390Y-64404761D02*
X162144342Y-64404761D01*
X162144342Y-64404761D02*
X162239580Y-64357142D01*
X162239580Y-64357142D02*
X162287200Y-64309523D01*
X162287200Y-64309523D02*
X162334819Y-64214285D01*
X162334819Y-64214285D02*
X162334819Y-64023809D01*
X162334819Y-64023809D02*
X162287200Y-63928571D01*
X162287200Y-63928571D02*
X162239580Y-63880952D01*
X162239580Y-63880952D02*
X162144342Y-63833333D01*
X162144342Y-63833333D02*
X161906247Y-63833333D01*
X161906247Y-63833333D02*
X161811009Y-63880952D01*
X161811009Y-63880952D02*
X161763390Y-63928571D01*
X161763390Y-63928571D02*
X161715771Y-64023809D01*
X161715771Y-64023809D02*
X161715771Y-64214285D01*
X161715771Y-64214285D02*
X161763390Y-64309523D01*
X161763390Y-64309523D02*
X161811009Y-64357142D01*
X161811009Y-64357142D02*
X161906247Y-64404761D01*
X165666666Y-68834819D02*
X165666666Y-69549104D01*
X165666666Y-69549104D02*
X165619047Y-69691961D01*
X165619047Y-69691961D02*
X165523809Y-69787200D01*
X165523809Y-69787200D02*
X165380952Y-69834819D01*
X165380952Y-69834819D02*
X165285714Y-69834819D01*
X166619047Y-68834819D02*
X166142857Y-68834819D01*
X166142857Y-68834819D02*
X166095238Y-69311009D01*
X166095238Y-69311009D02*
X166142857Y-69263390D01*
X166142857Y-69263390D02*
X166238095Y-69215771D01*
X166238095Y-69215771D02*
X166476190Y-69215771D01*
X166476190Y-69215771D02*
X166571428Y-69263390D01*
X166571428Y-69263390D02*
X166619047Y-69311009D01*
X166619047Y-69311009D02*
X166666666Y-69406247D01*
X166666666Y-69406247D02*
X166666666Y-69644342D01*
X166666666Y-69644342D02*
X166619047Y-69739580D01*
X166619047Y-69739580D02*
X166571428Y-69787200D01*
X166571428Y-69787200D02*
X166476190Y-69834819D01*
X166476190Y-69834819D02*
X166238095Y-69834819D01*
X166238095Y-69834819D02*
X166142857Y-69787200D01*
X166142857Y-69787200D02*
X166095238Y-69739580D01*
X130738095Y-121604438D02*
X130642857Y-121556819D01*
X130642857Y-121556819D02*
X130500000Y-121556819D01*
X130500000Y-121556819D02*
X130357143Y-121604438D01*
X130357143Y-121604438D02*
X130261905Y-121699676D01*
X130261905Y-121699676D02*
X130214286Y-121794914D01*
X130214286Y-121794914D02*
X130166667Y-121985390D01*
X130166667Y-121985390D02*
X130166667Y-122128247D01*
X130166667Y-122128247D02*
X130214286Y-122318723D01*
X130214286Y-122318723D02*
X130261905Y-122413961D01*
X130261905Y-122413961D02*
X130357143Y-122509200D01*
X130357143Y-122509200D02*
X130500000Y-122556819D01*
X130500000Y-122556819D02*
X130595238Y-122556819D01*
X130595238Y-122556819D02*
X130738095Y-122509200D01*
X130738095Y-122509200D02*
X130785714Y-122461580D01*
X130785714Y-122461580D02*
X130785714Y-122128247D01*
X130785714Y-122128247D02*
X130595238Y-122128247D01*
X131214286Y-122556819D02*
X131214286Y-121556819D01*
X131214286Y-121556819D02*
X131785714Y-122556819D01*
X131785714Y-122556819D02*
X131785714Y-121556819D01*
X132261905Y-122556819D02*
X132261905Y-121556819D01*
X132261905Y-121556819D02*
X132500000Y-121556819D01*
X132500000Y-121556819D02*
X132642857Y-121604438D01*
X132642857Y-121604438D02*
X132738095Y-121699676D01*
X132738095Y-121699676D02*
X132785714Y-121794914D01*
X132785714Y-121794914D02*
X132833333Y-121985390D01*
X132833333Y-121985390D02*
X132833333Y-122128247D01*
X132833333Y-122128247D02*
X132785714Y-122318723D01*
X132785714Y-122318723D02*
X132738095Y-122413961D01*
X132738095Y-122413961D02*
X132642857Y-122509200D01*
X132642857Y-122509200D02*
X132500000Y-122556819D01*
X132500000Y-122556819D02*
X132261905Y-122556819D01*
D12*
%TO.C,D3*%
X157616104Y-140073813D02*
X157616104Y-142926238D01*
X155903835Y-140073813D02*
X161096215Y-140073813D01*
X161093320Y-142675641D02*
X161100000Y-142914859D01*
X161096215Y-140073813D02*
X161102896Y-140313030D01*
X155903835Y-142926238D02*
X161096215Y-142926238D01*
D13*
X155986919Y-143002591D02*
X155527381Y-142998070D01*
X155531039Y-142595987D01*
X155988240Y-142595987D01*
X155986919Y-143002591D01*
G36*
X155986919Y-143002591D02*
G01*
X155527381Y-142998070D01*
X155531039Y-142595987D01*
X155988240Y-142595987D01*
X155986919Y-143002591D01*
G37*
X155978689Y-140404216D02*
X155519152Y-140399695D01*
X155522809Y-139997612D01*
X155980010Y-139997612D01*
X155978689Y-140404216D01*
G36*
X155978689Y-140404216D02*
G01*
X155519152Y-140399695D01*
X155522809Y-139997612D01*
X155980010Y-139997612D01*
X155978689Y-140404216D01*
G37*
D12*
%TO.C,D2*%
X155616104Y-109573813D02*
X155616104Y-112426238D01*
X153903835Y-109573813D02*
X159096215Y-109573813D01*
X159093320Y-112175641D02*
X159100000Y-112414859D01*
X159096215Y-109573813D02*
X159102896Y-109813030D01*
X153903835Y-112426238D02*
X159096215Y-112426238D01*
D13*
X153986919Y-112502591D02*
X153527381Y-112498070D01*
X153531039Y-112095987D01*
X153988240Y-112095987D01*
X153986919Y-112502591D01*
G36*
X153986919Y-112502591D02*
G01*
X153527381Y-112498070D01*
X153531039Y-112095987D01*
X153988240Y-112095987D01*
X153986919Y-112502591D01*
G37*
X153978689Y-109904216D02*
X153519152Y-109899695D01*
X153522809Y-109497612D01*
X153980010Y-109497612D01*
X153978689Y-109904216D01*
G36*
X153978689Y-109904216D02*
G01*
X153519152Y-109899695D01*
X153522809Y-109497612D01*
X153980010Y-109497612D01*
X153978689Y-109904216D01*
G37*
D12*
%TO.C,U8*%
X162978867Y-119682322D02*
X162978867Y-123126162D01*
X162978867Y-123126162D02*
X169695072Y-123126162D01*
X169695072Y-123126162D02*
X171431343Y-121389891D01*
X171431343Y-121389891D02*
X171431343Y-119682322D01*
X162978867Y-118117526D02*
X162978867Y-114673686D01*
X162978867Y-114673686D02*
X169695072Y-114673686D01*
X169695072Y-114673686D02*
X171431343Y-116409957D01*
X171431343Y-116409957D02*
X171431343Y-118117526D01*
D13*
X164300101Y-120933426D02*
X163304089Y-120933426D01*
X163304089Y-120684430D01*
X164300101Y-120684430D01*
X164300101Y-120933426D01*
G36*
X164300101Y-120933426D02*
G01*
X163304089Y-120933426D01*
X163304089Y-120684430D01*
X164300101Y-120684430D01*
X164300101Y-120933426D01*
G37*
X171106121Y-120933426D02*
X170110109Y-120933426D01*
X170110109Y-120684430D01*
X171106121Y-120684430D01*
X171106121Y-120933426D01*
G36*
X171106121Y-120933426D02*
G01*
X170110109Y-120933426D01*
X170110109Y-120684430D01*
X171106121Y-120684430D01*
X171106121Y-120933426D01*
G37*
X170732613Y-121638938D02*
X170483617Y-121638938D01*
X170483617Y-119978918D01*
X170732613Y-119978918D01*
X170732613Y-121638938D01*
G36*
X170732613Y-121638938D02*
G01*
X170483617Y-121638938D01*
X170483617Y-119978918D01*
X170732613Y-119978918D01*
X170732613Y-121638938D01*
G37*
D12*
%TO.C,U7*%
X158273838Y-92782322D02*
X158273838Y-96226162D01*
X158273838Y-96226162D02*
X164990043Y-96226162D01*
X164990043Y-96226162D02*
X166726314Y-94489891D01*
X166726314Y-94489891D02*
X166726314Y-92782322D01*
X158273838Y-91217526D02*
X158273838Y-87773686D01*
X158273838Y-87773686D02*
X164990043Y-87773686D01*
X164990043Y-87773686D02*
X166726314Y-89509957D01*
X166726314Y-89509957D02*
X166726314Y-91217526D01*
D13*
X159595072Y-94033426D02*
X158599060Y-94033426D01*
X158599060Y-93784430D01*
X159595072Y-93784430D01*
X159595072Y-94033426D01*
G36*
X159595072Y-94033426D02*
G01*
X158599060Y-94033426D01*
X158599060Y-93784430D01*
X159595072Y-93784430D01*
X159595072Y-94033426D01*
G37*
X166401092Y-94033426D02*
X165405080Y-94033426D01*
X165405080Y-93784430D01*
X166401092Y-93784430D01*
X166401092Y-94033426D01*
G36*
X166401092Y-94033426D02*
G01*
X165405080Y-94033426D01*
X165405080Y-93784430D01*
X166401092Y-93784430D01*
X166401092Y-94033426D01*
G37*
X166027584Y-94738938D02*
X165778588Y-94738938D01*
X165778588Y-93078918D01*
X166027584Y-93078918D01*
X166027584Y-94738938D01*
G36*
X166027584Y-94738938D02*
G01*
X165778588Y-94738938D01*
X165778588Y-93078918D01*
X166027584Y-93078918D01*
X166027584Y-94738938D01*
G37*
D14*
%TO.C,U6*%
X177705029Y-135900000D02*
G75*
G02*
X171705029Y-135900000I-3000000J0D01*
G01*
X171705029Y-135900000D02*
G75*
G02*
X177705029Y-135900000I3000000J0D01*
G01*
X180905029Y-129700000D02*
X180905029Y-142200000D01*
X180905029Y-142200000D02*
X177636169Y-142200000D01*
X171773889Y-142200000D02*
X168405029Y-142200000D01*
X168405029Y-142200000D02*
X168405029Y-129700000D01*
X168405029Y-129700000D02*
X171773889Y-129700000D01*
X177636169Y-129700000D02*
X180905029Y-129700000D01*
%TO.C,U5*%
X175000000Y-106000127D02*
G75*
G02*
X169000000Y-106000127I-3000000J0D01*
G01*
X169000000Y-106000127D02*
G75*
G02*
X175000000Y-106000127I3000000J0D01*
G01*
X178200000Y-99800127D02*
X178200000Y-112300127D01*
X178200000Y-112300127D02*
X174931140Y-112300127D01*
X169068860Y-112300127D02*
X165700000Y-112300127D01*
X165700000Y-112300127D02*
X165700000Y-99800127D01*
X165700000Y-99800127D02*
X169068860Y-99800127D01*
X174931140Y-99800127D02*
X178200000Y-99800127D01*
%TO.C,U4*%
X162104825Y-135805004D02*
G75*
G02*
X163705029Y-135805004I800102J-375288D01*
G01*
X165575107Y-136334976D02*
G75*
G02*
X165234747Y-136334976I-170180J0D01*
G01*
X165234747Y-136334976D02*
G75*
G02*
X165575107Y-136334976I170180J0D01*
G01*
X164954965Y-130868860D02*
X164954965Y-130755220D01*
X164954965Y-132138862D02*
X164954965Y-131931141D01*
X164954965Y-133408865D02*
X164954965Y-133201143D01*
X164954965Y-134678867D02*
X164954965Y-134471146D01*
X164954965Y-135855042D02*
X164954965Y-135741148D01*
X160854889Y-130868860D02*
X160854889Y-130755220D01*
X160854889Y-132138862D02*
X160854889Y-131931141D01*
X160854889Y-133408865D02*
X160854889Y-133201143D01*
X160854889Y-134678867D02*
X160854889Y-134471146D01*
X160854889Y-135855042D02*
X160854889Y-135741148D01*
X162104825Y-135855042D02*
X160854889Y-135855042D01*
X160854889Y-130755220D02*
X164954965Y-130755220D01*
X163705029Y-135855042D02*
X164954965Y-135855042D01*
%TO.C,U3*%
X158899796Y-105905004D02*
G75*
G02*
X160500000Y-105905004I800102J-375288D01*
G01*
X162370078Y-106434976D02*
G75*
G02*
X162029718Y-106434976I-170180J0D01*
G01*
X162029718Y-106434976D02*
G75*
G02*
X162370078Y-106434976I170180J0D01*
G01*
X161749936Y-100968860D02*
X161749936Y-100855220D01*
X161749936Y-102238862D02*
X161749936Y-102031141D01*
X161749936Y-103508865D02*
X161749936Y-103301143D01*
X161749936Y-104778867D02*
X161749936Y-104571146D01*
X161749936Y-105955042D02*
X161749936Y-105841148D01*
X157649860Y-100968860D02*
X157649860Y-100855220D01*
X157649860Y-102238862D02*
X157649860Y-102031141D01*
X157649860Y-103508865D02*
X157649860Y-103301143D01*
X157649860Y-104778867D02*
X157649860Y-104571146D01*
X157649860Y-105955042D02*
X157649860Y-105841148D01*
X158899796Y-105955042D02*
X157649860Y-105955042D01*
X157649860Y-100855220D02*
X161749936Y-100855220D01*
X160500000Y-105955042D02*
X161749936Y-105955042D01*
D13*
%TO.C,+5V*%
X182200000Y-118000000D02*
G75*
G02*
X179800000Y-118000000I-1200000J0D01*
G01*
X179800000Y-118000000D02*
G75*
G02*
X182200000Y-118000000I1200000J0D01*
G01*
%TO.C,+3.3V*%
X182200000Y-89000000D02*
G75*
G02*
X179800000Y-89000000I-1200000J0D01*
G01*
X179800000Y-89000000D02*
G75*
G02*
X182200000Y-89000000I1200000J0D01*
G01*
%TO.C,R8*%
X163959753Y-127922500D02*
X163450305Y-127922500D01*
X163959753Y-126877500D02*
X163450305Y-126877500D01*
%TO.C,R7*%
X168959753Y-127922500D02*
X168450305Y-127922500D01*
X168959753Y-126877500D02*
X168450305Y-126877500D01*
%TO.C,R6*%
X160254724Y-99022500D02*
X159745276Y-99022500D01*
X160254724Y-97977500D02*
X159745276Y-97977500D01*
%TO.C,R5*%
X164754724Y-99022500D02*
X164245276Y-99022500D01*
X164754724Y-97977500D02*
X164245276Y-97977500D01*
%TO.C,JP3*%
X147950000Y-134300000D02*
X147950000Y-133700000D01*
X148650000Y-133000000D02*
X150050000Y-133000000D01*
X150050000Y-135000000D02*
X148650000Y-135000000D01*
X150750000Y-133700000D02*
X150750000Y-134300000D01*
X147950000Y-133700000D02*
G75*
G02*
X148650000Y-133000000I699999J1D01*
G01*
X148650000Y-135000000D02*
G75*
G02*
X147950000Y-134300000I-1J699999D01*
G01*
X150050000Y-133000000D02*
G75*
G02*
X150750000Y-133700000I0J-700000D01*
G01*
X150750000Y-134300000D02*
G75*
G02*
X150050000Y-135000000I-700000J0D01*
G01*
%TO.C,JP2*%
X147950000Y-104300000D02*
X147950000Y-103700000D01*
X148650000Y-103000000D02*
X150050000Y-103000000D01*
X150050000Y-105000000D02*
X148650000Y-105000000D01*
X150750000Y-103700000D02*
X150750000Y-104300000D01*
X147950000Y-103700000D02*
G75*
G02*
X148650000Y-103000000I699999J1D01*
G01*
X148650000Y-105000000D02*
G75*
G02*
X147950000Y-104300000I-1J699999D01*
G01*
X150050000Y-103000000D02*
G75*
G02*
X150750000Y-103700000I0J-700000D01*
G01*
X150750000Y-104300000D02*
G75*
G02*
X150050000Y-105000000I-700000J0D01*
G01*
%TO.C,+5V*%
X181120000Y-121620000D02*
X182500000Y-121620000D01*
X181120000Y-123000000D02*
X181120000Y-121620000D01*
X181120000Y-124270000D02*
X181120000Y-126920000D01*
X181120000Y-124270000D02*
X183880000Y-124270000D01*
X181120000Y-126920000D02*
X183880000Y-126920000D01*
X183880000Y-124270000D02*
X183880000Y-126920000D01*
X177120000Y-121620000D02*
X178500000Y-121620000D01*
X177120000Y-123000000D02*
X177120000Y-121620000D01*
X177120000Y-124270000D02*
X177120000Y-126920000D01*
X177120000Y-124270000D02*
X179880000Y-124270000D01*
X177120000Y-126920000D02*
X179880000Y-126920000D01*
X179880000Y-124270000D02*
X179880000Y-126920000D01*
%TO.C,+3.3V*%
X177120000Y-92845000D02*
X178500000Y-92845000D01*
X177120000Y-94225000D02*
X177120000Y-92845000D01*
X177120000Y-95495000D02*
X177120000Y-98145000D01*
X177120000Y-95495000D02*
X179880000Y-95495000D01*
X177120000Y-98145000D02*
X179880000Y-98145000D01*
X179880000Y-95495000D02*
X179880000Y-98145000D01*
X181120000Y-92845000D02*
X182500000Y-92845000D01*
X181120000Y-94225000D02*
X181120000Y-92845000D01*
X181120000Y-95495000D02*
X181120000Y-98145000D01*
X181120000Y-95495000D02*
X183880000Y-95495000D01*
X181120000Y-98145000D02*
X183880000Y-98145000D01*
X183880000Y-95495000D02*
X183880000Y-98145000D01*
%TO.C,C6*%
X164990000Y-140146267D02*
X164990000Y-139853733D01*
X166010000Y-140146267D02*
X166010000Y-139853733D01*
%TO.C,C5*%
X163490000Y-107646267D02*
X163490000Y-107353733D01*
X164510000Y-107646267D02*
X164510000Y-107353733D01*
%TO.C,C4*%
X157695029Y-133046267D02*
X157695029Y-132753733D01*
X158715029Y-133046267D02*
X158715029Y-132753733D01*
%TO.C,C3*%
X154389796Y-103186272D02*
X154389796Y-102893738D01*
X155409796Y-103186272D02*
X155409796Y-102893738D01*
%TO.C,JP1*%
X147875000Y-68000000D02*
X150675000Y-68000000D01*
X147875000Y-70000000D02*
X147875000Y-68000000D01*
X150675000Y-68000000D02*
X150675000Y-70000000D01*
X150675000Y-70000000D02*
X147875000Y-70000000D01*
D14*
%TO.C,U1*%
X132494997Y-58713487D02*
X138205004Y-58713487D01*
X132494997Y-65313487D02*
X132494997Y-58713487D01*
X133354991Y-65313487D02*
X132494997Y-65313487D01*
X133354991Y-65313487D02*
X145505004Y-65313487D01*
X138205004Y-55263500D02*
X142174981Y-55263500D01*
X138205004Y-58713487D02*
X138205004Y-55263500D01*
X142174981Y-55263500D02*
X142174981Y-58663500D01*
X142174981Y-58663500D02*
X138205004Y-58663500D01*
X142174981Y-58663500D02*
X145505004Y-58663500D01*
X145505004Y-58663500D02*
X145505004Y-65243510D01*
D13*
%TO.C,GND*%
X133250000Y-111000000D02*
G75*
G02*
X129750000Y-111000000I-1750000J0D01*
G01*
X129750000Y-111000000D02*
G75*
G02*
X133250000Y-111000000I1750000J0D01*
G01*
%TO.C,R4*%
X141790000Y-82822936D02*
X141790000Y-87177064D01*
X145210000Y-82822936D02*
X145210000Y-87177064D01*
%TO.C,M_LOAD*%
X133250000Y-104500000D02*
G75*
G02*
X129750000Y-104500000I-1750000J0D01*
G01*
X129750000Y-104500000D02*
G75*
G02*
X133250000Y-104500000I1750000J0D01*
G01*
D12*
%TO.C,U2*%
X152978588Y-82473787D02*
X156021412Y-82473787D01*
X152978588Y-87526213D02*
X152978588Y-82473787D01*
X156021412Y-82473787D02*
X156021412Y-87526213D01*
X156021412Y-87526213D02*
X152978588Y-87526213D01*
D15*
X155419228Y-86905004D02*
G75*
G02*
X155119000Y-86905004I-150114J0D01*
G01*
X155119000Y-86905004D02*
G75*
G02*
X155419228Y-86905004I150114J0D01*
G01*
X157422530Y-87651511D02*
G75*
G02*
X157122302Y-87651511I-150114J0D01*
G01*
X157122302Y-87651511D02*
G75*
G02*
X157422530Y-87651511I150114J0D01*
G01*
D13*
%TO.C,GND*%
X132750000Y-97000000D02*
G75*
G02*
X129250000Y-97000000I-1750000J0D01*
G01*
X129250000Y-97000000D02*
G75*
G02*
X132750000Y-97000000I1750000J0D01*
G01*
%TO.C,C2*%
X153353733Y-77990000D02*
X153646267Y-77990000D01*
X153353733Y-79010000D02*
X153646267Y-79010000D01*
%TO.C,R1*%
X148745276Y-74977500D02*
X149254724Y-74977500D01*
X148745276Y-76022500D02*
X149254724Y-76022500D01*
%TO.C,R3*%
X162254724Y-82477500D02*
X161745276Y-82477500D01*
X162254724Y-83522500D02*
X161745276Y-83522500D01*
%TO.C,TP10*%
X145250000Y-75500000D02*
G75*
G02*
X141750000Y-75500000I-1750000J0D01*
G01*
X141750000Y-75500000D02*
G75*
G02*
X145250000Y-75500000I1750000J0D01*
G01*
%TO.C,+BATT*%
X132750000Y-75500000D02*
G75*
G02*
X129250000Y-75500000I-1750000J0D01*
G01*
X129250000Y-75500000D02*
G75*
G02*
X132750000Y-75500000I1750000J0D01*
G01*
%TO.C,D1*%
X147340000Y-72265000D02*
X147340000Y-73735000D01*
X147340000Y-73735000D02*
X149800000Y-73735000D01*
X149800000Y-72265000D02*
X147340000Y-72265000D01*
%TO.C,M_LOAD*%
X133250000Y-117500000D02*
G75*
G02*
X129750000Y-117500000I-1750000J0D01*
G01*
X129750000Y-117500000D02*
G75*
G02*
X133250000Y-117500000I1750000J0D01*
G01*
%TO.C,R2*%
X162254724Y-84477500D02*
X161745276Y-84477500D01*
X162254724Y-85522500D02*
X161745276Y-85522500D01*
%TO.C,GND*%
X132750000Y-82000000D02*
G75*
G02*
X129250000Y-82000000I-1750000J0D01*
G01*
X129250000Y-82000000D02*
G75*
G02*
X132750000Y-82000000I1750000J0D01*
G01*
%TO.C,M_LOAD*%
X132750000Y-91000000D02*
G75*
G02*
X129250000Y-91000000I-1750000J0D01*
G01*
X129250000Y-91000000D02*
G75*
G02*
X132750000Y-91000000I1750000J0D01*
G01*
%TO.C,C1*%
X153353733Y-79990000D02*
X153646267Y-79990000D01*
X153353733Y-81010000D02*
X153646267Y-81010000D01*
%TO.C,J6*%
X155580000Y-63120000D02*
X155580000Y-65880000D01*
X158230000Y-63120000D02*
X155580000Y-63120000D01*
X158230000Y-63120000D02*
X158230000Y-65880000D01*
X158230000Y-65880000D02*
X155580000Y-65880000D01*
X159500000Y-63120000D02*
X160880000Y-63120000D01*
X160880000Y-63120000D02*
X160880000Y-64500000D01*
%TO.C,J5*%
X164620000Y-65730000D02*
X164620000Y-63080000D01*
X167380000Y-63080000D02*
X164620000Y-63080000D01*
X167380000Y-65730000D02*
X164620000Y-65730000D01*
X167380000Y-65730000D02*
X167380000Y-63080000D01*
X167380000Y-67000000D02*
X167380000Y-68380000D01*
X167380000Y-68380000D02*
X166000000Y-68380000D01*
%TO.C,GND*%
X133250000Y-124500000D02*
G75*
G02*
X129750000Y-124500000I-1750000J0D01*
G01*
X129750000Y-124500000D02*
G75*
G02*
X133250000Y-124500000I1750000J0D01*
G01*
%TD*%
%LPC*%
%TO.C,JP3*%
G36*
X149200000Y-133250000D02*
G01*
X149500000Y-133250000D01*
X149500000Y-134750000D01*
X149200000Y-134750000D01*
X149200000Y-133250000D01*
G37*
%TO.C,JP2*%
G36*
X149200000Y-103250000D02*
G01*
X149500000Y-103250000D01*
X149500000Y-104750000D01*
X149200000Y-104750000D01*
X149200000Y-103250000D01*
G37*
%TO.C,JP1*%
G36*
X148050000Y-68250000D02*
G01*
X150500000Y-68250000D01*
X150500000Y-69750000D01*
X148050000Y-69750000D01*
X148050000Y-68250000D01*
G37*
%TD*%
D16*
%TO.C,D3*%
X156299975Y-141500000D03*
X160700025Y-141500000D03*
%TD*%
%TO.C,D2*%
X154299975Y-111000000D03*
X158700025Y-111000000D03*
%TD*%
D17*
%TO.C,U8*%
X170500000Y-118899924D03*
X163910211Y-118899924D03*
%TD*%
%TO.C,U7*%
X165794971Y-91999924D03*
X159205182Y-91999924D03*
%TD*%
D18*
%TO.C,U6*%
X174705029Y-130399873D03*
X174705029Y-141400127D03*
%TD*%
%TO.C,U5*%
X172000000Y-100500000D03*
X172000000Y-111500254D03*
%TD*%
D19*
%TO.C,U4*%
X165604825Y-135210008D03*
X165604825Y-133940005D03*
X165604825Y-132670003D03*
X165604825Y-131400000D03*
X160205029Y-131400000D03*
X160205029Y-132670003D03*
X160205029Y-133940005D03*
X160205029Y-135210008D03*
D20*
X162904800Y-133305004D03*
%TD*%
D19*
%TO.C,U3*%
X162399796Y-105310008D03*
X162399796Y-104040005D03*
X162399796Y-102770003D03*
X162399796Y-101500000D03*
X157000000Y-101500000D03*
X157000000Y-102770003D03*
X157000000Y-104040005D03*
X157000000Y-105310008D03*
D20*
X159699771Y-103405004D03*
%TD*%
D21*
%TO.C,+5V*%
X181000000Y-118000000D03*
%TD*%
%TO.C,+3.3V*%
X181000000Y-89000000D03*
%TD*%
D22*
%TO.C,R8*%
X164617529Y-127400000D03*
X162792529Y-127400000D03*
%TD*%
%TO.C,R7*%
X169617529Y-127400000D03*
X167792529Y-127400000D03*
%TD*%
%TO.C,R6*%
X160912500Y-98500000D03*
X159087500Y-98500000D03*
%TD*%
%TO.C,R5*%
X165412500Y-98500000D03*
X163587500Y-98500000D03*
%TD*%
D23*
%TO.C,JP3*%
X148700000Y-134000000D03*
D24*
X150000000Y-134000000D03*
%TD*%
D23*
%TO.C,JP2*%
X148700000Y-104000000D03*
D24*
X150000000Y-104000000D03*
%TD*%
D25*
%TO.C,+5V*%
X182500000Y-123000000D03*
D26*
X182500000Y-125540000D03*
%TD*%
D25*
%TO.C,+5V*%
X178500000Y-123000000D03*
D26*
X178500000Y-125540000D03*
%TD*%
D25*
%TO.C,+3.3V*%
X178500000Y-94225000D03*
D26*
X178500000Y-96765000D03*
%TD*%
D25*
%TO.C,+3.3V*%
X182500000Y-94225000D03*
D26*
X182500000Y-96765000D03*
%TD*%
D27*
%TO.C,C6*%
X165500000Y-140862500D03*
X165500000Y-139137500D03*
%TD*%
%TO.C,C5*%
X164000000Y-108362500D03*
X164000000Y-106637500D03*
%TD*%
%TO.C,C4*%
X158205029Y-133762500D03*
X158205029Y-132037500D03*
%TD*%
%TO.C,C3*%
X154899796Y-103902505D03*
X154899796Y-102177505D03*
%TD*%
D28*
%TO.C,JP1*%
X148550000Y-69000000D03*
D29*
X150000000Y-69000000D03*
%TD*%
D30*
%TO.C,U1*%
X143725019Y-69363500D03*
D31*
X139024994Y-69363500D03*
X134324969Y-69363500D03*
%TD*%
%TO.C,GND*%
X131500000Y-111000000D03*
%TD*%
D32*
%TO.C,R4*%
X143500000Y-81950000D03*
X143500000Y-88050000D03*
%TD*%
D31*
%TO.C,M_LOAD*%
X131500000Y-104500000D03*
%TD*%
D33*
%TO.C,U2*%
X157069977Y-86905004D03*
X157069977Y-85635001D03*
X157069977Y-84364999D03*
X157069977Y-83094996D03*
X151930023Y-83094996D03*
X151930023Y-84364999D03*
X151930023Y-85635001D03*
X151930023Y-86905004D03*
%TD*%
D31*
%TO.C,GND*%
X131000000Y-97000000D03*
%TD*%
D34*
%TO.C,C2*%
X152637500Y-78500000D03*
X154362500Y-78500000D03*
%TD*%
D35*
%TO.C,R1*%
X148087500Y-75500000D03*
X149912500Y-75500000D03*
%TD*%
D22*
%TO.C,R3*%
X162912500Y-83000000D03*
X161087500Y-83000000D03*
%TD*%
D31*
%TO.C,TP10*%
X143500000Y-75500000D03*
%TD*%
%TO.C,+BATT*%
X131000000Y-75500000D03*
%TD*%
D36*
%TO.C,D1*%
X148125000Y-73000000D03*
X149875000Y-73000000D03*
%TD*%
D31*
%TO.C,M_LOAD*%
X131500000Y-117500000D03*
%TD*%
D22*
%TO.C,R2*%
X162912500Y-85000000D03*
X161087500Y-85000000D03*
%TD*%
D31*
%TO.C,GND*%
X131000000Y-82000000D03*
%TD*%
%TO.C,M_LOAD*%
X131000000Y-91000000D03*
%TD*%
D34*
%TO.C,C1*%
X152637500Y-80500000D03*
X154362500Y-80500000D03*
%TD*%
D25*
%TO.C,J6*%
X159500000Y-64500000D03*
D26*
X156960000Y-64500000D03*
%TD*%
D25*
%TO.C,J5*%
X166000000Y-67000000D03*
D26*
X166000000Y-64460000D03*
%TD*%
D31*
%TO.C,GND*%
X131500000Y-124500000D03*
%TD*%
%LPD*%
M02*
